G04 #@! TF.GenerationSoftware,KiCad,Pcbnew,9.0.3*
G04 #@! TF.CreationDate,2025-08-19T12:31:52-07:00*
G04 #@! TF.ProjectId,battery_protector,62617474-6572-4795-9f70-726f74656374,rev?*
G04 #@! TF.SameCoordinates,Original*
G04 #@! TF.FileFunction,Soldermask,Top*
G04 #@! TF.FilePolarity,Negative*
%FSLAX46Y46*%
G04 Gerber Fmt 4.6, Leading zero omitted, Abs format (unit mm)*
G04 Created by KiCad (PCBNEW 9.0.3) date 2025-08-19 12:31:52*
%MOMM*%
%LPD*%
G01*
G04 APERTURE LIST*
G04 Aperture macros list*
%AMRoundRect*
0 Rectangle with rounded corners*
0 $1 Rounding radius*
0 $2 $3 $4 $5 $6 $7 $8 $9 X,Y pos of 4 corners*
0 Add a 4 corners polygon primitive as box body*
4,1,4,$2,$3,$4,$5,$6,$7,$8,$9,$2,$3,0*
0 Add four circle primitives for the rounded corners*
1,1,$1+$1,$2,$3*
1,1,$1+$1,$4,$5*
1,1,$1+$1,$6,$7*
1,1,$1+$1,$8,$9*
0 Add four rect primitives between the rounded corners*
20,1,$1+$1,$2,$3,$4,$5,0*
20,1,$1+$1,$4,$5,$6,$7,0*
20,1,$1+$1,$6,$7,$8,$9,0*
20,1,$1+$1,$8,$9,$2,$3,0*%
G04 Aperture macros list end*
%ADD10R,1.498600X2.946400*%
%ADD11R,1.397000X0.711200*%
%ADD12RoundRect,0.200000X-0.275000X0.200000X-0.275000X-0.200000X0.275000X-0.200000X0.275000X0.200000X0*%
%ADD13RoundRect,0.225000X-0.225000X-0.250000X0.225000X-0.250000X0.225000X0.250000X-0.225000X0.250000X0*%
%ADD14RoundRect,0.225000X0.225000X0.250000X-0.225000X0.250000X-0.225000X-0.250000X0.225000X-0.250000X0*%
%ADD15RoundRect,0.200000X-0.200000X-0.275000X0.200000X-0.275000X0.200000X0.275000X-0.200000X0.275000X0*%
%ADD16RoundRect,0.200000X0.275000X-0.200000X0.275000X0.200000X-0.275000X0.200000X-0.275000X-0.200000X0*%
%ADD17RoundRect,0.200000X0.200000X0.275000X-0.200000X0.275000X-0.200000X-0.275000X0.200000X-0.275000X0*%
%ADD18RoundRect,0.250000X-0.625000X0.312500X-0.625000X-0.312500X0.625000X-0.312500X0.625000X0.312500X0*%
%ADD19R,1.854200X1.143000*%
%ADD20R,2.260600X2.209800*%
%ADD21RoundRect,0.225000X-0.250000X0.225000X-0.250000X-0.225000X0.250000X-0.225000X0.250000X0.225000X0*%
%ADD22RoundRect,0.150000X-0.587500X-0.150000X0.587500X-0.150000X0.587500X0.150000X-0.587500X0.150000X0*%
%ADD23RoundRect,0.100000X-0.130000X-0.100000X0.130000X-0.100000X0.130000X0.100000X-0.130000X0.100000X0*%
%ADD24R,1.000000X1.550000*%
%ADD25R,1.143000X1.854200*%
%ADD26RoundRect,0.250000X-0.650000X0.325000X-0.650000X-0.325000X0.650000X-0.325000X0.650000X0.325000X0*%
%ADD27RoundRect,0.225000X0.250000X-0.225000X0.250000X0.225000X-0.250000X0.225000X-0.250000X-0.225000X0*%
%ADD28C,0.650000*%
%ADD29RoundRect,0.150000X-0.425000X0.150000X-0.425000X-0.150000X0.425000X-0.150000X0.425000X0.150000X0*%
%ADD30RoundRect,0.075000X-0.500000X0.075000X-0.500000X-0.075000X0.500000X-0.075000X0.500000X0.075000X0*%
%ADD31O,2.100000X1.000000*%
%ADD32O,1.800000X1.000000*%
%ADD33RoundRect,0.218750X-0.256250X0.218750X-0.256250X-0.218750X0.256250X-0.218750X0.256250X0.218750X0*%
%ADD34RoundRect,0.075000X-0.075000X0.200000X-0.075000X-0.200000X0.075000X-0.200000X0.075000X0.200000X0*%
%ADD35RoundRect,0.075000X-0.200000X0.075000X-0.200000X-0.075000X0.200000X-0.075000X0.200000X0.075000X0*%
%ADD36R,1.000000X1.000000*%
%ADD37RoundRect,0.147500X-0.147500X-0.172500X0.147500X-0.172500X0.147500X0.172500X-0.147500X0.172500X0*%
%ADD38RoundRect,0.150000X-0.512500X-0.150000X0.512500X-0.150000X0.512500X0.150000X-0.512500X0.150000X0*%
%ADD39R,1.700000X1.700000*%
%ADD40O,1.700000X1.700000*%
%ADD41RoundRect,0.050000X-0.285000X-0.100000X0.285000X-0.100000X0.285000X0.100000X-0.285000X0.100000X0*%
%ADD42RoundRect,0.250000X0.300000X-2.050000X0.300000X2.050000X-0.300000X2.050000X-0.300000X-2.050000X0*%
%ADD43RoundRect,0.250002X5.149998X-4.449998X5.149998X4.449998X-5.149998X4.449998X-5.149998X-4.449998X0*%
%ADD44RoundRect,0.250000X0.325000X0.650000X-0.325000X0.650000X-0.325000X-0.650000X0.325000X-0.650000X0*%
%ADD45R,3.100000X2.400000*%
%ADD46RoundRect,0.150000X-0.150000X0.737500X-0.150000X-0.737500X0.150000X-0.737500X0.150000X0.737500X0*%
%ADD47RoundRect,0.102000X-2.000000X-1.500000X2.000000X-1.500000X2.000000X1.500000X-2.000000X1.500000X0*%
%ADD48C,3.600000*%
%ADD49C,6.400000*%
%ADD50RoundRect,0.062500X-0.062500X0.337500X-0.062500X-0.337500X0.062500X-0.337500X0.062500X0.337500X0*%
%ADD51RoundRect,0.062500X-0.337500X0.062500X-0.337500X-0.062500X0.337500X-0.062500X0.337500X0.062500X0*%
%ADD52R,3.350000X3.350000*%
%ADD53R,1.500000X0.900000*%
%ADD54R,0.700000X0.700000*%
%ADD55RoundRect,0.250000X1.000000X-1.400000X1.000000X1.400000X-1.000000X1.400000X-1.000000X-1.400000X0*%
%ADD56R,7.000000X4.000000*%
%ADD57RoundRect,0.102000X-1.200000X1.200000X-1.200000X-1.200000X1.200000X-1.200000X1.200000X1.200000X0*%
%ADD58C,2.604000*%
%ADD59R,0.450000X1.310000*%
%ADD60R,6.400000X2.770000*%
%ADD61RoundRect,0.250000X0.650000X-0.325000X0.650000X0.325000X-0.650000X0.325000X-0.650000X-0.325000X0*%
%ADD62RoundRect,0.250000X-1.400000X-1.000000X1.400000X-1.000000X1.400000X1.000000X-1.400000X1.000000X0*%
%ADD63RoundRect,0.102000X1.200000X-1.200000X1.200000X1.200000X-1.200000X1.200000X-1.200000X-1.200000X0*%
G04 APERTURE END LIST*
D10*
X92699964Y-80890400D03*
D11*
X92700000Y-83227200D03*
X94800000Y-83227200D03*
D10*
X94800036Y-80890400D03*
D12*
X115728991Y-67175000D03*
X115728991Y-68825000D03*
D13*
X80351000Y-108970000D03*
X81901000Y-108970000D03*
D14*
X117525000Y-97750000D03*
X115975000Y-97750000D03*
X93675000Y-119600000D03*
X92125000Y-119600000D03*
D15*
X91000000Y-116600000D03*
X92650000Y-116600000D03*
D16*
X129600000Y-102825000D03*
X129600000Y-101175000D03*
X117560000Y-105525000D03*
X117560000Y-103875000D03*
D17*
X117571261Y-96194452D03*
X115921261Y-96194452D03*
D18*
X129750000Y-73037500D03*
X129750000Y-75962500D03*
D15*
X80475000Y-104500000D03*
X82125000Y-104500000D03*
D19*
X117864500Y-73000002D03*
X127135500Y-66999998D03*
X127135500Y-68999999D03*
X127135500Y-71000001D03*
X127135500Y-72999999D03*
X117864500Y-67000001D03*
X117864500Y-68999999D03*
X117864500Y-71000001D03*
D13*
X145425000Y-116200000D03*
X146975000Y-116200000D03*
D20*
X80200000Y-91444700D03*
X80200000Y-87355300D03*
D21*
X86600000Y-90725000D03*
X86600000Y-92275000D03*
D16*
X114040000Y-75415000D03*
X114040000Y-73765000D03*
X78800000Y-95700000D03*
X78800000Y-94050000D03*
D22*
X131862500Y-100950000D03*
X131862500Y-102850000D03*
X133737500Y-101900000D03*
D12*
X121700000Y-103275000D03*
X121700000Y-104925000D03*
D16*
X104528000Y-105974386D03*
X104528000Y-104324386D03*
D23*
X121380000Y-108900000D03*
X122020000Y-108900000D03*
D24*
X107500000Y-118175000D03*
X107500000Y-123425000D03*
X104300000Y-118175000D03*
X104300000Y-123425000D03*
D25*
X92749998Y-67864500D03*
X98750002Y-77135500D03*
X96750001Y-77135500D03*
X94749999Y-77135500D03*
X92750001Y-77135500D03*
X98749999Y-67864500D03*
X96750001Y-67864500D03*
X94749999Y-67864500D03*
D12*
X102628000Y-104324386D03*
X102628000Y-105974386D03*
D20*
X111050000Y-73524700D03*
X111050000Y-69435300D03*
D16*
X114540000Y-79755000D03*
X114540000Y-78105000D03*
D15*
X87451000Y-117430000D03*
X89101000Y-117430000D03*
D21*
X102662500Y-110275000D03*
X102662500Y-111825000D03*
D26*
X84400000Y-89650000D03*
X84400000Y-92600000D03*
D16*
X111500000Y-98825000D03*
X111500000Y-97175000D03*
D15*
X106260000Y-96250000D03*
X107910000Y-96250000D03*
D16*
X120000000Y-104925000D03*
X120000000Y-103275000D03*
X142100000Y-91425000D03*
X142100000Y-89775000D03*
D14*
X85275000Y-104500000D03*
X83725000Y-104500000D03*
D27*
X94150000Y-118125000D03*
X94150000Y-116575000D03*
D28*
X84056000Y-112360000D03*
X84056000Y-118140000D03*
D29*
X85131000Y-112050000D03*
X85131000Y-112850000D03*
D30*
X85131000Y-114000000D03*
X85131000Y-115000000D03*
X85131000Y-115500000D03*
X85131000Y-116500000D03*
D29*
X85131000Y-117650000D03*
X85131000Y-118450000D03*
X85131000Y-118450000D03*
X85131000Y-117650000D03*
D30*
X85131000Y-117000000D03*
X85131000Y-116000000D03*
X85131000Y-114500000D03*
X85131000Y-113500000D03*
D29*
X85131000Y-112850000D03*
X85131000Y-112050000D03*
D31*
X84556000Y-110930000D03*
D32*
X80376000Y-110930000D03*
D31*
X84556000Y-119570000D03*
D32*
X80376000Y-119570000D03*
D13*
X145425000Y-114700000D03*
X146975000Y-114700000D03*
D14*
X92575000Y-114600000D03*
X91025000Y-114600000D03*
D16*
X148100000Y-91425000D03*
X148100000Y-89775000D03*
D12*
X78800000Y-100550000D03*
X78800000Y-102200000D03*
D33*
X148100000Y-93312500D03*
X148100000Y-94887500D03*
D17*
X98075000Y-88056879D03*
X96425000Y-88056879D03*
D12*
X114040000Y-70795000D03*
X114040000Y-72445000D03*
X114540000Y-81105000D03*
X114540000Y-82755000D03*
D34*
X113900000Y-109950000D03*
X113400000Y-109950000D03*
X112900000Y-109950000D03*
X112400000Y-109950000D03*
X111900000Y-109950000D03*
D35*
X111675000Y-109225000D03*
X111675000Y-108725000D03*
X111675000Y-108225000D03*
D34*
X111900000Y-107500000D03*
X112400000Y-107500000D03*
X112900000Y-107500000D03*
X113400000Y-107500000D03*
X113900000Y-107500000D03*
D35*
X114125000Y-108225000D03*
X114125000Y-108725000D03*
X114125000Y-109225000D03*
D17*
X93725000Y-121100000D03*
X92075000Y-121100000D03*
D21*
X114373247Y-96179085D03*
X114373247Y-97729085D03*
D23*
X121380000Y-107400000D03*
X122020000Y-107400000D03*
D15*
X106260000Y-91750000D03*
X107910000Y-91750000D03*
D16*
X78800000Y-105425000D03*
X78800000Y-103775000D03*
D36*
X90526000Y-110930000D03*
X87526000Y-110930000D03*
D24*
X114250000Y-118175000D03*
X114250000Y-123425000D03*
X111050000Y-118175000D03*
X111050000Y-123425000D03*
D21*
X96932750Y-110075250D03*
X96932750Y-111625250D03*
D15*
X129775000Y-99000000D03*
X131425000Y-99000000D03*
D27*
X95650000Y-118125000D03*
X95650000Y-116575000D03*
D37*
X87615000Y-114600000D03*
X88585000Y-114600000D03*
D38*
X98695250Y-110100000D03*
X98695250Y-111050000D03*
X98695250Y-112000000D03*
X100970250Y-112000000D03*
X100970250Y-110100000D03*
D16*
X115900000Y-105525000D03*
X115900000Y-103875000D03*
D39*
X155500000Y-90940000D03*
D40*
X155500000Y-93480000D03*
X155500000Y-96020000D03*
X155500000Y-98560000D03*
X155500000Y-101100000D03*
X155500000Y-103640000D03*
X155500000Y-106180000D03*
X155500000Y-108720000D03*
X155500000Y-111260000D03*
X155500000Y-113800000D03*
X155500000Y-116340000D03*
X155500000Y-118880000D03*
D41*
X92352160Y-110049750D03*
X92352160Y-110549750D03*
X92352160Y-111049750D03*
X92352160Y-111549750D03*
X93832160Y-111549750D03*
X93832160Y-111049750D03*
X93832160Y-110549750D03*
X93832160Y-110049750D03*
D26*
X104600000Y-87125000D03*
X104600000Y-90075000D03*
D42*
X145940000Y-79775000D03*
X140860000Y-79775000D03*
D43*
X143400000Y-70625000D03*
D21*
X88250000Y-90725000D03*
X88250000Y-92275000D03*
D15*
X106260000Y-97750000D03*
X107910000Y-97750000D03*
D13*
X82225000Y-94300000D03*
X83775000Y-94300000D03*
D15*
X87451000Y-113180000D03*
X89101000Y-113180000D03*
D44*
X109850000Y-84900000D03*
X106900000Y-84900000D03*
D45*
X83250000Y-99400000D03*
D46*
X85155000Y-96837500D03*
X83885000Y-96837500D03*
X82615000Y-96837500D03*
X81345000Y-96837500D03*
X81345000Y-101962500D03*
X82615000Y-101962500D03*
X83885000Y-101962500D03*
X85155000Y-101962500D03*
D16*
X139100000Y-91425000D03*
X139100000Y-89775000D03*
D21*
X115580000Y-108335000D03*
X115580000Y-109885000D03*
D15*
X106260000Y-94750000D03*
X107910000Y-94750000D03*
D17*
X93927160Y-113049750D03*
X92277160Y-113049750D03*
D16*
X143800000Y-116325000D03*
X143800000Y-114675000D03*
D47*
X123450000Y-90950000D03*
X134250000Y-90950000D03*
D21*
X99750000Y-86475000D03*
X99750000Y-88025000D03*
D48*
X80963923Y-65907119D03*
D49*
X80963923Y-65907119D03*
D50*
X99100000Y-119650000D03*
X98600000Y-119650000D03*
X98100000Y-119650000D03*
X97600000Y-119650000D03*
X97100000Y-119650000D03*
X96600000Y-119650000D03*
X96100000Y-119650000D03*
D51*
X95150000Y-120600000D03*
X95150000Y-121100000D03*
X95150000Y-121600000D03*
X95150000Y-122100000D03*
X95150000Y-122600000D03*
X95150000Y-123100000D03*
X95150000Y-123600000D03*
D50*
X96100000Y-124550000D03*
X96600000Y-124550000D03*
X97100000Y-124550000D03*
X97600000Y-124550000D03*
X98100000Y-124550000D03*
X98600000Y-124550000D03*
X99100000Y-124550000D03*
D51*
X100050000Y-123600000D03*
X100050000Y-123100000D03*
X100050000Y-122600000D03*
X100050000Y-122100000D03*
X100050000Y-121600000D03*
X100050000Y-121100000D03*
X100050000Y-120600000D03*
D52*
X97600000Y-122100000D03*
D53*
X141910000Y-117900000D03*
X141910000Y-116400000D03*
X141910000Y-114900000D03*
X141910000Y-113400000D03*
X141910000Y-111900000D03*
X141910000Y-110400000D03*
X141910000Y-108900000D03*
X141910000Y-107400000D03*
X141910000Y-105900000D03*
X124410000Y-105900000D03*
X124410000Y-107400000D03*
X124410000Y-108900000D03*
X124410000Y-110400000D03*
X124410000Y-111900000D03*
X124410000Y-113400000D03*
X124410000Y-114900000D03*
X124410000Y-116400000D03*
X124410000Y-117900000D03*
D54*
X133300000Y-112800000D03*
X133300000Y-111700000D03*
X133300000Y-110600000D03*
X132200000Y-112800000D03*
X132200000Y-111700000D03*
X132200000Y-110600000D03*
X131100000Y-112800000D03*
X131100000Y-111700000D03*
X131100000Y-110600000D03*
D16*
X78800000Y-99025000D03*
X78800000Y-97375000D03*
D33*
X139100000Y-93312500D03*
X139100000Y-94887500D03*
D15*
X106260000Y-93250000D03*
X107910000Y-93250000D03*
D22*
X106600000Y-105600000D03*
X106600000Y-107500000D03*
X108475000Y-106550000D03*
D25*
X101249998Y-67864500D03*
X107250002Y-77135500D03*
X105250001Y-77135500D03*
X103249999Y-77135500D03*
X101250001Y-77135500D03*
X107249999Y-67864500D03*
X105250001Y-67864500D03*
X103249999Y-67864500D03*
D48*
X160200000Y-65907119D03*
D49*
X160200000Y-65907119D03*
D48*
X80963923Y-124800000D03*
D49*
X80963923Y-124800000D03*
D55*
X97350000Y-82000000D03*
X104150000Y-82000000D03*
D56*
X93000000Y-105000000D03*
X93000000Y-95000000D03*
D48*
X160200000Y-124800000D03*
D49*
X160200000Y-124800000D03*
D37*
X87291000Y-118930000D03*
X88261000Y-118930000D03*
D33*
X145100000Y-93312500D03*
X145100000Y-94887500D03*
D26*
X107300000Y-87125000D03*
X107300000Y-90075000D03*
D33*
X142100000Y-93312500D03*
X142100000Y-94887500D03*
D16*
X109750000Y-98825000D03*
X109750000Y-97175000D03*
D12*
X144300000Y-107275000D03*
X144300000Y-108925000D03*
D22*
X106562500Y-101950000D03*
X106562500Y-103850000D03*
X108437500Y-102900000D03*
D57*
X85887500Y-73690000D03*
D58*
X85887500Y-81310000D03*
D19*
X117864500Y-82000002D03*
X127135500Y-75999998D03*
X127135500Y-77999999D03*
X127135500Y-80000001D03*
X127135500Y-81999999D03*
X117864500Y-76000001D03*
X117864500Y-77999999D03*
X117864500Y-80000001D03*
D15*
X91000000Y-118100000D03*
X92650000Y-118100000D03*
D14*
X114055000Y-106100000D03*
X112505000Y-106100000D03*
D59*
X110100003Y-94000000D03*
X110750002Y-94000000D03*
X111400000Y-94000000D03*
X112050001Y-94000000D03*
X112700000Y-94000000D03*
X113350001Y-94000000D03*
X114000000Y-94000000D03*
X114650001Y-94000000D03*
X115300000Y-94000000D03*
X115950001Y-94000000D03*
X116600000Y-94000000D03*
X117250001Y-94000000D03*
X117250001Y-88289998D03*
X116600002Y-88289998D03*
X115950001Y-88289998D03*
X115300003Y-88289998D03*
X114650001Y-88289998D03*
X114000003Y-88289998D03*
X113350004Y-88289998D03*
X112700003Y-88289998D03*
X112050004Y-88289998D03*
X111400003Y-88289998D03*
X110750004Y-88289998D03*
X110100003Y-88289998D03*
D60*
X113675002Y-91144999D03*
D61*
X112300000Y-85975000D03*
X112300000Y-83025000D03*
D13*
X145425000Y-117700000D03*
X146975000Y-117700000D03*
X83976000Y-108970000D03*
X85526000Y-108970000D03*
D37*
X87615000Y-116000000D03*
X88585000Y-116000000D03*
D62*
X134250000Y-70100000D03*
X134250000Y-76900000D03*
D17*
X98075000Y-86500000D03*
X96425000Y-86500000D03*
D16*
X145100000Y-91425000D03*
X145100000Y-89775000D03*
D63*
X155310000Y-81190000D03*
D58*
X155310000Y-73570000D03*
M02*
