M48
; DRILL file {KiCad 9.0.3} date 2025-08-18T19:17:57-0700
; FORMAT={-:-/ absolute / metric / decimal}
; #@! TF.CreationDate,2025-08-18T19:17:57-07:00
; #@! TF.GenerationSoftware,Kicad,Pcbnew,9.0.3
; #@! TF.FileFunction,Plated,1,4,PTH
FMAT,2
METRIC
; #@! TA.AperFunction,Plated,PTH,ViaDrill
T1C0.300
; #@! TA.AperFunction,Plated,PTH,ComponentDrill
T2C0.600
; #@! TA.AperFunction,Plated,PTH,ComponentDrill
T3C1.000
; #@! TA.AperFunction,Plated,PTH,ComponentDrill
T4C1.600
; #@! TA.AperFunction,Plated,PTH,ComponentDrill
T5C3.200
%
G90
G05
T1
X79.45Y-104.45
X79.6Y-105.5
X80.2Y-96.7
X81.7Y-95.475
X81.9Y-108.1
X82.25Y-103.5
X82.9Y-108.1
X82.951Y-108.97
X83.75Y-95.475
X83.9Y-108.1
X86.151Y-112.07
X86.151Y-118.47
X86.5Y-97.0
X86.5Y-98.0
X86.5Y-99.0
X86.5Y-100.0
X86.6Y-89.7
X87.5Y-94.0
X87.5Y-95.0
X87.5Y-96.0
X87.5Y-97.0
X87.5Y-98.0
X87.5Y-99.0
X87.5Y-100.0
X88.261Y-119.6
X89.1Y-114.1
X89.1Y-116.6
X89.514Y-114.9
X89.514Y-115.7
X90.5Y-80.0
X90.5Y-81.0
X90.5Y-82.0
X90.9Y-115.4
X91.1Y-121.23
X91.5Y-80.0
X91.5Y-81.0
X91.5Y-82.0
X91.55Y-110.55
X91.6Y-118.8
X91.7Y-109.5
X91.75Y-116.299
X92.8Y-115.4
X93.1Y-109.5
X94.0Y-70.375
X94.0Y-108.3
X94.525Y-115.805
X94.642Y-111.05
X94.8Y-113.7
X95.192Y-109.992
X95.5Y-119.23
X95.67Y-115.75
X96.1Y-111.4
X96.1Y-112.2
X96.8Y-118.22
X96.9Y-112.4
X97.6Y-118.22
X97.6Y-122.1
X97.7Y-111.1
X100.74Y-87.49
X100.833Y-108.45
X100.833Y-109.35
X100.833Y-110.85
X101.1Y-112.8
X101.1Y-121.0
X101.213Y-121.792
X101.5Y-87.75
X101.833Y-108.45
X101.833Y-109.35
X101.833Y-110.85
X102.0Y-80.0
X102.0Y-81.0
X102.0Y-82.0
X102.0Y-83.0
X102.0Y-84.0
X102.1Y-112.8
X102.4Y-114.1
X102.833Y-108.45
X102.833Y-109.35
X103.0Y-80.0
X103.0Y-84.0
X103.0Y-112.7
X103.3Y-90.0
X103.3Y-91.0
X103.808Y-110.245
X103.808Y-111.745
X104.0Y-80.0
X104.0Y-84.0
X104.2Y-91.0
X104.3Y-122.2
X104.9Y-89.1
X105.0Y-80.0
X105.0Y-84.0
X105.1Y-118.2
X105.5Y-91.8
X105.5Y-93.2
X105.5Y-94.75
X105.5Y-96.15
X105.5Y-97.7
X106.0Y-80.0
X106.0Y-81.0
X106.0Y-82.0
X106.0Y-83.0
X106.0Y-89.1
X106.0Y-89.9
X106.0Y-90.7
X106.1Y-122.6
X106.2Y-124.7
X106.9Y-89.1
X108.3Y-120.0
X108.5Y-105.7
X109.0Y-115.5
X109.75Y-90.25
X109.75Y-91.25
X109.75Y-92.25
X110.0Y-121.8
X110.05Y-118.174
X110.2Y-100.2
X110.84Y-80.7
X111.8Y-106.1
X111.8Y-118.2
X111.8Y-123.5
X111.896Y-106.896
X111.95Y-110.75
X112.397Y-109.175
X112.75Y-96.75
X112.8Y-110.8
X113.3Y-108.3
X113.344Y-89.442
X113.4Y-97.8
X113.474Y-109.175
X113.5Y-97.0
X113.5Y-98.75
X113.571Y-96.179
X113.85Y-110.75
X113.9Y-105.1
X114.0Y-84.0
X114.45Y-100.15
X114.5Y-98.75
X114.65Y-95.0
X114.703Y-107.696
X114.75Y-109.25
X114.8Y-105.1
X115.0Y-85.0
X115.1Y-106.4
X115.5Y-74.0
X115.5Y-86.5
X115.5Y-98.75
X115.827Y-95.07
X116.5Y-98.75
X116.627Y-95.062
X116.788Y-89.607
X116.8Y-106.9
X116.853Y-92.667
X117.5Y-101.6
X117.75Y-89.5
X117.75Y-90.5
X117.75Y-91.5
X117.75Y-92.5
X117.75Y-93.5
X117.75Y-94.5
X118.75Y-101.85
X119.5Y-80.0
X119.7Y-112.0
X120.0Y-71.0
X120.0Y-102.1
X120.8Y-112.9
X121.7Y-102.5
X121.7Y-114.3
X122.9Y-110.8
X122.9Y-111.6
X123.2Y-105.9
X123.45Y-94.15
X125.7Y-113.4
X125.7Y-114.9
X127.3Y-117.0
X128.3Y-110.4
X128.5Y-114.9
X129.0Y-113.4
X129.5Y-66.5
X129.5Y-67.5
X129.5Y-68.5
X129.5Y-69.5
X129.5Y-70.5
X129.5Y-71.5
X130.5Y-66.5
X130.5Y-67.5
X130.5Y-68.5
X130.5Y-69.5
X130.5Y-70.5
X130.5Y-71.5
X130.7Y-102.9
X131.1Y-111.15
X131.1Y-112.25
X131.5Y-66.5
X131.5Y-67.5
X131.65Y-110.6
X131.65Y-111.7
X131.65Y-112.8
X132.2Y-111.15
X132.2Y-112.25
X132.5Y-66.5
X132.5Y-67.5
X132.75Y-110.6
X132.75Y-111.7
X132.75Y-112.8
X133.3Y-111.15
X133.3Y-112.25
X133.5Y-66.5
X133.5Y-67.5
X133.5Y-79.0
X133.5Y-80.0
X133.5Y-81.0
X133.5Y-82.0
X133.5Y-83.0
X133.5Y-84.0
X133.5Y-85.0
X134.5Y-66.5
X134.5Y-67.5
X134.5Y-79.0
X134.5Y-80.0
X134.5Y-81.0
X134.5Y-82.0
X134.5Y-83.0
X134.5Y-84.0
X134.5Y-85.0
X135.5Y-66.5
X135.5Y-67.5
X135.5Y-84.0
X135.5Y-85.0
X136.5Y-84.0
X136.5Y-85.0
X137.5Y-84.0
X137.5Y-85.0
X138.2Y-95.0
X138.5Y-84.0
X138.5Y-85.0
X139.1Y-88.8
X140.695Y-112.0
X140.695Y-113.5
X140.695Y-115.0
X140.7Y-105.5
X140.7Y-106.3
X140.7Y-107.4
X140.7Y-108.9
X140.7Y-110.4
X141.2Y-94.9
X142.1Y-88.8
X143.0Y-83.5
X143.0Y-84.5
X143.1Y-105.5
X143.1Y-106.3
X143.2Y-117.4
X143.2Y-118.2
X144.0Y-83.5
X144.0Y-84.5
X144.1Y-117.4
X144.1Y-118.2
X145.0Y-83.5
X145.0Y-84.5
X145.1Y-88.8
X145.2Y-107.3
X146.0Y-83.5
X146.0Y-84.5
X146.9Y-113.8
X147.0Y-83.5
X147.0Y-84.5
X147.2Y-94.9
X148.0Y-79.5
X148.0Y-80.5
X148.0Y-81.5
X148.0Y-82.5
X148.0Y-83.5
X148.0Y-84.5
X148.0Y-115.5
X148.0Y-116.3
X148.0Y-117.1
X148.0Y-117.9
X148.1Y-88.8
X148.5Y-114.0
X148.6Y-114.8
X149.0Y-79.5
X149.0Y-80.5
X149.0Y-81.5
X149.0Y-82.5
X149.0Y-83.5
X149.0Y-84.5
X150.4Y-111.2
T3
X155.5Y-90.94
X155.5Y-93.48
X155.5Y-96.02
X155.5Y-98.56
X155.5Y-101.1
X155.5Y-103.64
X155.5Y-106.18
X155.5Y-108.72
X155.5Y-111.26
X155.5Y-113.8
X155.5Y-116.34
X155.5Y-118.88
T4
X85.888Y-73.69
X85.888Y-81.31
X158.4Y-73.69
X158.4Y-81.31
T5
X80.964Y-65.907
X80.964Y-124.8
X160.2Y-65.907
X160.2Y-124.8
T2
G00X80.776Y-110.93
M15
G01X79.976Y-110.93
M16
G05
G00X80.776Y-119.57
M15
G01X79.976Y-119.57
M16
G05
G00X85.106Y-110.93
M15
G01X84.006Y-110.93
M16
G05
G00X85.106Y-119.57
M15
G01X84.006Y-119.57
M16
G05
M30
