G04 #@! TF.GenerationSoftware,KiCad,Pcbnew,9.0.3*
G04 #@! TF.CreationDate,2025-08-19T12:31:52-07:00*
G04 #@! TF.ProjectId,battery_protector,62617474-6572-4795-9f70-726f74656374,rev?*
G04 #@! TF.SameCoordinates,Original*
G04 #@! TF.FileFunction,Legend,Bot*
G04 #@! TF.FilePolarity,Positive*
%FSLAX46Y46*%
G04 Gerber Fmt 4.6, Leading zero omitted, Abs format (unit mm)*
G04 Created by KiCad (PCBNEW 9.0.3) date 2025-08-19 12:31:52*
%MOMM*%
%LPD*%
G01*
G04 APERTURE LIST*
%ADD10C,0.150000*%
G04 APERTURE END LIST*
D10*
X106933332Y-117154819D02*
X106933332Y-117964342D01*
X106933332Y-117964342D02*
X106895237Y-118059580D01*
X106895237Y-118059580D02*
X106857142Y-118107200D01*
X106857142Y-118107200D02*
X106780951Y-118154819D01*
X106780951Y-118154819D02*
X106628570Y-118154819D01*
X106628570Y-118154819D02*
X106552380Y-118107200D01*
X106552380Y-118107200D02*
X106514285Y-118059580D01*
X106514285Y-118059580D02*
X106476189Y-117964342D01*
X106476189Y-117964342D02*
X106476189Y-117154819D01*
X106133333Y-118107200D02*
X106019047Y-118154819D01*
X106019047Y-118154819D02*
X105828571Y-118154819D01*
X105828571Y-118154819D02*
X105752380Y-118107200D01*
X105752380Y-118107200D02*
X105714285Y-118059580D01*
X105714285Y-118059580D02*
X105676190Y-117964342D01*
X105676190Y-117964342D02*
X105676190Y-117869104D01*
X105676190Y-117869104D02*
X105714285Y-117773866D01*
X105714285Y-117773866D02*
X105752380Y-117726247D01*
X105752380Y-117726247D02*
X105828571Y-117678628D01*
X105828571Y-117678628D02*
X105980952Y-117631009D01*
X105980952Y-117631009D02*
X106057142Y-117583390D01*
X106057142Y-117583390D02*
X106095237Y-117535771D01*
X106095237Y-117535771D02*
X106133333Y-117440533D01*
X106133333Y-117440533D02*
X106133333Y-117345295D01*
X106133333Y-117345295D02*
X106095237Y-117250057D01*
X106095237Y-117250057D02*
X106057142Y-117202438D01*
X106057142Y-117202438D02*
X105980952Y-117154819D01*
X105980952Y-117154819D02*
X105790475Y-117154819D01*
X105790475Y-117154819D02*
X105676190Y-117202438D01*
X105066666Y-117631009D02*
X104952380Y-117678628D01*
X104952380Y-117678628D02*
X104914285Y-117726247D01*
X104914285Y-117726247D02*
X104876189Y-117821485D01*
X104876189Y-117821485D02*
X104876189Y-117964342D01*
X104876189Y-117964342D02*
X104914285Y-118059580D01*
X104914285Y-118059580D02*
X104952380Y-118107200D01*
X104952380Y-118107200D02*
X105028570Y-118154819D01*
X105028570Y-118154819D02*
X105333332Y-118154819D01*
X105333332Y-118154819D02*
X105333332Y-117154819D01*
X105333332Y-117154819D02*
X105066666Y-117154819D01*
X105066666Y-117154819D02*
X104990475Y-117202438D01*
X104990475Y-117202438D02*
X104952380Y-117250057D01*
X104952380Y-117250057D02*
X104914285Y-117345295D01*
X104914285Y-117345295D02*
X104914285Y-117440533D01*
X104914285Y-117440533D02*
X104952380Y-117535771D01*
X104952380Y-117535771D02*
X104990475Y-117583390D01*
X104990475Y-117583390D02*
X105066666Y-117631009D01*
X105066666Y-117631009D02*
X105333332Y-117631009D01*
X104723809Y-118250057D02*
X104114285Y-118250057D01*
X103923808Y-118154819D02*
X103923808Y-117154819D01*
X103923808Y-117154819D02*
X103733332Y-117154819D01*
X103733332Y-117154819D02*
X103619046Y-117202438D01*
X103619046Y-117202438D02*
X103542856Y-117297676D01*
X103542856Y-117297676D02*
X103504761Y-117392914D01*
X103504761Y-117392914D02*
X103466665Y-117583390D01*
X103466665Y-117583390D02*
X103466665Y-117726247D01*
X103466665Y-117726247D02*
X103504761Y-117916723D01*
X103504761Y-117916723D02*
X103542856Y-118011961D01*
X103542856Y-118011961D02*
X103619046Y-118107200D01*
X103619046Y-118107200D02*
X103733332Y-118154819D01*
X103733332Y-118154819D02*
X103923808Y-118154819D01*
X103123808Y-118154819D02*
X103123808Y-117154819D01*
X103123808Y-117154819D02*
X102666665Y-118154819D01*
X102666665Y-118154819D02*
X102666665Y-117154819D01*
X106952381Y-122031009D02*
X106838095Y-122078628D01*
X106838095Y-122078628D02*
X106800000Y-122126247D01*
X106800000Y-122126247D02*
X106761904Y-122221485D01*
X106761904Y-122221485D02*
X106761904Y-122364342D01*
X106761904Y-122364342D02*
X106800000Y-122459580D01*
X106800000Y-122459580D02*
X106838095Y-122507200D01*
X106838095Y-122507200D02*
X106914285Y-122554819D01*
X106914285Y-122554819D02*
X107219047Y-122554819D01*
X107219047Y-122554819D02*
X107219047Y-121554819D01*
X107219047Y-121554819D02*
X106952381Y-121554819D01*
X106952381Y-121554819D02*
X106876190Y-121602438D01*
X106876190Y-121602438D02*
X106838095Y-121650057D01*
X106838095Y-121650057D02*
X106800000Y-121745295D01*
X106800000Y-121745295D02*
X106800000Y-121840533D01*
X106800000Y-121840533D02*
X106838095Y-121935771D01*
X106838095Y-121935771D02*
X106876190Y-121983390D01*
X106876190Y-121983390D02*
X106952381Y-122031009D01*
X106952381Y-122031009D02*
X107219047Y-122031009D01*
X106419047Y-122031009D02*
X106152381Y-122031009D01*
X106038095Y-122554819D02*
X106419047Y-122554819D01*
X106419047Y-122554819D02*
X106419047Y-121554819D01*
X106419047Y-121554819D02*
X106038095Y-121554819D01*
X105695237Y-122031009D02*
X105428571Y-122031009D01*
X105314285Y-122554819D02*
X105695237Y-122554819D01*
X105695237Y-122554819D02*
X105695237Y-121554819D01*
X105695237Y-121554819D02*
X105314285Y-121554819D01*
X104971427Y-122554819D02*
X104971427Y-121554819D01*
X104971427Y-121554819D02*
X104666665Y-121554819D01*
X104666665Y-121554819D02*
X104590475Y-121602438D01*
X104590475Y-121602438D02*
X104552380Y-121650057D01*
X104552380Y-121650057D02*
X104514284Y-121745295D01*
X104514284Y-121745295D02*
X104514284Y-121888152D01*
X104514284Y-121888152D02*
X104552380Y-121983390D01*
X104552380Y-121983390D02*
X104590475Y-122031009D01*
X104590475Y-122031009D02*
X104666665Y-122078628D01*
X104666665Y-122078628D02*
X104971427Y-122078628D01*
X104361904Y-122650057D02*
X103752380Y-122650057D01*
X103561903Y-122031009D02*
X103295237Y-122031009D01*
X103180951Y-122554819D02*
X103561903Y-122554819D01*
X103561903Y-122554819D02*
X103561903Y-121554819D01*
X103561903Y-121554819D02*
X103180951Y-121554819D01*
X102838093Y-122554819D02*
X102838093Y-121554819D01*
X102838093Y-121554819D02*
X102380950Y-122554819D01*
X102380950Y-122554819D02*
X102380950Y-121554819D01*
X107561904Y-120154819D02*
X107104761Y-120154819D01*
X107333333Y-121154819D02*
X107333333Y-120154819D01*
X106838094Y-121154819D02*
X106838094Y-120154819D01*
X106838094Y-120631009D02*
X106380951Y-120631009D01*
X106380951Y-121154819D02*
X106380951Y-120154819D01*
X105999999Y-121154819D02*
X105999999Y-120154819D01*
X105619047Y-120631009D02*
X105352381Y-120631009D01*
X105238095Y-121154819D02*
X105619047Y-121154819D01*
X105619047Y-121154819D02*
X105619047Y-120154819D01*
X105619047Y-120154819D02*
X105238095Y-120154819D01*
X104628571Y-120631009D02*
X104895237Y-120631009D01*
X104895237Y-121154819D02*
X104895237Y-120154819D01*
X104895237Y-120154819D02*
X104514285Y-120154819D01*
X104400000Y-121250057D02*
X103790476Y-121250057D01*
X103599999Y-121154819D02*
X103599999Y-120154819D01*
X103219047Y-121154819D02*
X103219047Y-120154819D01*
X103219047Y-120154819D02*
X102761904Y-121154819D01*
X102761904Y-121154819D02*
X102761904Y-120154819D01*
X102495238Y-120154819D02*
X102038095Y-120154819D01*
X102266667Y-121154819D02*
X102266667Y-120154819D01*
X106914285Y-118654819D02*
X106914285Y-119464342D01*
X106914285Y-119464342D02*
X106876190Y-119559580D01*
X106876190Y-119559580D02*
X106838095Y-119607200D01*
X106838095Y-119607200D02*
X106761904Y-119654819D01*
X106761904Y-119654819D02*
X106609523Y-119654819D01*
X106609523Y-119654819D02*
X106533333Y-119607200D01*
X106533333Y-119607200D02*
X106495238Y-119559580D01*
X106495238Y-119559580D02*
X106457142Y-119464342D01*
X106457142Y-119464342D02*
X106457142Y-118654819D01*
X106114286Y-119607200D02*
X106000000Y-119654819D01*
X106000000Y-119654819D02*
X105809524Y-119654819D01*
X105809524Y-119654819D02*
X105733333Y-119607200D01*
X105733333Y-119607200D02*
X105695238Y-119559580D01*
X105695238Y-119559580D02*
X105657143Y-119464342D01*
X105657143Y-119464342D02*
X105657143Y-119369104D01*
X105657143Y-119369104D02*
X105695238Y-119273866D01*
X105695238Y-119273866D02*
X105733333Y-119226247D01*
X105733333Y-119226247D02*
X105809524Y-119178628D01*
X105809524Y-119178628D02*
X105961905Y-119131009D01*
X105961905Y-119131009D02*
X106038095Y-119083390D01*
X106038095Y-119083390D02*
X106076190Y-119035771D01*
X106076190Y-119035771D02*
X106114286Y-118940533D01*
X106114286Y-118940533D02*
X106114286Y-118845295D01*
X106114286Y-118845295D02*
X106076190Y-118750057D01*
X106076190Y-118750057D02*
X106038095Y-118702438D01*
X106038095Y-118702438D02*
X105961905Y-118654819D01*
X105961905Y-118654819D02*
X105771428Y-118654819D01*
X105771428Y-118654819D02*
X105657143Y-118702438D01*
X105047619Y-119131009D02*
X104933333Y-119178628D01*
X104933333Y-119178628D02*
X104895238Y-119226247D01*
X104895238Y-119226247D02*
X104857142Y-119321485D01*
X104857142Y-119321485D02*
X104857142Y-119464342D01*
X104857142Y-119464342D02*
X104895238Y-119559580D01*
X104895238Y-119559580D02*
X104933333Y-119607200D01*
X104933333Y-119607200D02*
X105009523Y-119654819D01*
X105009523Y-119654819D02*
X105314285Y-119654819D01*
X105314285Y-119654819D02*
X105314285Y-118654819D01*
X105314285Y-118654819D02*
X105047619Y-118654819D01*
X105047619Y-118654819D02*
X104971428Y-118702438D01*
X104971428Y-118702438D02*
X104933333Y-118750057D01*
X104933333Y-118750057D02*
X104895238Y-118845295D01*
X104895238Y-118845295D02*
X104895238Y-118940533D01*
X104895238Y-118940533D02*
X104933333Y-119035771D01*
X104933333Y-119035771D02*
X104971428Y-119083390D01*
X104971428Y-119083390D02*
X105047619Y-119131009D01*
X105047619Y-119131009D02*
X105314285Y-119131009D01*
X104704762Y-119750057D02*
X104095238Y-119750057D01*
X103904761Y-119654819D02*
X103904761Y-118654819D01*
X103904761Y-118654819D02*
X103714285Y-118654819D01*
X103714285Y-118654819D02*
X103599999Y-118702438D01*
X103599999Y-118702438D02*
X103523809Y-118797676D01*
X103523809Y-118797676D02*
X103485714Y-118892914D01*
X103485714Y-118892914D02*
X103447618Y-119083390D01*
X103447618Y-119083390D02*
X103447618Y-119226247D01*
X103447618Y-119226247D02*
X103485714Y-119416723D01*
X103485714Y-119416723D02*
X103523809Y-119511961D01*
X103523809Y-119511961D02*
X103599999Y-119607200D01*
X103599999Y-119607200D02*
X103714285Y-119654819D01*
X103714285Y-119654819D02*
X103904761Y-119654819D01*
X103104761Y-119654819D02*
X103104761Y-118654819D01*
X103104761Y-118654819D02*
X102799999Y-118654819D01*
X102799999Y-118654819D02*
X102723809Y-118702438D01*
X102723809Y-118702438D02*
X102685714Y-118750057D01*
X102685714Y-118750057D02*
X102647618Y-118845295D01*
X102647618Y-118845295D02*
X102647618Y-118988152D01*
X102647618Y-118988152D02*
X102685714Y-119083390D01*
X102685714Y-119083390D02*
X102723809Y-119131009D01*
X102723809Y-119131009D02*
X102799999Y-119178628D01*
X102799999Y-119178628D02*
X103104761Y-119178628D01*
M02*
