G04 #@! TF.GenerationSoftware,KiCad,Pcbnew,9.0.3*
G04 #@! TF.CreationDate,2025-08-19T12:31:52-07:00*
G04 #@! TF.ProjectId,battery_protector,62617474-6572-4795-9f70-726f74656374,rev?*
G04 #@! TF.SameCoordinates,Original*
G04 #@! TF.FileFunction,Legend,Top*
G04 #@! TF.FilePolarity,Positive*
%FSLAX46Y46*%
G04 Gerber Fmt 4.6, Leading zero omitted, Abs format (unit mm)*
G04 Created by KiCad (PCBNEW 9.0.3) date 2025-08-19 12:31:52*
%MOMM*%
%LPD*%
G01*
G04 APERTURE LIST*
%ADD10C,0.100000*%
%ADD11C,0.175000*%
%ADD12C,0.200000*%
%ADD13C,0.250000*%
%ADD14C,0.300000*%
%ADD15C,0.400000*%
%ADD16C,0.150000*%
%ADD17C,0.120000*%
%ADD18C,0.152400*%
%ADD19C,0.120711*%
%ADD20C,0.127000*%
G04 APERTURE END LIST*
D10*
X149600000Y-121300000D02*
X155900000Y-121300000D01*
X155900000Y-127700000D01*
X149600000Y-127700000D01*
X149600000Y-121300000D01*
X86900000Y-125900000D02*
X115900000Y-125900000D01*
X115900000Y-127600000D01*
X86900000Y-127600000D01*
X86900000Y-125900000D01*
D11*
X157881797Y-110606042D02*
X158281797Y-110606042D01*
X158081797Y-111806042D02*
X158081797Y-110606042D01*
X158515130Y-111806042D02*
X158515130Y-110606042D01*
X158515130Y-111177471D02*
X158915130Y-111177471D01*
X158915130Y-111806042D02*
X158915130Y-110606042D01*
X159248463Y-111806042D02*
X159248463Y-110606042D01*
X159581796Y-111177471D02*
X159815130Y-111177471D01*
X159915130Y-111806042D02*
X159581796Y-111806042D01*
X159581796Y-111806042D02*
X159581796Y-110606042D01*
X159581796Y-110606042D02*
X159915130Y-110606042D01*
X160448463Y-111177471D02*
X160215129Y-111177471D01*
X160215129Y-111806042D02*
X160215129Y-110606042D01*
X160215129Y-110606042D02*
X160548463Y-110606042D01*
X160648463Y-111920328D02*
X161181796Y-111920328D01*
X161348462Y-111806042D02*
X161348462Y-110606042D01*
X161681795Y-111806042D02*
X161681795Y-110606042D01*
X161681795Y-110606042D02*
X162081795Y-111806042D01*
X162081795Y-111806042D02*
X162081795Y-110606042D01*
X162315128Y-110606042D02*
X162715128Y-110606042D01*
X162515128Y-111806042D02*
X162515128Y-110606042D01*
D12*
G36*
X87614064Y-126228609D02*
G01*
X87680033Y-126235626D01*
X87735764Y-126251072D01*
X87784569Y-126277025D01*
X87826424Y-126313273D01*
X87861383Y-126360861D01*
X87878360Y-126396828D01*
X87888643Y-126435715D01*
X87892158Y-126478220D01*
X87887909Y-126524126D01*
X87875335Y-126566996D01*
X87854239Y-126607608D01*
X87825959Y-126643581D01*
X87791905Y-126672856D01*
X87751413Y-126695901D01*
X87809326Y-126718744D01*
X87855612Y-126749151D01*
X87892096Y-126787126D01*
X87919261Y-126832202D01*
X87935668Y-126882245D01*
X87941311Y-126938618D01*
X87937829Y-126983623D01*
X87927343Y-127027916D01*
X87909560Y-127071974D01*
X87885447Y-127112785D01*
X87856597Y-127147082D01*
X87822793Y-127175533D01*
X87784495Y-127197473D01*
X87739682Y-127213480D01*
X87687177Y-127223161D01*
X87619320Y-127227051D01*
X87443300Y-127230000D01*
X87102459Y-127230000D01*
X87102459Y-127061960D01*
X87304692Y-127061960D01*
X87491844Y-127061960D01*
X87591384Y-127059906D01*
X87630512Y-127055793D01*
X87671720Y-127041401D01*
X87703907Y-127015554D01*
X87719248Y-126992703D01*
X87728862Y-126964619D01*
X87732301Y-126929886D01*
X87726605Y-126887149D01*
X87710441Y-126852889D01*
X87684223Y-126825893D01*
X87647243Y-126806788D01*
X87594003Y-126797035D01*
X87467969Y-126792316D01*
X87304692Y-126792316D01*
X87304692Y-127061960D01*
X87102459Y-127061960D01*
X87102459Y-126624277D01*
X87304692Y-126624277D01*
X87437194Y-126624277D01*
X87584106Y-126620858D01*
X87631606Y-126608379D01*
X87665683Y-126585198D01*
X87681959Y-126563818D01*
X87691914Y-126538249D01*
X87695420Y-126507285D01*
X87688709Y-126464531D01*
X87669774Y-126432180D01*
X87650906Y-126416036D01*
X87626045Y-126404231D01*
X87593632Y-126397131D01*
X87420830Y-126393712D01*
X87304692Y-126393712D01*
X87304692Y-126624277D01*
X87102459Y-126624277D01*
X87102459Y-126225673D01*
X87502773Y-126225673D01*
X87614064Y-126228609D01*
G37*
G36*
X89015064Y-127230000D02*
G01*
X88795062Y-127230000D01*
X88707623Y-127003342D01*
X88307370Y-127003342D01*
X88224694Y-127230000D01*
X88010188Y-127230000D01*
X88163479Y-126835303D01*
X88369530Y-126835303D01*
X88642777Y-126835303D01*
X88504780Y-126460146D01*
X88369530Y-126835303D01*
X88163479Y-126835303D01*
X88400244Y-126225673D01*
X88614078Y-126225673D01*
X89015064Y-127230000D01*
G37*
G36*
X89244042Y-127230000D02*
G01*
X89244042Y-126393712D01*
X88946859Y-126393712D01*
X88946859Y-126225673D01*
X89742725Y-126225673D01*
X89742725Y-126393712D01*
X89446214Y-126393712D01*
X89446214Y-127230000D01*
X89244042Y-127230000D01*
G37*
G36*
X90098892Y-127230000D02*
G01*
X90098892Y-126393712D01*
X89801709Y-126393712D01*
X89801709Y-126225673D01*
X90597575Y-126225673D01*
X90597575Y-126393712D01*
X90301064Y-126393712D01*
X90301064Y-127230000D01*
X90098892Y-127230000D01*
G37*
G36*
X90728306Y-127230000D02*
G01*
X90728306Y-126225673D01*
X91470865Y-126225673D01*
X91470865Y-126393712D01*
X90930478Y-126393712D01*
X90930478Y-126616461D01*
X91433251Y-126616461D01*
X91433251Y-126784501D01*
X90930478Y-126784501D01*
X90930478Y-127061960D01*
X91489977Y-127061960D01*
X91489977Y-127230000D01*
X90728306Y-127230000D01*
G37*
G36*
X92195824Y-126229501D02*
G01*
X92270941Y-126239276D01*
X92320830Y-126252784D01*
X92365906Y-126275411D01*
X92404496Y-126307234D01*
X92437334Y-126349260D01*
X92461402Y-126397109D01*
X92476028Y-126449599D01*
X92481053Y-126507834D01*
X92476624Y-126563744D01*
X92463908Y-126612826D01*
X92443332Y-126656254D01*
X92414741Y-126694924D01*
X92379554Y-126726900D01*
X92335879Y-126753246D01*
X92282220Y-126773810D01*
X92216660Y-126787920D01*
X92277846Y-126829120D01*
X92324921Y-126872001D01*
X92369545Y-126927770D01*
X92440081Y-127034605D01*
X92562325Y-127230000D01*
X92320525Y-127230000D01*
X92174345Y-127011769D01*
X92101332Y-126906484D01*
X92067794Y-126864734D01*
X92037454Y-126838630D01*
X92006978Y-126823152D01*
X91970127Y-126815230D01*
X91905190Y-126811856D01*
X91864218Y-126811856D01*
X91864218Y-127230000D01*
X91661985Y-127230000D01*
X91661985Y-126651632D01*
X91864218Y-126651632D01*
X92013817Y-126651632D01*
X92146027Y-126647425D01*
X92195533Y-126639176D01*
X92227957Y-126622054D01*
X92252198Y-126596189D01*
X92267297Y-126562912D01*
X92272714Y-126519924D01*
X92269462Y-126486666D01*
X92260334Y-126459468D01*
X92245725Y-126437065D01*
X92214083Y-126411782D01*
X92169583Y-126397192D01*
X92021999Y-126393712D01*
X91864218Y-126393712D01*
X91864218Y-126651632D01*
X91661985Y-126651632D01*
X91661985Y-126225673D01*
X92087578Y-126225673D01*
X92195824Y-126229501D01*
G37*
G36*
X92882711Y-127230000D02*
G01*
X92882711Y-126807276D01*
X92515858Y-126225673D01*
X92752957Y-126225673D01*
X92988590Y-126623789D01*
X93219521Y-126225673D01*
X93452468Y-126225673D01*
X93084211Y-126808681D01*
X93084211Y-127230000D01*
X92882711Y-127230000D01*
G37*
G36*
X94409290Y-126230581D02*
G01*
X94481097Y-126240755D01*
X94534987Y-126261514D01*
X94582730Y-126293884D01*
X94625261Y-126339063D01*
X94656614Y-126392310D01*
X94676311Y-126456553D01*
X94683330Y-126534518D01*
X94679259Y-126595429D01*
X94667830Y-126646722D01*
X94649869Y-126689979D01*
X94624942Y-126729805D01*
X94596623Y-126762537D01*
X94564811Y-126788958D01*
X94511861Y-126819250D01*
X94459909Y-126836524D01*
X94379379Y-126846746D01*
X94250165Y-126850935D01*
X94118335Y-126850935D01*
X94118335Y-127230000D01*
X93916163Y-127230000D01*
X93916163Y-126682896D01*
X94118335Y-126682896D01*
X94228977Y-126682896D01*
X94338666Y-126677802D01*
X94388834Y-126666898D01*
X94425004Y-126646222D01*
X94452032Y-126616889D01*
X94469067Y-126580514D01*
X94474930Y-126537632D01*
X94471152Y-126501770D01*
X94460383Y-126471582D01*
X94442812Y-126445858D01*
X94419545Y-126424799D01*
X94392693Y-126409825D01*
X94361540Y-126400673D01*
X94316283Y-126395938D01*
X94216032Y-126393712D01*
X94118335Y-126393712D01*
X94118335Y-126682896D01*
X93916163Y-126682896D01*
X93916163Y-126225673D01*
X94240640Y-126225673D01*
X94409290Y-126230581D01*
G37*
G36*
X95383682Y-126229501D02*
G01*
X95458798Y-126239276D01*
X95508688Y-126252784D01*
X95553763Y-126275411D01*
X95592354Y-126307234D01*
X95625191Y-126349260D01*
X95649260Y-126397109D01*
X95663886Y-126449599D01*
X95668911Y-126507834D01*
X95664482Y-126563744D01*
X95651765Y-126612826D01*
X95631189Y-126656254D01*
X95602599Y-126694924D01*
X95567411Y-126726900D01*
X95523737Y-126753246D01*
X95470078Y-126773810D01*
X95404518Y-126787920D01*
X95465703Y-126829120D01*
X95512779Y-126872001D01*
X95557403Y-126927770D01*
X95627939Y-127034605D01*
X95750183Y-127230000D01*
X95508382Y-127230000D01*
X95362203Y-127011769D01*
X95289190Y-126906484D01*
X95255652Y-126864734D01*
X95225311Y-126838630D01*
X95194836Y-126823152D01*
X95157985Y-126815230D01*
X95093047Y-126811856D01*
X95052076Y-126811856D01*
X95052076Y-127230000D01*
X94849842Y-127230000D01*
X94849842Y-126651632D01*
X95052076Y-126651632D01*
X95201674Y-126651632D01*
X95333885Y-126647425D01*
X95383391Y-126639176D01*
X95415815Y-126622054D01*
X95440055Y-126596189D01*
X95455154Y-126562912D01*
X95460572Y-126519924D01*
X95457320Y-126486666D01*
X95448192Y-126459468D01*
X95433583Y-126437065D01*
X95401941Y-126411782D01*
X95357440Y-126397192D01*
X95209856Y-126393712D01*
X95052076Y-126393712D01*
X95052076Y-126651632D01*
X94849842Y-126651632D01*
X94849842Y-126225673D01*
X95275436Y-126225673D01*
X95383682Y-126229501D01*
G37*
G36*
X96391190Y-126216038D02*
G01*
X96469445Y-126233249D01*
X96539027Y-126260941D01*
X96601199Y-126298984D01*
X96656873Y-126347855D01*
X96703024Y-126404785D01*
X96739593Y-126470160D01*
X96766661Y-126545223D01*
X96783730Y-126631580D01*
X96789741Y-126731133D01*
X96783786Y-126829835D01*
X96766867Y-126915570D01*
X96740019Y-126990201D01*
X96703728Y-127055302D01*
X96657911Y-127112091D01*
X96602654Y-127160814D01*
X96540863Y-127198750D01*
X96471619Y-127226375D01*
X96393652Y-127243552D01*
X96305408Y-127249539D01*
X96215915Y-127243547D01*
X96137104Y-127226385D01*
X96067368Y-127198844D01*
X96005393Y-127161111D01*
X95950218Y-127112763D01*
X95904292Y-127056176D01*
X95867987Y-126991541D01*
X95841180Y-126917686D01*
X95824315Y-126833092D01*
X95818387Y-126735957D01*
X95818767Y-126729118D01*
X96026727Y-126729118D01*
X96032467Y-126815777D01*
X96048325Y-126886154D01*
X96072808Y-126943151D01*
X96105251Y-126989115D01*
X96147505Y-127028059D01*
X96194135Y-127055349D01*
X96246079Y-127071890D01*
X96304736Y-127077592D01*
X96363439Y-127071910D01*
X96415207Y-127055459D01*
X96461469Y-127028373D01*
X96503183Y-126989787D01*
X96535014Y-126944278D01*
X96559209Y-126887028D01*
X96574987Y-126815450D01*
X96580730Y-126726371D01*
X96575106Y-126638166D01*
X96559696Y-126567668D01*
X96536142Y-126511634D01*
X96505259Y-126467412D01*
X96464718Y-126430253D01*
X96418608Y-126403866D01*
X96365820Y-126387646D01*
X96304736Y-126381988D01*
X96243759Y-126387686D01*
X96190820Y-126404055D01*
X96144339Y-126430756D01*
X96103236Y-126468450D01*
X96071875Y-126513231D01*
X96048001Y-126569763D01*
X96032409Y-126640658D01*
X96026727Y-126729118D01*
X95818767Y-126729118D01*
X95824034Y-126634196D01*
X95839770Y-126549124D01*
X95864183Y-126478159D01*
X95904488Y-126405381D01*
X95957362Y-126340345D01*
X95998822Y-126302503D01*
X96041906Y-126272533D01*
X96086871Y-126249792D01*
X96150409Y-126228232D01*
X96221939Y-126214750D01*
X96302721Y-126210041D01*
X96391190Y-126216038D01*
G37*
G36*
X97173142Y-127230000D02*
G01*
X97173142Y-126393712D01*
X96875959Y-126393712D01*
X96875959Y-126225673D01*
X97671824Y-126225673D01*
X97671824Y-126393712D01*
X97375314Y-126393712D01*
X97375314Y-127230000D01*
X97173142Y-127230000D01*
G37*
G36*
X97802555Y-127230000D02*
G01*
X97802555Y-126225673D01*
X98545115Y-126225673D01*
X98545115Y-126393712D01*
X98004727Y-126393712D01*
X98004727Y-126616461D01*
X98507501Y-126616461D01*
X98507501Y-126784501D01*
X98004727Y-126784501D01*
X98004727Y-127061960D01*
X98564227Y-127061960D01*
X98564227Y-127230000D01*
X97802555Y-127230000D01*
G37*
G36*
X99376334Y-126858750D02*
G01*
X99572400Y-126921277D01*
X99544425Y-127002292D01*
X99509873Y-127068710D01*
X99469220Y-127122657D01*
X99422435Y-127165764D01*
X99368372Y-127199752D01*
X99306916Y-127224624D01*
X99236783Y-127240179D01*
X99156393Y-127245631D01*
X99077489Y-127239888D01*
X99006365Y-127223246D01*
X98941766Y-127196144D01*
X98882689Y-127158425D01*
X98828436Y-127109344D01*
X98783709Y-127053093D01*
X98748335Y-126988995D01*
X98722217Y-126915914D01*
X98705794Y-126832389D01*
X98700026Y-126736690D01*
X98705931Y-126634866D01*
X98722649Y-126546957D01*
X98749055Y-126470979D01*
X98784554Y-126405240D01*
X98829108Y-126348405D01*
X98883536Y-126298960D01*
X98943731Y-126260728D01*
X99010502Y-126233072D01*
X99085003Y-126215975D01*
X99168667Y-126210041D01*
X99259385Y-126217357D01*
X99338060Y-126238265D01*
X99406799Y-126271958D01*
X99467192Y-126318668D01*
X99507177Y-126365165D01*
X99541508Y-126425696D01*
X99569652Y-126503133D01*
X99369495Y-126550027D01*
X99352926Y-126500823D01*
X99328278Y-126460316D01*
X99295368Y-126427112D01*
X99255718Y-126402332D01*
X99210549Y-126387233D01*
X99158408Y-126381988D01*
X99104274Y-126387215D01*
X99056952Y-126402292D01*
X99015058Y-126427024D01*
X98977669Y-126462161D01*
X98949901Y-126503408D01*
X98928223Y-126558057D01*
X98913738Y-126629465D01*
X98908365Y-126721669D01*
X98913779Y-126820171D01*
X98928250Y-126895205D01*
X98949652Y-126951468D01*
X98976692Y-126992901D01*
X99013637Y-127028414D01*
X99054883Y-127053315D01*
X99101322Y-127068448D01*
X99154317Y-127073684D01*
X99206074Y-127067799D01*
X99251814Y-127050621D01*
X99292986Y-127021844D01*
X99326064Y-126983661D01*
X99354119Y-126930581D01*
X99376334Y-126858750D01*
G37*
G36*
X99971188Y-127230000D02*
G01*
X99971188Y-126393712D01*
X99674005Y-126393712D01*
X99674005Y-126225673D01*
X100469870Y-126225673D01*
X100469870Y-126393712D01*
X100173360Y-126393712D01*
X100173360Y-127230000D01*
X99971188Y-127230000D01*
G37*
G36*
X100594434Y-127230000D02*
G01*
X100594434Y-126225673D01*
X100796667Y-126225673D01*
X100796667Y-127230000D01*
X100594434Y-127230000D01*
G37*
G36*
X101521267Y-126216038D02*
G01*
X101599521Y-126233249D01*
X101669104Y-126260941D01*
X101731276Y-126298984D01*
X101786950Y-126347855D01*
X101833101Y-126404785D01*
X101869669Y-126470160D01*
X101896738Y-126545223D01*
X101913807Y-126631580D01*
X101919818Y-126731133D01*
X101913863Y-126829835D01*
X101896943Y-126915570D01*
X101870095Y-126990201D01*
X101833805Y-127055302D01*
X101787988Y-127112091D01*
X101732730Y-127160814D01*
X101670940Y-127198750D01*
X101601696Y-127226375D01*
X101523729Y-127243552D01*
X101435484Y-127249539D01*
X101345992Y-127243547D01*
X101267180Y-127226385D01*
X101197445Y-127198844D01*
X101135470Y-127161111D01*
X101080294Y-127112763D01*
X101034369Y-127056176D01*
X100998064Y-126991541D01*
X100971257Y-126917686D01*
X100954392Y-126833092D01*
X100948464Y-126735957D01*
X100948843Y-126729118D01*
X101156803Y-126729118D01*
X101162544Y-126815777D01*
X101178401Y-126886154D01*
X101202885Y-126943151D01*
X101235327Y-126989115D01*
X101277582Y-127028059D01*
X101324212Y-127055349D01*
X101376156Y-127071890D01*
X101434813Y-127077592D01*
X101493516Y-127071910D01*
X101545284Y-127055459D01*
X101591546Y-127028373D01*
X101633260Y-126989787D01*
X101665091Y-126944278D01*
X101689286Y-126887028D01*
X101705064Y-126815450D01*
X101710807Y-126726371D01*
X101705183Y-126638166D01*
X101689772Y-126567668D01*
X101666218Y-126511634D01*
X101635336Y-126467412D01*
X101594795Y-126430253D01*
X101548685Y-126403866D01*
X101495896Y-126387646D01*
X101434813Y-126381988D01*
X101373836Y-126387686D01*
X101320896Y-126404055D01*
X101274415Y-126430756D01*
X101233312Y-126468450D01*
X101201951Y-126513231D01*
X101178078Y-126569763D01*
X101162486Y-126640658D01*
X101156803Y-126729118D01*
X100948843Y-126729118D01*
X100954110Y-126634196D01*
X100969847Y-126549124D01*
X100994260Y-126478159D01*
X101034565Y-126405381D01*
X101087438Y-126340345D01*
X101128899Y-126302503D01*
X101171983Y-126272533D01*
X101216948Y-126249792D01*
X101280486Y-126228232D01*
X101352016Y-126214750D01*
X101432798Y-126210041D01*
X101521267Y-126216038D01*
G37*
G36*
X102079858Y-127230000D02*
G01*
X102079858Y-126225673D01*
X102276596Y-126225673D01*
X102686435Y-126898012D01*
X102686435Y-126225673D01*
X102874319Y-126225673D01*
X102874319Y-127230000D01*
X102671414Y-127230000D01*
X102267681Y-126567674D01*
X102267681Y-127230000D01*
X102079858Y-127230000D01*
G37*
G36*
X103989082Y-126228609D02*
G01*
X104055050Y-126235626D01*
X104110782Y-126251072D01*
X104159586Y-126277025D01*
X104201441Y-126313273D01*
X104236400Y-126360861D01*
X104253377Y-126396828D01*
X104263660Y-126435715D01*
X104267175Y-126478220D01*
X104262927Y-126524126D01*
X104250352Y-126566996D01*
X104229256Y-126607608D01*
X104200977Y-126643581D01*
X104166923Y-126672856D01*
X104126430Y-126695901D01*
X104184343Y-126718744D01*
X104230629Y-126749151D01*
X104267114Y-126787126D01*
X104294279Y-126832202D01*
X104310685Y-126882245D01*
X104316329Y-126938618D01*
X104312846Y-126983623D01*
X104302360Y-127027916D01*
X104284577Y-127071974D01*
X104260464Y-127112785D01*
X104231615Y-127147082D01*
X104197810Y-127175533D01*
X104159513Y-127197473D01*
X104114700Y-127213480D01*
X104062194Y-127223161D01*
X103994338Y-127227051D01*
X103818318Y-127230000D01*
X103477477Y-127230000D01*
X103477477Y-127061960D01*
X103679710Y-127061960D01*
X103866861Y-127061960D01*
X103966401Y-127059906D01*
X104005530Y-127055793D01*
X104046737Y-127041401D01*
X104078925Y-127015554D01*
X104094265Y-126992703D01*
X104103879Y-126964619D01*
X104107318Y-126929886D01*
X104101622Y-126887149D01*
X104085458Y-126852889D01*
X104059240Y-126825893D01*
X104022260Y-126806788D01*
X103969021Y-126797035D01*
X103842986Y-126792316D01*
X103679710Y-126792316D01*
X103679710Y-127061960D01*
X103477477Y-127061960D01*
X103477477Y-126624277D01*
X103679710Y-126624277D01*
X103812212Y-126624277D01*
X103959124Y-126620858D01*
X104006623Y-126608379D01*
X104040701Y-126585198D01*
X104056977Y-126563818D01*
X104066932Y-126538249D01*
X104070437Y-126507285D01*
X104063726Y-126464531D01*
X104044792Y-126432180D01*
X104025924Y-126416036D01*
X104001063Y-126404231D01*
X103968649Y-126397131D01*
X103795847Y-126393712D01*
X103679710Y-126393712D01*
X103679710Y-126624277D01*
X103477477Y-126624277D01*
X103477477Y-126225673D01*
X103877791Y-126225673D01*
X103989082Y-126228609D01*
G37*
G36*
X105018825Y-126216038D02*
G01*
X105097079Y-126233249D01*
X105166662Y-126260941D01*
X105228833Y-126298984D01*
X105284508Y-126347855D01*
X105330658Y-126404785D01*
X105367227Y-126470160D01*
X105394295Y-126545223D01*
X105411364Y-126631580D01*
X105417376Y-126731133D01*
X105411420Y-126829835D01*
X105394501Y-126915570D01*
X105367653Y-126990201D01*
X105331363Y-127055302D01*
X105285546Y-127112091D01*
X105230288Y-127160814D01*
X105168497Y-127198750D01*
X105099253Y-127226375D01*
X105021287Y-127243552D01*
X104933042Y-127249539D01*
X104843549Y-127243547D01*
X104764738Y-127226385D01*
X104695003Y-127198844D01*
X104633027Y-127161111D01*
X104577852Y-127112763D01*
X104531926Y-127056176D01*
X104495621Y-126991541D01*
X104468814Y-126917686D01*
X104451950Y-126833092D01*
X104446022Y-126735957D01*
X104446401Y-126729118D01*
X104654361Y-126729118D01*
X104660102Y-126815777D01*
X104675959Y-126886154D01*
X104700442Y-126943151D01*
X104732885Y-126989115D01*
X104775140Y-127028059D01*
X104821770Y-127055349D01*
X104873714Y-127071890D01*
X104932370Y-127077592D01*
X104991073Y-127071910D01*
X105042841Y-127055459D01*
X105089104Y-127028373D01*
X105130818Y-126989787D01*
X105162648Y-126944278D01*
X105186844Y-126887028D01*
X105202622Y-126815450D01*
X105208365Y-126726371D01*
X105202740Y-126638166D01*
X105187330Y-126567668D01*
X105163776Y-126511634D01*
X105132894Y-126467412D01*
X105092352Y-126430253D01*
X105046242Y-126403866D01*
X104993454Y-126387646D01*
X104932370Y-126381988D01*
X104871393Y-126387686D01*
X104818454Y-126404055D01*
X104771973Y-126430756D01*
X104730870Y-126468450D01*
X104699509Y-126513231D01*
X104675635Y-126569763D01*
X104660044Y-126640658D01*
X104654361Y-126729118D01*
X104446401Y-126729118D01*
X104451668Y-126634196D01*
X104467405Y-126549124D01*
X104491817Y-126478159D01*
X104532123Y-126405381D01*
X104584996Y-126340345D01*
X104626456Y-126302503D01*
X104669541Y-126272533D01*
X104714506Y-126249792D01*
X104778043Y-126228232D01*
X104849574Y-126214750D01*
X104930355Y-126210041D01*
X105018825Y-126216038D01*
G37*
G36*
X106478428Y-127230000D02*
G01*
X106258426Y-127230000D01*
X106170987Y-127003342D01*
X105770734Y-127003342D01*
X105688058Y-127230000D01*
X105473551Y-127230000D01*
X105626842Y-126835303D01*
X105832894Y-126835303D01*
X106106140Y-126835303D01*
X105968143Y-126460146D01*
X105832894Y-126835303D01*
X105626842Y-126835303D01*
X105863607Y-126225673D01*
X106077442Y-126225673D01*
X106478428Y-127230000D01*
G37*
G36*
X107120039Y-126229501D02*
G01*
X107195156Y-126239276D01*
X107245045Y-126252784D01*
X107290121Y-126275411D01*
X107328711Y-126307234D01*
X107361549Y-126349260D01*
X107385617Y-126397109D01*
X107400243Y-126449599D01*
X107405268Y-126507834D01*
X107400839Y-126563744D01*
X107388123Y-126612826D01*
X107367547Y-126656254D01*
X107338956Y-126694924D01*
X107303769Y-126726900D01*
X107260094Y-126753246D01*
X107206435Y-126773810D01*
X107140875Y-126787920D01*
X107202061Y-126829120D01*
X107249136Y-126872001D01*
X107293760Y-126927770D01*
X107364296Y-127034605D01*
X107486540Y-127230000D01*
X107244740Y-127230000D01*
X107098560Y-127011769D01*
X107025547Y-126906484D01*
X106992009Y-126864734D01*
X106961669Y-126838630D01*
X106931193Y-126823152D01*
X106894342Y-126815230D01*
X106829405Y-126811856D01*
X106788433Y-126811856D01*
X106788433Y-127230000D01*
X106586200Y-127230000D01*
X106586200Y-126651632D01*
X106788433Y-126651632D01*
X106938032Y-126651632D01*
X107070242Y-126647425D01*
X107119748Y-126639176D01*
X107152172Y-126622054D01*
X107176413Y-126596189D01*
X107191512Y-126562912D01*
X107196929Y-126519924D01*
X107193677Y-126486666D01*
X107184549Y-126459468D01*
X107169940Y-126437065D01*
X107138298Y-126411782D01*
X107093797Y-126397192D01*
X106946214Y-126393712D01*
X106788433Y-126393712D01*
X106788433Y-126651632D01*
X106586200Y-126651632D01*
X106586200Y-126225673D01*
X107011793Y-126225673D01*
X107120039Y-126229501D01*
G37*
G36*
X108082121Y-126231249D02*
G01*
X108155155Y-126244846D01*
X108211295Y-126266772D01*
X108261374Y-126297461D01*
X108306158Y-126337353D01*
X108344151Y-126384157D01*
X108376033Y-126438101D01*
X108401779Y-126500080D01*
X108419162Y-126565058D01*
X108430486Y-126643424D01*
X108434569Y-126737423D01*
X108430824Y-126819848D01*
X108420293Y-126890596D01*
X108403855Y-126951196D01*
X108374203Y-127021616D01*
X108338381Y-127080228D01*
X108296571Y-127128578D01*
X108259127Y-127159172D01*
X108212303Y-127185995D01*
X108154483Y-127208750D01*
X108081775Y-127224009D01*
X107975514Y-127230000D01*
X107595045Y-127230000D01*
X107595045Y-127061960D01*
X107797217Y-127061960D01*
X107948220Y-127061960D01*
X108027029Y-127059050D01*
X108070464Y-127052313D01*
X108116220Y-127035246D01*
X108152102Y-127010364D01*
X108170871Y-126988644D01*
X108188638Y-126957080D01*
X108205041Y-126912972D01*
X108219727Y-126838955D01*
X108225558Y-126728203D01*
X108219626Y-126618099D01*
X108205041Y-126548562D01*
X108179514Y-126491211D01*
X108147644Y-126450865D01*
X108106577Y-126421821D01*
X108054099Y-126403360D01*
X108001650Y-126396778D01*
X107888075Y-126393712D01*
X107797217Y-126393712D01*
X107797217Y-127061960D01*
X107595045Y-127061960D01*
X107595045Y-126225673D01*
X107964584Y-126225673D01*
X108082121Y-126231249D01*
G37*
G36*
X108971536Y-126964263D02*
G01*
X108971536Y-126772777D01*
X109348586Y-126772777D01*
X109348586Y-126964263D01*
X108971536Y-126964263D01*
G37*
G36*
X110384101Y-126229501D02*
G01*
X110459217Y-126239276D01*
X110509106Y-126252784D01*
X110554182Y-126275411D01*
X110592772Y-126307234D01*
X110625610Y-126349260D01*
X110649679Y-126397109D01*
X110664305Y-126449599D01*
X110669330Y-126507834D01*
X110664901Y-126563744D01*
X110652184Y-126612826D01*
X110631608Y-126656254D01*
X110603018Y-126694924D01*
X110567830Y-126726900D01*
X110524156Y-126753246D01*
X110470497Y-126773810D01*
X110404937Y-126787920D01*
X110466122Y-126829120D01*
X110513197Y-126872001D01*
X110557821Y-126927770D01*
X110628358Y-127034605D01*
X110750601Y-127230000D01*
X110508801Y-127230000D01*
X110362622Y-127011769D01*
X110289608Y-126906484D01*
X110256071Y-126864734D01*
X110225730Y-126838630D01*
X110195254Y-126823152D01*
X110158403Y-126815230D01*
X110093466Y-126811856D01*
X110052494Y-126811856D01*
X110052494Y-127230000D01*
X109850261Y-127230000D01*
X109850261Y-126651632D01*
X110052494Y-126651632D01*
X110202093Y-126651632D01*
X110334304Y-126647425D01*
X110383810Y-126639176D01*
X110416233Y-126622054D01*
X110440474Y-126596189D01*
X110455573Y-126562912D01*
X110460990Y-126519924D01*
X110457739Y-126486666D01*
X110448610Y-126459468D01*
X110434002Y-126437065D01*
X110402359Y-126411782D01*
X110357859Y-126397192D01*
X110210275Y-126393712D01*
X110052494Y-126393712D01*
X110052494Y-126651632D01*
X109850261Y-126651632D01*
X109850261Y-126225673D01*
X110275854Y-126225673D01*
X110384101Y-126229501D01*
G37*
G36*
X110859778Y-127230000D02*
G01*
X110859778Y-126225673D01*
X111602337Y-126225673D01*
X111602337Y-126393712D01*
X111061950Y-126393712D01*
X111061950Y-126616461D01*
X111564724Y-126616461D01*
X111564724Y-126784501D01*
X111061950Y-126784501D01*
X111061950Y-127061960D01*
X111621449Y-127061960D01*
X111621449Y-127230000D01*
X110859778Y-127230000D01*
G37*
G36*
X112048264Y-127230000D02*
G01*
X111690326Y-126225673D01*
X111909595Y-126225673D01*
X112163058Y-126968171D01*
X112408278Y-126225673D01*
X112622784Y-126225673D01*
X112264113Y-127230000D01*
X112048264Y-127230000D01*
G37*
G36*
X113331699Y-127050237D02*
G01*
X113331699Y-127230000D01*
X112658871Y-127230000D01*
X112670935Y-127164273D01*
X112692657Y-127100789D01*
X112724450Y-127038941D01*
X112765440Y-126981194D01*
X112834345Y-126903102D01*
X112940300Y-126799460D01*
X113056132Y-126686661D01*
X113099424Y-126635940D01*
X113122112Y-126595058D01*
X113134926Y-126556266D01*
X113139052Y-126518764D01*
X113134796Y-126477427D01*
X113123070Y-126445319D01*
X113104553Y-126420334D01*
X113079565Y-126401704D01*
X113048387Y-126390069D01*
X113009237Y-126385896D01*
X112970693Y-126390208D01*
X112939357Y-126402366D01*
X112913616Y-126422105D01*
X112894740Y-126448601D01*
X112880623Y-126487285D01*
X112872644Y-126542212D01*
X112681402Y-126523100D01*
X112695927Y-126443903D01*
X112719228Y-126381419D01*
X112750185Y-126332533D01*
X112788625Y-126294916D01*
X112835206Y-126265306D01*
X112887593Y-126243757D01*
X112946794Y-126230351D01*
X113014061Y-126225673D01*
X113087929Y-126231230D01*
X113150095Y-126246875D01*
X113202595Y-126271638D01*
X113247008Y-126305357D01*
X113284274Y-126347901D01*
X113310419Y-126394455D01*
X113326254Y-126445897D01*
X113331699Y-126503499D01*
X113325598Y-126569506D01*
X113307458Y-126631849D01*
X113277408Y-126692070D01*
X113230582Y-126759466D01*
X113187662Y-126807424D01*
X113104919Y-126886838D01*
X112989820Y-126997114D01*
X112950558Y-127050237D01*
X113331699Y-127050237D01*
G37*
G36*
X113502119Y-127230000D02*
G01*
X113502119Y-127038513D01*
X113694033Y-127038513D01*
X113694033Y-127230000D01*
X113502119Y-127230000D01*
G37*
G36*
X114245261Y-126232592D02*
G01*
X114305490Y-126252328D01*
X114357238Y-126284386D01*
X114401910Y-126329659D01*
X114433362Y-126378180D01*
X114459913Y-126440242D01*
X114480749Y-126518649D01*
X114494558Y-126616670D01*
X114499607Y-126737972D01*
X114494547Y-126858779D01*
X114480690Y-126956713D01*
X114459742Y-127035342D01*
X114432992Y-127097847D01*
X114401238Y-127146957D01*
X114356972Y-127191529D01*
X114305490Y-127223164D01*
X114245359Y-127242684D01*
X114174398Y-127249539D01*
X114103782Y-127242280D01*
X114042123Y-127221295D01*
X113987499Y-127186676D01*
X113938703Y-127137065D01*
X113910555Y-127093100D01*
X113886356Y-127034643D01*
X113867041Y-126958318D01*
X113854052Y-126860203D01*
X113849329Y-126737972D01*
X114050078Y-126737972D01*
X114055626Y-126900266D01*
X114067847Y-126979834D01*
X114082460Y-127022997D01*
X114097509Y-127050830D01*
X114112604Y-127067517D01*
X114141534Y-127083862D01*
X114174398Y-127089316D01*
X114207337Y-127083786D01*
X114236557Y-127067151D01*
X114259355Y-127038913D01*
X114278995Y-126987650D01*
X114292740Y-126901199D01*
X114298778Y-126737972D01*
X114293229Y-126575632D01*
X114281010Y-126496111D01*
X114258906Y-126437287D01*
X114236252Y-126408061D01*
X114207288Y-126391435D01*
X114174398Y-126385896D01*
X114141501Y-126391421D01*
X114112238Y-126408061D01*
X114089488Y-126436292D01*
X114069862Y-126487562D01*
X114056106Y-126574611D01*
X114050078Y-126737972D01*
X113849329Y-126737972D01*
X113849249Y-126735896D01*
X113854300Y-126615732D01*
X113868139Y-126518210D01*
X113889075Y-126439807D01*
X113915831Y-126377386D01*
X113947618Y-126328255D01*
X113991884Y-126283680D01*
X114043357Y-126252045D01*
X114103469Y-126232526D01*
X114174398Y-126225673D01*
X114245261Y-126232592D01*
G37*
G36*
X114668623Y-127230000D02*
G01*
X114668623Y-127038513D01*
X114860537Y-127038513D01*
X114860537Y-127230000D01*
X114668623Y-127230000D01*
G37*
G36*
X115411765Y-126232592D02*
G01*
X115471994Y-126252328D01*
X115523742Y-126284386D01*
X115568414Y-126329659D01*
X115599866Y-126378180D01*
X115626417Y-126440242D01*
X115647253Y-126518649D01*
X115661062Y-126616670D01*
X115666111Y-126737972D01*
X115661051Y-126858779D01*
X115647194Y-126956713D01*
X115626246Y-127035342D01*
X115599495Y-127097847D01*
X115567742Y-127146957D01*
X115523476Y-127191529D01*
X115471994Y-127223164D01*
X115411862Y-127242684D01*
X115340901Y-127249539D01*
X115270286Y-127242280D01*
X115208627Y-127221295D01*
X115154003Y-127186676D01*
X115105207Y-127137065D01*
X115077059Y-127093100D01*
X115052860Y-127034643D01*
X115033545Y-126958318D01*
X115020556Y-126860203D01*
X115015833Y-126737972D01*
X115216582Y-126737972D01*
X115222130Y-126900266D01*
X115234351Y-126979834D01*
X115248964Y-127022997D01*
X115264012Y-127050830D01*
X115279108Y-127067517D01*
X115308038Y-127083862D01*
X115340901Y-127089316D01*
X115373841Y-127083786D01*
X115403061Y-127067151D01*
X115425859Y-127038913D01*
X115445498Y-126987650D01*
X115459244Y-126901199D01*
X115465282Y-126737972D01*
X115459732Y-126575632D01*
X115447513Y-126496111D01*
X115425410Y-126437287D01*
X115402756Y-126408061D01*
X115373791Y-126391435D01*
X115340901Y-126385896D01*
X115308004Y-126391421D01*
X115278742Y-126408061D01*
X115255992Y-126436292D01*
X115236366Y-126487562D01*
X115222609Y-126574611D01*
X115216582Y-126737972D01*
X115015833Y-126737972D01*
X115015753Y-126735896D01*
X115020803Y-126615732D01*
X115034643Y-126518210D01*
X115055579Y-126439807D01*
X115082335Y-126377386D01*
X115114122Y-126328255D01*
X115158388Y-126283680D01*
X115209861Y-126252045D01*
X115269973Y-126232526D01*
X115340901Y-126225673D01*
X115411765Y-126232592D01*
G37*
D13*
G36*
X144853926Y-96285813D02*
G01*
X144872858Y-96304746D01*
X144898209Y-96355447D01*
X144898209Y-96534272D01*
X144672019Y-96534272D01*
X144672019Y-96355447D01*
X144697369Y-96304745D01*
X144716302Y-96285813D01*
X144767004Y-96260463D01*
X144803225Y-96260463D01*
X144853926Y-96285813D01*
G37*
G36*
X145377736Y-96238195D02*
G01*
X145396668Y-96257127D01*
X145422019Y-96307828D01*
X145422019Y-96534272D01*
X145148209Y-96534272D01*
X145148209Y-96346222D01*
X145180081Y-96250604D01*
X145192492Y-96238194D01*
X145243194Y-96212844D01*
X145327034Y-96212844D01*
X145377736Y-96238195D01*
G37*
G36*
X145892257Y-101527736D02*
G01*
X144297019Y-101527736D01*
X144297019Y-100754511D01*
X144422019Y-100754511D01*
X144422019Y-101230701D01*
X144422907Y-101239721D01*
X144422603Y-101242767D01*
X144423500Y-101245741D01*
X144424421Y-101255087D01*
X144431413Y-101271968D01*
X144436691Y-101289461D01*
X144440676Y-101294332D01*
X144443085Y-101300147D01*
X144456005Y-101313067D01*
X144467576Y-101327209D01*
X144473122Y-101330184D01*
X144477573Y-101334635D01*
X144494455Y-101341627D01*
X144510555Y-101350264D01*
X144519762Y-101352110D01*
X144522633Y-101353299D01*
X144525693Y-101353299D01*
X144534581Y-101355081D01*
X145010771Y-101402700D01*
X145035275Y-101402736D01*
X145041301Y-101400918D01*
X145047595Y-101400918D01*
X145064473Y-101393926D01*
X145081969Y-101388648D01*
X145086842Y-101384660D01*
X145092655Y-101382253D01*
X145105570Y-101369337D01*
X145119717Y-101357763D01*
X145122693Y-101352214D01*
X145127142Y-101347766D01*
X145134132Y-101330888D01*
X145142772Y-101314784D01*
X145143398Y-101308520D01*
X145145807Y-101302706D01*
X145145807Y-101284434D01*
X145147625Y-101266254D01*
X145145807Y-101260228D01*
X145145807Y-101253933D01*
X145138814Y-101237052D01*
X145133537Y-101219560D01*
X145129550Y-101214687D01*
X145127142Y-101208873D01*
X145111597Y-101189931D01*
X145078321Y-101156656D01*
X145052971Y-101105955D01*
X145052971Y-100926876D01*
X145078321Y-100876174D01*
X145097254Y-100857242D01*
X145147956Y-100831892D01*
X145327034Y-100831892D01*
X145377736Y-100857243D01*
X145396668Y-100876175D01*
X145422019Y-100926876D01*
X145422019Y-101105954D01*
X145396668Y-101156655D01*
X145363393Y-101189931D01*
X145347847Y-101208873D01*
X145329182Y-101253932D01*
X145329182Y-101302705D01*
X145347846Y-101347765D01*
X145382333Y-101382253D01*
X145427392Y-101400918D01*
X145476165Y-101400918D01*
X145521225Y-101382254D01*
X145540167Y-101366709D01*
X145587787Y-101319090D01*
X145595656Y-101309501D01*
X145598149Y-101307340D01*
X145600512Y-101303585D01*
X145603333Y-101300149D01*
X145604597Y-101297095D01*
X145611203Y-101286603D01*
X145658822Y-101191365D01*
X145667580Y-101168479D01*
X145667898Y-101163998D01*
X145669617Y-101159849D01*
X145672019Y-101135463D01*
X145672019Y-100897368D01*
X145669617Y-100872982D01*
X145667898Y-100868832D01*
X145667580Y-100864352D01*
X145658822Y-100841466D01*
X145611203Y-100746228D01*
X145604597Y-100735735D01*
X145603333Y-100732682D01*
X145600512Y-100729245D01*
X145598149Y-100725491D01*
X145595656Y-100723329D01*
X145587787Y-100713741D01*
X145540167Y-100666122D01*
X145530582Y-100658256D01*
X145528419Y-100655762D01*
X145524658Y-100653394D01*
X145521225Y-100650577D01*
X145518177Y-100649314D01*
X145507681Y-100642707D01*
X145412444Y-100595089D01*
X145389558Y-100586331D01*
X145385076Y-100586012D01*
X145380928Y-100584294D01*
X145356542Y-100581892D01*
X145118447Y-100581892D01*
X145094061Y-100584294D01*
X145089911Y-100586012D01*
X145085431Y-100586331D01*
X145062545Y-100595089D01*
X144967307Y-100642708D01*
X144956812Y-100649314D01*
X144953762Y-100650578D01*
X144950327Y-100653396D01*
X144946570Y-100655762D01*
X144944408Y-100658253D01*
X144934820Y-100666123D01*
X144887202Y-100713742D01*
X144879335Y-100723327D01*
X144876841Y-100725491D01*
X144874472Y-100729252D01*
X144871657Y-100732684D01*
X144870395Y-100735730D01*
X144863786Y-100746229D01*
X144816168Y-100841466D01*
X144807410Y-100864352D01*
X144807091Y-100868833D01*
X144805373Y-100872982D01*
X144802971Y-100897368D01*
X144802971Y-101130672D01*
X144672019Y-101117577D01*
X144672019Y-100754511D01*
X144669617Y-100730125D01*
X144650953Y-100685065D01*
X144616465Y-100650577D01*
X144571405Y-100631913D01*
X144522633Y-100631913D01*
X144477573Y-100650577D01*
X144443085Y-100685065D01*
X144424421Y-100730125D01*
X144422019Y-100754511D01*
X144297019Y-100754511D01*
X144297019Y-99738877D01*
X144423001Y-99738877D01*
X144426458Y-99787526D01*
X144448270Y-99831151D01*
X144485116Y-99863106D01*
X144507491Y-99873096D01*
X145151735Y-100087844D01*
X144507491Y-100302592D01*
X144485116Y-100312582D01*
X144448270Y-100344537D01*
X144426458Y-100388162D01*
X144423001Y-100436811D01*
X144438424Y-100483080D01*
X144470379Y-100519926D01*
X144514004Y-100541738D01*
X144562653Y-100545195D01*
X144586547Y-100539762D01*
X145586547Y-100206430D01*
X145608922Y-100196439D01*
X145615669Y-100190587D01*
X145623658Y-100186593D01*
X145633924Y-100174755D01*
X145645768Y-100164484D01*
X145649763Y-100156492D01*
X145655614Y-100149747D01*
X145660569Y-100134882D01*
X145667580Y-100120860D01*
X145668213Y-100111949D01*
X145671037Y-100103478D01*
X145669926Y-100087844D01*
X145671037Y-100072210D01*
X145668213Y-100063738D01*
X145667580Y-100054828D01*
X145660569Y-100040806D01*
X145655614Y-100025941D01*
X145649763Y-100019195D01*
X145645768Y-100011204D01*
X145633924Y-100000932D01*
X145623658Y-99989095D01*
X145615669Y-99985100D01*
X145608922Y-99979249D01*
X145586547Y-99969258D01*
X144586547Y-99635926D01*
X144562653Y-99630493D01*
X144514004Y-99633950D01*
X144470379Y-99655762D01*
X144438424Y-99692608D01*
X144423001Y-99738877D01*
X144297019Y-99738877D01*
X144297019Y-98897368D01*
X145517257Y-98897368D01*
X145517257Y-99659273D01*
X145519659Y-99683659D01*
X145538323Y-99728719D01*
X145572811Y-99763207D01*
X145617871Y-99781871D01*
X145666643Y-99781871D01*
X145711703Y-99763207D01*
X145746191Y-99728719D01*
X145764855Y-99683659D01*
X145767257Y-99659273D01*
X145767257Y-98897368D01*
X145764855Y-98872982D01*
X145746191Y-98827922D01*
X145711703Y-98793434D01*
X145666643Y-98774770D01*
X145617871Y-98774770D01*
X145572811Y-98793434D01*
X145538323Y-98827922D01*
X145519659Y-98872982D01*
X145517257Y-98897368D01*
X144297019Y-98897368D01*
X144297019Y-98063458D01*
X144424421Y-98063458D01*
X144424421Y-98112230D01*
X144443085Y-98157290D01*
X144477573Y-98191778D01*
X144522633Y-98210442D01*
X144547019Y-98212844D01*
X145327034Y-98212844D01*
X145377736Y-98238195D01*
X145396668Y-98257127D01*
X145422019Y-98307828D01*
X145422019Y-98439287D01*
X145396668Y-98489988D01*
X145377736Y-98508921D01*
X145327034Y-98534272D01*
X144547019Y-98534272D01*
X144522633Y-98536674D01*
X144477573Y-98555338D01*
X144443085Y-98589826D01*
X144424421Y-98634886D01*
X144424421Y-98683658D01*
X144443085Y-98728718D01*
X144477573Y-98763206D01*
X144522633Y-98781870D01*
X144547019Y-98784272D01*
X145356542Y-98784272D01*
X145380928Y-98781870D01*
X145385076Y-98780151D01*
X145389558Y-98779833D01*
X145412444Y-98771075D01*
X145507681Y-98723457D01*
X145518177Y-98716849D01*
X145521225Y-98715587D01*
X145524658Y-98712769D01*
X145528419Y-98710402D01*
X145530582Y-98707907D01*
X145540167Y-98700042D01*
X145587787Y-98652423D01*
X145595656Y-98642834D01*
X145598149Y-98640673D01*
X145600512Y-98636918D01*
X145603333Y-98633482D01*
X145604597Y-98630428D01*
X145611203Y-98619936D01*
X145658822Y-98524698D01*
X145667580Y-98501812D01*
X145667898Y-98497331D01*
X145669617Y-98493182D01*
X145672019Y-98468796D01*
X145672019Y-98278320D01*
X145669617Y-98253934D01*
X145667898Y-98249784D01*
X145667580Y-98245304D01*
X145658822Y-98222418D01*
X145611203Y-98127180D01*
X145604597Y-98116687D01*
X145603333Y-98113634D01*
X145600512Y-98110197D01*
X145598149Y-98106443D01*
X145595656Y-98104281D01*
X145587787Y-98094693D01*
X145540167Y-98047074D01*
X145530582Y-98039208D01*
X145528419Y-98036714D01*
X145524658Y-98034346D01*
X145521225Y-98031529D01*
X145518177Y-98030266D01*
X145507681Y-98023659D01*
X145412444Y-97976041D01*
X145389558Y-97967283D01*
X145385076Y-97966964D01*
X145380928Y-97965246D01*
X145356542Y-97962844D01*
X144547019Y-97962844D01*
X144522633Y-97965246D01*
X144477573Y-97983910D01*
X144443085Y-98018398D01*
X144424421Y-98063458D01*
X144297019Y-98063458D01*
X144297019Y-97230701D01*
X144422019Y-97230701D01*
X144422019Y-97468796D01*
X144424421Y-97493182D01*
X144426139Y-97497330D01*
X144426458Y-97501812D01*
X144435216Y-97524698D01*
X144482834Y-97619935D01*
X144489443Y-97630433D01*
X144490705Y-97633480D01*
X144493520Y-97636911D01*
X144495889Y-97640673D01*
X144498383Y-97642836D01*
X144506250Y-97652422D01*
X144553868Y-97700041D01*
X144563456Y-97707910D01*
X144565618Y-97710402D01*
X144569375Y-97712767D01*
X144572810Y-97715586D01*
X144575860Y-97716849D01*
X144586355Y-97723456D01*
X144681593Y-97771075D01*
X144704479Y-97779833D01*
X144708959Y-97780151D01*
X144713109Y-97781870D01*
X144737495Y-97784272D01*
X144832733Y-97784272D01*
X144857119Y-97781870D01*
X144861267Y-97780151D01*
X144865749Y-97779833D01*
X144888635Y-97771075D01*
X144983872Y-97723457D01*
X144994370Y-97716847D01*
X144997417Y-97715586D01*
X145000848Y-97712770D01*
X145004610Y-97710402D01*
X145006773Y-97707907D01*
X145016359Y-97700041D01*
X145063978Y-97652423D01*
X145071847Y-97642834D01*
X145074339Y-97640673D01*
X145076704Y-97636915D01*
X145079523Y-97633481D01*
X145080786Y-97630430D01*
X145087393Y-97619936D01*
X145135012Y-97524698D01*
X145135695Y-97522912D01*
X145136232Y-97522188D01*
X145139887Y-97511958D01*
X145143770Y-97501812D01*
X145143833Y-97500912D01*
X145144477Y-97499113D01*
X145188768Y-97321947D01*
X145221178Y-97257126D01*
X145240111Y-97238194D01*
X145290813Y-97212844D01*
X145327034Y-97212844D01*
X145377736Y-97238195D01*
X145396668Y-97257127D01*
X145422019Y-97307828D01*
X145422019Y-97496129D01*
X145380815Y-97619744D01*
X145375382Y-97643638D01*
X145378839Y-97692287D01*
X145400651Y-97735912D01*
X145437497Y-97767867D01*
X145483766Y-97783290D01*
X145532415Y-97779833D01*
X145576040Y-97758021D01*
X145607995Y-97721175D01*
X145617985Y-97698800D01*
X145665604Y-97555944D01*
X145668353Y-97543850D01*
X145669617Y-97540801D01*
X145670052Y-97536379D01*
X145671037Y-97532050D01*
X145670803Y-97528758D01*
X145672019Y-97516415D01*
X145672019Y-97278320D01*
X145669617Y-97253934D01*
X145667898Y-97249784D01*
X145667580Y-97245304D01*
X145658822Y-97222418D01*
X145611203Y-97127180D01*
X145604597Y-97116687D01*
X145603333Y-97113634D01*
X145600512Y-97110197D01*
X145598149Y-97106443D01*
X145595656Y-97104281D01*
X145587787Y-97094693D01*
X145540167Y-97047074D01*
X145530582Y-97039208D01*
X145528419Y-97036714D01*
X145524658Y-97034346D01*
X145521225Y-97031529D01*
X145518177Y-97030266D01*
X145507681Y-97023659D01*
X145412444Y-96976041D01*
X145389558Y-96967283D01*
X145385076Y-96966964D01*
X145380928Y-96965246D01*
X145356542Y-96962844D01*
X145261304Y-96962844D01*
X145236918Y-96965246D01*
X145232768Y-96966964D01*
X145228288Y-96967283D01*
X145205402Y-96976041D01*
X145110164Y-97023660D01*
X145099669Y-97030266D01*
X145096619Y-97031530D01*
X145093184Y-97034348D01*
X145089427Y-97036714D01*
X145087265Y-97039205D01*
X145077677Y-97047075D01*
X145030059Y-97094694D01*
X145022192Y-97104279D01*
X145019698Y-97106443D01*
X145017329Y-97110204D01*
X145014514Y-97113636D01*
X145013252Y-97116682D01*
X145006643Y-97127181D01*
X144959025Y-97222418D01*
X144958341Y-97224203D01*
X144957805Y-97224928D01*
X144954149Y-97235157D01*
X144950267Y-97245304D01*
X144950203Y-97246203D01*
X144949560Y-97248003D01*
X144905268Y-97425167D01*
X144872858Y-97489988D01*
X144853926Y-97508921D01*
X144803225Y-97534272D01*
X144767004Y-97534272D01*
X144716302Y-97508921D01*
X144697369Y-97489989D01*
X144672019Y-97439288D01*
X144672019Y-97250984D01*
X144713223Y-97127373D01*
X144718656Y-97103479D01*
X144715199Y-97054829D01*
X144693387Y-97011205D01*
X144656541Y-96979249D01*
X144610272Y-96963826D01*
X144561622Y-96967283D01*
X144517998Y-96989095D01*
X144486043Y-97025941D01*
X144476052Y-97048316D01*
X144428434Y-97191173D01*
X144425684Y-97203263D01*
X144424421Y-97206315D01*
X144423985Y-97210737D01*
X144423001Y-97215067D01*
X144423234Y-97218357D01*
X144422019Y-97230701D01*
X144297019Y-97230701D01*
X144297019Y-96325939D01*
X144422019Y-96325939D01*
X144422019Y-96659272D01*
X144424421Y-96683658D01*
X144443085Y-96728718D01*
X144477573Y-96763206D01*
X144522633Y-96781870D01*
X144547019Y-96784272D01*
X145547019Y-96784272D01*
X145571405Y-96781870D01*
X145616465Y-96763206D01*
X145650953Y-96728718D01*
X145669617Y-96683658D01*
X145672019Y-96659272D01*
X145672019Y-96278320D01*
X145669617Y-96253934D01*
X145667898Y-96249784D01*
X145667580Y-96245304D01*
X145658822Y-96222418D01*
X145611203Y-96127180D01*
X145604597Y-96116687D01*
X145603333Y-96113634D01*
X145600512Y-96110197D01*
X145598149Y-96106443D01*
X145595656Y-96104281D01*
X145587787Y-96094693D01*
X145540167Y-96047074D01*
X145530582Y-96039208D01*
X145528419Y-96036714D01*
X145524658Y-96034346D01*
X145521225Y-96031529D01*
X145518177Y-96030266D01*
X145507681Y-96023659D01*
X145412444Y-95976041D01*
X145389558Y-95967283D01*
X145385076Y-95966964D01*
X145380928Y-95965246D01*
X145356542Y-95962844D01*
X145213685Y-95962844D01*
X145189299Y-95965246D01*
X145185149Y-95966964D01*
X145180669Y-95967283D01*
X145157783Y-95976041D01*
X145062545Y-96023660D01*
X145052050Y-96030266D01*
X145049000Y-96031530D01*
X145045565Y-96034348D01*
X145041808Y-96036714D01*
X145039646Y-96039205D01*
X145030058Y-96047075D01*
X144997728Y-96079404D01*
X144997417Y-96079149D01*
X144994370Y-96077887D01*
X144983872Y-96071278D01*
X144888635Y-96023660D01*
X144865749Y-96014902D01*
X144861267Y-96014583D01*
X144857119Y-96012865D01*
X144832733Y-96010463D01*
X144737495Y-96010463D01*
X144713109Y-96012865D01*
X144708959Y-96014583D01*
X144704479Y-96014902D01*
X144681593Y-96023660D01*
X144586355Y-96071279D01*
X144575860Y-96077885D01*
X144572810Y-96079149D01*
X144569375Y-96081967D01*
X144565618Y-96084333D01*
X144563456Y-96086824D01*
X144553868Y-96094694D01*
X144506250Y-96142313D01*
X144498383Y-96151898D01*
X144495889Y-96154062D01*
X144493520Y-96157823D01*
X144490705Y-96161255D01*
X144489443Y-96164301D01*
X144482834Y-96174800D01*
X144435216Y-96270037D01*
X144426458Y-96292923D01*
X144426139Y-96297404D01*
X144424421Y-96301553D01*
X144422019Y-96325939D01*
X144297019Y-96325939D01*
X144297019Y-95837844D01*
X145892257Y-95837844D01*
X145892257Y-101527736D01*
G37*
G36*
X148797019Y-98764013D02*
G01*
X147297019Y-98764013D01*
X147297019Y-97897368D01*
X147422019Y-97897368D01*
X147422019Y-98516415D01*
X147424421Y-98540801D01*
X147443085Y-98585861D01*
X147477573Y-98620349D01*
X147522633Y-98639013D01*
X147571405Y-98639013D01*
X147616465Y-98620349D01*
X147650953Y-98585861D01*
X147669617Y-98540801D01*
X147672019Y-98516415D01*
X147672019Y-98172838D01*
X147845658Y-98324773D01*
X147856198Y-98332308D01*
X147858525Y-98334635D01*
X147860730Y-98335548D01*
X147865592Y-98339024D01*
X147884830Y-98345530D01*
X147903585Y-98353299D01*
X147907799Y-98353299D01*
X147911793Y-98354650D01*
X147932060Y-98353299D01*
X147952357Y-98353299D01*
X147956249Y-98351686D01*
X147960459Y-98351406D01*
X147978664Y-98342402D01*
X147997417Y-98334635D01*
X148000398Y-98331653D01*
X148004177Y-98329785D01*
X148017547Y-98314504D01*
X148031905Y-98300147D01*
X148033518Y-98296252D01*
X148036294Y-98293080D01*
X148042800Y-98273841D01*
X148050569Y-98255087D01*
X148051154Y-98249142D01*
X148051920Y-98246879D01*
X148051701Y-98243594D01*
X148052971Y-98230701D01*
X148052971Y-98117352D01*
X148078321Y-98066650D01*
X148097254Y-98047718D01*
X148147956Y-98022368D01*
X148327034Y-98022368D01*
X148377736Y-98047719D01*
X148396668Y-98066651D01*
X148422019Y-98117352D01*
X148422019Y-98344049D01*
X148396668Y-98394750D01*
X148363393Y-98428026D01*
X148347847Y-98446968D01*
X148329182Y-98492027D01*
X148329182Y-98540800D01*
X148347846Y-98585860D01*
X148382333Y-98620348D01*
X148427392Y-98639013D01*
X148476165Y-98639013D01*
X148521225Y-98620349D01*
X148540167Y-98604804D01*
X148587787Y-98557185D01*
X148595656Y-98547596D01*
X148598149Y-98545435D01*
X148600512Y-98541680D01*
X148603333Y-98538244D01*
X148604597Y-98535190D01*
X148611203Y-98524698D01*
X148658822Y-98429460D01*
X148667580Y-98406574D01*
X148667898Y-98402093D01*
X148669617Y-98397944D01*
X148672019Y-98373558D01*
X148672019Y-98087844D01*
X148669617Y-98063458D01*
X148667898Y-98059308D01*
X148667580Y-98054828D01*
X148658822Y-98031942D01*
X148611203Y-97936704D01*
X148604597Y-97926211D01*
X148603333Y-97923158D01*
X148600512Y-97919721D01*
X148598149Y-97915967D01*
X148595656Y-97913805D01*
X148587787Y-97904217D01*
X148540167Y-97856598D01*
X148530582Y-97848732D01*
X148528419Y-97846238D01*
X148524658Y-97843870D01*
X148521225Y-97841053D01*
X148518177Y-97839790D01*
X148507681Y-97833183D01*
X148412444Y-97785565D01*
X148389558Y-97776807D01*
X148385076Y-97776488D01*
X148380928Y-97774770D01*
X148356542Y-97772368D01*
X148118447Y-97772368D01*
X148094061Y-97774770D01*
X148089911Y-97776488D01*
X148085431Y-97776807D01*
X148062545Y-97785565D01*
X147967307Y-97833184D01*
X147956812Y-97839790D01*
X147953762Y-97841054D01*
X147950327Y-97843872D01*
X147946570Y-97846238D01*
X147944408Y-97848729D01*
X147934820Y-97856599D01*
X147887202Y-97904218D01*
X147879335Y-97913803D01*
X147876841Y-97915967D01*
X147874472Y-97919728D01*
X147871657Y-97923160D01*
X147870395Y-97926206D01*
X147863786Y-97936705D01*
X147838833Y-97986610D01*
X147629332Y-97803296D01*
X147618791Y-97795760D01*
X147616465Y-97793434D01*
X147614259Y-97792520D01*
X147609398Y-97789045D01*
X147590159Y-97782538D01*
X147571405Y-97774770D01*
X147567191Y-97774770D01*
X147563197Y-97773419D01*
X147542936Y-97774770D01*
X147522633Y-97774770D01*
X147518737Y-97776383D01*
X147514531Y-97776664D01*
X147496332Y-97785663D01*
X147477573Y-97793434D01*
X147474591Y-97796415D01*
X147470813Y-97798284D01*
X147457442Y-97813564D01*
X147443085Y-97827922D01*
X147441471Y-97831816D01*
X147438696Y-97834989D01*
X147432189Y-97854227D01*
X147424421Y-97872982D01*
X147423835Y-97878926D01*
X147423070Y-97881190D01*
X147423289Y-97884474D01*
X147422019Y-97897368D01*
X147297019Y-97897368D01*
X147297019Y-96087844D01*
X147422019Y-96087844D01*
X147422019Y-96706891D01*
X147424421Y-96731277D01*
X147443085Y-96776337D01*
X147477573Y-96810825D01*
X147512375Y-96825240D01*
X147470379Y-96846238D01*
X147438424Y-96883084D01*
X147423001Y-96929353D01*
X147426458Y-96978002D01*
X147448270Y-97021627D01*
X147485116Y-97053582D01*
X147507491Y-97063572D01*
X148151735Y-97278320D01*
X147507491Y-97493068D01*
X147485116Y-97503058D01*
X147448270Y-97535013D01*
X147426458Y-97578638D01*
X147423001Y-97627287D01*
X147438424Y-97673556D01*
X147470379Y-97710402D01*
X147514004Y-97732214D01*
X147562653Y-97735671D01*
X147586547Y-97730238D01*
X148586547Y-97396906D01*
X148608922Y-97386915D01*
X148615669Y-97381063D01*
X148623658Y-97377069D01*
X148633924Y-97365231D01*
X148645768Y-97354960D01*
X148649763Y-97346968D01*
X148655614Y-97340223D01*
X148660569Y-97325358D01*
X148667580Y-97311336D01*
X148668213Y-97302425D01*
X148671037Y-97293954D01*
X148669926Y-97278320D01*
X148671037Y-97262686D01*
X148668213Y-97254214D01*
X148667580Y-97245304D01*
X148660569Y-97231282D01*
X148655614Y-97216417D01*
X148649763Y-97209671D01*
X148645768Y-97201680D01*
X148633924Y-97191408D01*
X148623658Y-97179571D01*
X148615669Y-97175576D01*
X148608922Y-97169725D01*
X148586547Y-97159734D01*
X147586547Y-96826402D01*
X147581582Y-96825273D01*
X147616465Y-96810825D01*
X147650953Y-96776337D01*
X147669617Y-96731277D01*
X147672019Y-96706891D01*
X147672019Y-96363314D01*
X147845658Y-96515249D01*
X147856198Y-96522784D01*
X147858525Y-96525111D01*
X147860730Y-96526024D01*
X147865592Y-96529500D01*
X147884830Y-96536006D01*
X147903585Y-96543775D01*
X147907799Y-96543775D01*
X147911793Y-96545126D01*
X147932060Y-96543775D01*
X147952357Y-96543775D01*
X147956249Y-96542162D01*
X147960459Y-96541882D01*
X147978664Y-96532878D01*
X147997417Y-96525111D01*
X148000398Y-96522129D01*
X148004177Y-96520261D01*
X148017547Y-96504980D01*
X148031905Y-96490623D01*
X148033518Y-96486728D01*
X148036294Y-96483556D01*
X148042800Y-96464317D01*
X148050569Y-96445563D01*
X148051154Y-96439618D01*
X148051920Y-96437355D01*
X148051701Y-96434070D01*
X148052971Y-96421177D01*
X148052971Y-96307828D01*
X148078321Y-96257126D01*
X148097254Y-96238194D01*
X148147956Y-96212844D01*
X148327034Y-96212844D01*
X148377736Y-96238195D01*
X148396668Y-96257127D01*
X148422019Y-96307828D01*
X148422019Y-96534525D01*
X148396668Y-96585226D01*
X148363393Y-96618502D01*
X148347847Y-96637444D01*
X148329182Y-96682503D01*
X148329182Y-96731276D01*
X148347846Y-96776336D01*
X148382333Y-96810824D01*
X148427392Y-96829489D01*
X148476165Y-96829489D01*
X148521225Y-96810825D01*
X148540167Y-96795280D01*
X148587787Y-96747661D01*
X148595656Y-96738072D01*
X148598149Y-96735911D01*
X148600512Y-96732156D01*
X148603333Y-96728720D01*
X148604597Y-96725666D01*
X148611203Y-96715174D01*
X148658822Y-96619936D01*
X148667580Y-96597050D01*
X148667898Y-96592569D01*
X148669617Y-96588420D01*
X148672019Y-96564034D01*
X148672019Y-96278320D01*
X148669617Y-96253934D01*
X148667898Y-96249784D01*
X148667580Y-96245304D01*
X148658822Y-96222418D01*
X148611203Y-96127180D01*
X148604597Y-96116687D01*
X148603333Y-96113634D01*
X148600512Y-96110197D01*
X148598149Y-96106443D01*
X148595656Y-96104281D01*
X148587787Y-96094693D01*
X148540167Y-96047074D01*
X148530582Y-96039208D01*
X148528419Y-96036714D01*
X148524658Y-96034346D01*
X148521225Y-96031529D01*
X148518177Y-96030266D01*
X148507681Y-96023659D01*
X148412444Y-95976041D01*
X148389558Y-95967283D01*
X148385076Y-95966964D01*
X148380928Y-95965246D01*
X148356542Y-95962844D01*
X148118447Y-95962844D01*
X148094061Y-95965246D01*
X148089911Y-95966964D01*
X148085431Y-95967283D01*
X148062545Y-95976041D01*
X147967307Y-96023660D01*
X147956812Y-96030266D01*
X147953762Y-96031530D01*
X147950327Y-96034348D01*
X147946570Y-96036714D01*
X147944408Y-96039205D01*
X147934820Y-96047075D01*
X147887202Y-96094694D01*
X147879335Y-96104279D01*
X147876841Y-96106443D01*
X147874472Y-96110204D01*
X147871657Y-96113636D01*
X147870395Y-96116682D01*
X147863786Y-96127181D01*
X147838833Y-96177086D01*
X147629332Y-95993772D01*
X147618791Y-95986236D01*
X147616465Y-95983910D01*
X147614259Y-95982996D01*
X147609398Y-95979521D01*
X147590159Y-95973014D01*
X147571405Y-95965246D01*
X147567191Y-95965246D01*
X147563197Y-95963895D01*
X147542936Y-95965246D01*
X147522633Y-95965246D01*
X147518737Y-95966859D01*
X147514531Y-95967140D01*
X147496332Y-95976139D01*
X147477573Y-95983910D01*
X147474591Y-95986891D01*
X147470813Y-95988760D01*
X147457442Y-96004040D01*
X147443085Y-96018398D01*
X147441471Y-96022292D01*
X147438696Y-96025465D01*
X147432189Y-96044703D01*
X147424421Y-96063458D01*
X147423835Y-96069402D01*
X147423070Y-96071666D01*
X147423289Y-96074950D01*
X147422019Y-96087844D01*
X147297019Y-96087844D01*
X147297019Y-95837844D01*
X148797019Y-95837844D01*
X148797019Y-98764013D01*
G37*
D11*
X157881797Y-108066042D02*
X158281797Y-108066042D01*
X158081797Y-109266042D02*
X158081797Y-108066042D01*
X158448464Y-108066042D02*
X158915130Y-109266042D01*
X158915130Y-108066042D02*
X158448464Y-109266042D01*
X157948464Y-91428900D02*
X158048464Y-91486042D01*
X158048464Y-91486042D02*
X158215131Y-91486042D01*
X158215131Y-91486042D02*
X158281797Y-91428900D01*
X158281797Y-91428900D02*
X158315131Y-91371757D01*
X158315131Y-91371757D02*
X158348464Y-91257471D01*
X158348464Y-91257471D02*
X158348464Y-91143185D01*
X158348464Y-91143185D02*
X158315131Y-91028900D01*
X158315131Y-91028900D02*
X158281797Y-90971757D01*
X158281797Y-90971757D02*
X158215131Y-90914614D01*
X158215131Y-90914614D02*
X158081797Y-90857471D01*
X158081797Y-90857471D02*
X158015131Y-90800328D01*
X158015131Y-90800328D02*
X157981797Y-90743185D01*
X157981797Y-90743185D02*
X157948464Y-90628900D01*
X157948464Y-90628900D02*
X157948464Y-90514614D01*
X157948464Y-90514614D02*
X157981797Y-90400328D01*
X157981797Y-90400328D02*
X158015131Y-90343185D01*
X158015131Y-90343185D02*
X158081797Y-90286042D01*
X158081797Y-90286042D02*
X158248464Y-90286042D01*
X158248464Y-90286042D02*
X158348464Y-90343185D01*
X158648464Y-91486042D02*
X158648464Y-90286042D01*
X158648464Y-90286042D02*
X158815131Y-90286042D01*
X158815131Y-90286042D02*
X158915131Y-90343185D01*
X158915131Y-90343185D02*
X158981798Y-90457471D01*
X158981798Y-90457471D02*
X159015131Y-90571757D01*
X159015131Y-90571757D02*
X159048464Y-90800328D01*
X159048464Y-90800328D02*
X159048464Y-90971757D01*
X159048464Y-90971757D02*
X159015131Y-91200328D01*
X159015131Y-91200328D02*
X158981798Y-91314614D01*
X158981798Y-91314614D02*
X158915131Y-91428900D01*
X158915131Y-91428900D02*
X158815131Y-91486042D01*
X158815131Y-91486042D02*
X158648464Y-91486042D01*
X159315131Y-91143185D02*
X159648464Y-91143185D01*
X159248464Y-91486042D02*
X159481798Y-90286042D01*
X159481798Y-90286042D02*
X159715131Y-91486042D01*
X158348464Y-118283185D02*
X158281797Y-118226042D01*
X158281797Y-118226042D02*
X158181797Y-118226042D01*
X158181797Y-118226042D02*
X158081797Y-118283185D01*
X158081797Y-118283185D02*
X158015131Y-118397471D01*
X158015131Y-118397471D02*
X157981797Y-118511757D01*
X157981797Y-118511757D02*
X157948464Y-118740328D01*
X157948464Y-118740328D02*
X157948464Y-118911757D01*
X157948464Y-118911757D02*
X157981797Y-119140328D01*
X157981797Y-119140328D02*
X158015131Y-119254614D01*
X158015131Y-119254614D02*
X158081797Y-119368900D01*
X158081797Y-119368900D02*
X158181797Y-119426042D01*
X158181797Y-119426042D02*
X158248464Y-119426042D01*
X158248464Y-119426042D02*
X158348464Y-119368900D01*
X158348464Y-119368900D02*
X158381797Y-119311757D01*
X158381797Y-119311757D02*
X158381797Y-118911757D01*
X158381797Y-118911757D02*
X158248464Y-118911757D01*
X158681797Y-119426042D02*
X158681797Y-118226042D01*
X158681797Y-118226042D02*
X159081797Y-119426042D01*
X159081797Y-119426042D02*
X159081797Y-118226042D01*
X159415130Y-119426042D02*
X159415130Y-118226042D01*
X159415130Y-118226042D02*
X159581797Y-118226042D01*
X159581797Y-118226042D02*
X159681797Y-118283185D01*
X159681797Y-118283185D02*
X159748464Y-118397471D01*
X159748464Y-118397471D02*
X159781797Y-118511757D01*
X159781797Y-118511757D02*
X159815130Y-118740328D01*
X159815130Y-118740328D02*
X159815130Y-118911757D01*
X159815130Y-118911757D02*
X159781797Y-119140328D01*
X159781797Y-119140328D02*
X159748464Y-119254614D01*
X159748464Y-119254614D02*
X159681797Y-119368900D01*
X159681797Y-119368900D02*
X159581797Y-119426042D01*
X159581797Y-119426042D02*
X159415130Y-119426042D01*
X157948464Y-93968900D02*
X158048464Y-94026042D01*
X158048464Y-94026042D02*
X158215131Y-94026042D01*
X158215131Y-94026042D02*
X158281797Y-93968900D01*
X158281797Y-93968900D02*
X158315131Y-93911757D01*
X158315131Y-93911757D02*
X158348464Y-93797471D01*
X158348464Y-93797471D02*
X158348464Y-93683185D01*
X158348464Y-93683185D02*
X158315131Y-93568900D01*
X158315131Y-93568900D02*
X158281797Y-93511757D01*
X158281797Y-93511757D02*
X158215131Y-93454614D01*
X158215131Y-93454614D02*
X158081797Y-93397471D01*
X158081797Y-93397471D02*
X158015131Y-93340328D01*
X158015131Y-93340328D02*
X157981797Y-93283185D01*
X157981797Y-93283185D02*
X157948464Y-93168900D01*
X157948464Y-93168900D02*
X157948464Y-93054614D01*
X157948464Y-93054614D02*
X157981797Y-92940328D01*
X157981797Y-92940328D02*
X158015131Y-92883185D01*
X158015131Y-92883185D02*
X158081797Y-92826042D01*
X158081797Y-92826042D02*
X158248464Y-92826042D01*
X158248464Y-92826042D02*
X158348464Y-92883185D01*
X159048464Y-93911757D02*
X159015131Y-93968900D01*
X159015131Y-93968900D02*
X158915131Y-94026042D01*
X158915131Y-94026042D02*
X158848464Y-94026042D01*
X158848464Y-94026042D02*
X158748464Y-93968900D01*
X158748464Y-93968900D02*
X158681798Y-93854614D01*
X158681798Y-93854614D02*
X158648464Y-93740328D01*
X158648464Y-93740328D02*
X158615131Y-93511757D01*
X158615131Y-93511757D02*
X158615131Y-93340328D01*
X158615131Y-93340328D02*
X158648464Y-93111757D01*
X158648464Y-93111757D02*
X158681798Y-92997471D01*
X158681798Y-92997471D02*
X158748464Y-92883185D01*
X158748464Y-92883185D02*
X158848464Y-92826042D01*
X158848464Y-92826042D02*
X158915131Y-92826042D01*
X158915131Y-92826042D02*
X159015131Y-92883185D01*
X159015131Y-92883185D02*
X159048464Y-92940328D01*
X159681798Y-94026042D02*
X159348464Y-94026042D01*
X159348464Y-94026042D02*
X159348464Y-92826042D01*
D13*
G36*
X138853926Y-98104861D02*
G01*
X138872858Y-98123794D01*
X138898209Y-98174495D01*
X138898209Y-98353320D01*
X138672019Y-98353320D01*
X138672019Y-98174495D01*
X138697369Y-98123793D01*
X138716302Y-98104861D01*
X138767004Y-98079511D01*
X138803225Y-98079511D01*
X138853926Y-98104861D01*
G37*
G36*
X139377736Y-98057243D02*
G01*
X139396668Y-98076175D01*
X139422019Y-98126876D01*
X139422019Y-98353320D01*
X139148209Y-98353320D01*
X139148209Y-98165270D01*
X139180081Y-98069652D01*
X139192492Y-98057242D01*
X139243194Y-98031892D01*
X139327034Y-98031892D01*
X139377736Y-98057243D01*
G37*
G36*
X139136304Y-97352510D02*
G01*
X138942303Y-97287844D01*
X139136304Y-97223177D01*
X139136304Y-97352510D01*
G37*
G36*
X139797019Y-99727338D02*
G01*
X138297019Y-99727338D01*
X138297019Y-98796020D01*
X138423001Y-98796020D01*
X138426458Y-98844669D01*
X138448270Y-98888294D01*
X138485116Y-98920249D01*
X138507491Y-98930239D01*
X139151735Y-99144987D01*
X138507491Y-99359735D01*
X138485116Y-99369725D01*
X138448270Y-99401680D01*
X138426458Y-99445305D01*
X138423001Y-99493954D01*
X138438424Y-99540223D01*
X138470379Y-99577069D01*
X138514004Y-99598881D01*
X138562653Y-99602338D01*
X138586547Y-99596905D01*
X139586547Y-99263573D01*
X139608922Y-99253582D01*
X139615669Y-99247730D01*
X139623658Y-99243736D01*
X139633924Y-99231898D01*
X139645768Y-99221627D01*
X139649763Y-99213635D01*
X139655614Y-99206890D01*
X139660569Y-99192025D01*
X139667580Y-99178003D01*
X139668213Y-99169092D01*
X139671037Y-99160621D01*
X139669926Y-99144987D01*
X139671037Y-99129353D01*
X139668213Y-99120881D01*
X139667580Y-99111971D01*
X139660569Y-99097949D01*
X139655614Y-99083084D01*
X139649763Y-99076338D01*
X139645768Y-99068347D01*
X139633924Y-99058075D01*
X139623658Y-99046238D01*
X139615669Y-99042243D01*
X139608922Y-99036392D01*
X139586547Y-99026401D01*
X138586547Y-98693069D01*
X138562653Y-98687636D01*
X138514004Y-98691093D01*
X138470379Y-98712905D01*
X138438424Y-98749751D01*
X138423001Y-98796020D01*
X138297019Y-98796020D01*
X138297019Y-98144987D01*
X138422019Y-98144987D01*
X138422019Y-98478320D01*
X138424421Y-98502706D01*
X138443085Y-98547766D01*
X138477573Y-98582254D01*
X138522633Y-98600918D01*
X138547019Y-98603320D01*
X139547019Y-98603320D01*
X139571405Y-98600918D01*
X139616465Y-98582254D01*
X139650953Y-98547766D01*
X139669617Y-98502706D01*
X139672019Y-98478320D01*
X139672019Y-98097368D01*
X139669617Y-98072982D01*
X139667898Y-98068832D01*
X139667580Y-98064352D01*
X139658822Y-98041466D01*
X139611203Y-97946228D01*
X139604597Y-97935735D01*
X139603333Y-97932682D01*
X139600512Y-97929245D01*
X139598149Y-97925491D01*
X139595656Y-97923329D01*
X139587787Y-97913741D01*
X139540167Y-97866122D01*
X139530582Y-97858256D01*
X139528419Y-97855762D01*
X139524658Y-97853394D01*
X139521225Y-97850577D01*
X139518177Y-97849314D01*
X139507681Y-97842707D01*
X139412444Y-97795089D01*
X139389558Y-97786331D01*
X139385076Y-97786012D01*
X139380928Y-97784294D01*
X139356542Y-97781892D01*
X139213685Y-97781892D01*
X139189299Y-97784294D01*
X139185149Y-97786012D01*
X139180669Y-97786331D01*
X139157783Y-97795089D01*
X139062545Y-97842708D01*
X139052050Y-97849314D01*
X139049000Y-97850578D01*
X139045565Y-97853396D01*
X139041808Y-97855762D01*
X139039646Y-97858253D01*
X139030058Y-97866123D01*
X138997728Y-97898452D01*
X138997417Y-97898197D01*
X138994370Y-97896935D01*
X138983872Y-97890326D01*
X138888635Y-97842708D01*
X138865749Y-97833950D01*
X138861267Y-97833631D01*
X138857119Y-97831913D01*
X138832733Y-97829511D01*
X138737495Y-97829511D01*
X138713109Y-97831913D01*
X138708959Y-97833631D01*
X138704479Y-97833950D01*
X138681593Y-97842708D01*
X138586355Y-97890327D01*
X138575860Y-97896933D01*
X138572810Y-97898197D01*
X138569375Y-97901015D01*
X138565618Y-97903381D01*
X138563456Y-97905872D01*
X138553868Y-97913742D01*
X138506250Y-97961361D01*
X138498383Y-97970946D01*
X138495889Y-97973110D01*
X138493520Y-97976871D01*
X138490705Y-97980303D01*
X138489443Y-97983349D01*
X138482834Y-97993848D01*
X138435216Y-98089085D01*
X138426458Y-98111971D01*
X138426139Y-98116452D01*
X138424421Y-98120601D01*
X138422019Y-98144987D01*
X138297019Y-98144987D01*
X138297019Y-97272210D01*
X138423001Y-97272210D01*
X138424111Y-97287844D01*
X138423001Y-97303478D01*
X138425824Y-97311949D01*
X138426458Y-97320859D01*
X138433468Y-97334879D01*
X138438424Y-97349747D01*
X138444274Y-97356493D01*
X138448270Y-97364484D01*
X138460110Y-97374752D01*
X138470379Y-97386593D01*
X138478369Y-97390588D01*
X138485116Y-97396439D01*
X138507491Y-97406429D01*
X139507490Y-97739762D01*
X139531384Y-97745195D01*
X139580034Y-97741738D01*
X139623658Y-97719926D01*
X139655614Y-97683080D01*
X139671037Y-97636811D01*
X139667580Y-97588161D01*
X139645768Y-97544537D01*
X139608922Y-97512582D01*
X139586547Y-97502591D01*
X139386304Y-97435843D01*
X139386304Y-97139844D01*
X139586547Y-97073097D01*
X139608922Y-97063106D01*
X139645768Y-97031151D01*
X139667580Y-96987527D01*
X139671037Y-96938877D01*
X139655614Y-96892608D01*
X139623658Y-96855762D01*
X139580034Y-96833950D01*
X139531384Y-96830493D01*
X139507490Y-96835926D01*
X138507491Y-97169259D01*
X138485116Y-97179249D01*
X138478369Y-97185099D01*
X138470379Y-97189095D01*
X138460110Y-97200935D01*
X138448270Y-97211204D01*
X138444274Y-97219194D01*
X138438424Y-97225941D01*
X138433468Y-97240808D01*
X138426458Y-97254829D01*
X138425824Y-97263738D01*
X138423001Y-97272210D01*
X138297019Y-97272210D01*
X138297019Y-96192606D01*
X138422019Y-96192606D01*
X138422019Y-96764034D01*
X138424421Y-96788420D01*
X138443085Y-96833480D01*
X138477573Y-96867968D01*
X138522633Y-96886632D01*
X138571405Y-96886632D01*
X138616465Y-96867968D01*
X138650953Y-96833480D01*
X138669617Y-96788420D01*
X138672019Y-96764034D01*
X138672019Y-96603320D01*
X139547019Y-96603320D01*
X139571405Y-96600918D01*
X139616465Y-96582254D01*
X139650953Y-96547766D01*
X139669617Y-96502706D01*
X139669617Y-96453934D01*
X139650953Y-96408874D01*
X139616465Y-96374386D01*
X139571405Y-96355722D01*
X139547019Y-96353320D01*
X138672019Y-96353320D01*
X138672019Y-96192606D01*
X138669617Y-96168220D01*
X138650953Y-96123160D01*
X138616465Y-96088672D01*
X138571405Y-96070008D01*
X138522633Y-96070008D01*
X138477573Y-96088672D01*
X138443085Y-96123160D01*
X138424421Y-96168220D01*
X138422019Y-96192606D01*
X138297019Y-96192606D01*
X138297019Y-95945008D01*
X139797019Y-95945008D01*
X139797019Y-99727338D01*
G37*
D11*
X157981797Y-104186042D02*
X157981797Y-102986042D01*
X157981797Y-102986042D02*
X158215131Y-103843185D01*
X158215131Y-103843185D02*
X158448464Y-102986042D01*
X158448464Y-102986042D02*
X158448464Y-104186042D01*
X158915131Y-102986042D02*
X159048464Y-102986042D01*
X159048464Y-102986042D02*
X159115131Y-103043185D01*
X159115131Y-103043185D02*
X159181797Y-103157471D01*
X159181797Y-103157471D02*
X159215131Y-103386042D01*
X159215131Y-103386042D02*
X159215131Y-103786042D01*
X159215131Y-103786042D02*
X159181797Y-104014614D01*
X159181797Y-104014614D02*
X159115131Y-104128900D01*
X159115131Y-104128900D02*
X159048464Y-104186042D01*
X159048464Y-104186042D02*
X158915131Y-104186042D01*
X158915131Y-104186042D02*
X158848464Y-104128900D01*
X158848464Y-104128900D02*
X158781797Y-104014614D01*
X158781797Y-104014614D02*
X158748464Y-103786042D01*
X158748464Y-103786042D02*
X158748464Y-103386042D01*
X158748464Y-103386042D02*
X158781797Y-103157471D01*
X158781797Y-103157471D02*
X158848464Y-103043185D01*
X158848464Y-103043185D02*
X158915131Y-102986042D01*
X159481797Y-104128900D02*
X159581797Y-104186042D01*
X159581797Y-104186042D02*
X159748464Y-104186042D01*
X159748464Y-104186042D02*
X159815130Y-104128900D01*
X159815130Y-104128900D02*
X159848464Y-104071757D01*
X159848464Y-104071757D02*
X159881797Y-103957471D01*
X159881797Y-103957471D02*
X159881797Y-103843185D01*
X159881797Y-103843185D02*
X159848464Y-103728900D01*
X159848464Y-103728900D02*
X159815130Y-103671757D01*
X159815130Y-103671757D02*
X159748464Y-103614614D01*
X159748464Y-103614614D02*
X159615130Y-103557471D01*
X159615130Y-103557471D02*
X159548464Y-103500328D01*
X159548464Y-103500328D02*
X159515130Y-103443185D01*
X159515130Y-103443185D02*
X159481797Y-103328900D01*
X159481797Y-103328900D02*
X159481797Y-103214614D01*
X159481797Y-103214614D02*
X159515130Y-103100328D01*
X159515130Y-103100328D02*
X159548464Y-103043185D01*
X159548464Y-103043185D02*
X159615130Y-102986042D01*
X159615130Y-102986042D02*
X159781797Y-102986042D01*
X159781797Y-102986042D02*
X159881797Y-103043185D01*
X160181797Y-104186042D02*
X160181797Y-102986042D01*
D13*
G36*
X141853926Y-98285813D02*
G01*
X141872858Y-98304746D01*
X141898209Y-98355447D01*
X141898209Y-98534272D01*
X141672019Y-98534272D01*
X141672019Y-98355447D01*
X141697369Y-98304745D01*
X141716302Y-98285813D01*
X141767004Y-98260463D01*
X141803225Y-98260463D01*
X141853926Y-98285813D01*
G37*
G36*
X142377736Y-98238195D02*
G01*
X142396668Y-98257127D01*
X142422019Y-98307828D01*
X142422019Y-98534272D01*
X142148209Y-98534272D01*
X142148209Y-98346222D01*
X142180081Y-98250604D01*
X142192492Y-98238194D01*
X142243194Y-98212844D01*
X142327034Y-98212844D01*
X142377736Y-98238195D01*
G37*
G36*
X141901545Y-97238194D02*
G01*
X141920477Y-97257127D01*
X141945828Y-97307828D01*
X141945828Y-97534272D01*
X141672019Y-97534272D01*
X141672019Y-97307828D01*
X141697369Y-97257126D01*
X141716302Y-97238194D01*
X141767004Y-97212844D01*
X141850844Y-97212844D01*
X141901545Y-97238194D01*
G37*
G36*
X142265296Y-96253403D02*
G01*
X142330115Y-96285813D01*
X142390146Y-96345844D01*
X142422019Y-96441462D01*
X142422019Y-96534272D01*
X141672019Y-96534272D01*
X141672019Y-96441460D01*
X141703891Y-96345842D01*
X141763919Y-96285814D01*
X141828742Y-96253403D01*
X141990979Y-96212844D01*
X142103058Y-96212844D01*
X142265296Y-96253403D01*
G37*
G36*
X142892257Y-101527736D02*
G01*
X141297019Y-101527736D01*
X141297019Y-100754511D01*
X141422019Y-100754511D01*
X141422019Y-101230701D01*
X141422907Y-101239721D01*
X141422603Y-101242767D01*
X141423500Y-101245741D01*
X141424421Y-101255087D01*
X141431413Y-101271968D01*
X141436691Y-101289461D01*
X141440676Y-101294332D01*
X141443085Y-101300147D01*
X141456005Y-101313067D01*
X141467576Y-101327209D01*
X141473122Y-101330184D01*
X141477573Y-101334635D01*
X141494455Y-101341627D01*
X141510555Y-101350264D01*
X141519762Y-101352110D01*
X141522633Y-101353299D01*
X141525693Y-101353299D01*
X141534581Y-101355081D01*
X142010771Y-101402700D01*
X142035275Y-101402736D01*
X142041301Y-101400918D01*
X142047595Y-101400918D01*
X142064473Y-101393926D01*
X142081969Y-101388648D01*
X142086842Y-101384660D01*
X142092655Y-101382253D01*
X142105570Y-101369337D01*
X142119717Y-101357763D01*
X142122693Y-101352214D01*
X142127142Y-101347766D01*
X142134132Y-101330888D01*
X142142772Y-101314784D01*
X142143398Y-101308520D01*
X142145807Y-101302706D01*
X142145807Y-101284434D01*
X142147625Y-101266254D01*
X142145807Y-101260228D01*
X142145807Y-101253933D01*
X142138814Y-101237052D01*
X142133537Y-101219560D01*
X142129550Y-101214687D01*
X142127142Y-101208873D01*
X142111597Y-101189931D01*
X142078321Y-101156656D01*
X142052971Y-101105955D01*
X142052971Y-100926876D01*
X142078321Y-100876174D01*
X142097254Y-100857242D01*
X142147956Y-100831892D01*
X142327034Y-100831892D01*
X142377736Y-100857243D01*
X142396668Y-100876175D01*
X142422019Y-100926876D01*
X142422019Y-101105954D01*
X142396668Y-101156655D01*
X142363393Y-101189931D01*
X142347847Y-101208873D01*
X142329182Y-101253932D01*
X142329182Y-101302705D01*
X142347846Y-101347765D01*
X142382333Y-101382253D01*
X142427392Y-101400918D01*
X142476165Y-101400918D01*
X142521225Y-101382254D01*
X142540167Y-101366709D01*
X142587787Y-101319090D01*
X142595656Y-101309501D01*
X142598149Y-101307340D01*
X142600512Y-101303585D01*
X142603333Y-101300149D01*
X142604597Y-101297095D01*
X142611203Y-101286603D01*
X142658822Y-101191365D01*
X142667580Y-101168479D01*
X142667898Y-101163998D01*
X142669617Y-101159849D01*
X142672019Y-101135463D01*
X142672019Y-100897368D01*
X142669617Y-100872982D01*
X142667898Y-100868832D01*
X142667580Y-100864352D01*
X142658822Y-100841466D01*
X142611203Y-100746228D01*
X142604597Y-100735735D01*
X142603333Y-100732682D01*
X142600512Y-100729245D01*
X142598149Y-100725491D01*
X142595656Y-100723329D01*
X142587787Y-100713741D01*
X142540167Y-100666122D01*
X142530582Y-100658256D01*
X142528419Y-100655762D01*
X142524658Y-100653394D01*
X142521225Y-100650577D01*
X142518177Y-100649314D01*
X142507681Y-100642707D01*
X142412444Y-100595089D01*
X142389558Y-100586331D01*
X142385076Y-100586012D01*
X142380928Y-100584294D01*
X142356542Y-100581892D01*
X142118447Y-100581892D01*
X142094061Y-100584294D01*
X142089911Y-100586012D01*
X142085431Y-100586331D01*
X142062545Y-100595089D01*
X141967307Y-100642708D01*
X141956812Y-100649314D01*
X141953762Y-100650578D01*
X141950327Y-100653396D01*
X141946570Y-100655762D01*
X141944408Y-100658253D01*
X141934820Y-100666123D01*
X141887202Y-100713742D01*
X141879335Y-100723327D01*
X141876841Y-100725491D01*
X141874472Y-100729252D01*
X141871657Y-100732684D01*
X141870395Y-100735730D01*
X141863786Y-100746229D01*
X141816168Y-100841466D01*
X141807410Y-100864352D01*
X141807091Y-100868833D01*
X141805373Y-100872982D01*
X141802971Y-100897368D01*
X141802971Y-101130672D01*
X141672019Y-101117577D01*
X141672019Y-100754511D01*
X141669617Y-100730125D01*
X141650953Y-100685065D01*
X141616465Y-100650577D01*
X141571405Y-100631913D01*
X141522633Y-100631913D01*
X141477573Y-100650577D01*
X141443085Y-100685065D01*
X141424421Y-100730125D01*
X141422019Y-100754511D01*
X141297019Y-100754511D01*
X141297019Y-99738877D01*
X141423001Y-99738877D01*
X141426458Y-99787526D01*
X141448270Y-99831151D01*
X141485116Y-99863106D01*
X141507491Y-99873096D01*
X142151735Y-100087844D01*
X141507491Y-100302592D01*
X141485116Y-100312582D01*
X141448270Y-100344537D01*
X141426458Y-100388162D01*
X141423001Y-100436811D01*
X141438424Y-100483080D01*
X141470379Y-100519926D01*
X141514004Y-100541738D01*
X141562653Y-100545195D01*
X141586547Y-100539762D01*
X142586547Y-100206430D01*
X142608922Y-100196439D01*
X142615669Y-100190587D01*
X142623658Y-100186593D01*
X142633924Y-100174755D01*
X142645768Y-100164484D01*
X142649763Y-100156492D01*
X142655614Y-100149747D01*
X142660569Y-100134882D01*
X142667580Y-100120860D01*
X142668213Y-100111949D01*
X142671037Y-100103478D01*
X142669926Y-100087844D01*
X142671037Y-100072210D01*
X142668213Y-100063738D01*
X142667580Y-100054828D01*
X142660569Y-100040806D01*
X142655614Y-100025941D01*
X142649763Y-100019195D01*
X142645768Y-100011204D01*
X142633924Y-100000932D01*
X142623658Y-99989095D01*
X142615669Y-99985100D01*
X142608922Y-99979249D01*
X142586547Y-99969258D01*
X141586547Y-99635926D01*
X141562653Y-99630493D01*
X141514004Y-99633950D01*
X141470379Y-99655762D01*
X141438424Y-99692608D01*
X141423001Y-99738877D01*
X141297019Y-99738877D01*
X141297019Y-98897368D01*
X142517257Y-98897368D01*
X142517257Y-99659273D01*
X142519659Y-99683659D01*
X142538323Y-99728719D01*
X142572811Y-99763207D01*
X142617871Y-99781871D01*
X142666643Y-99781871D01*
X142711703Y-99763207D01*
X142746191Y-99728719D01*
X142764855Y-99683659D01*
X142767257Y-99659273D01*
X142767257Y-98897368D01*
X142764855Y-98872982D01*
X142746191Y-98827922D01*
X142711703Y-98793434D01*
X142666643Y-98774770D01*
X142617871Y-98774770D01*
X142572811Y-98793434D01*
X142538323Y-98827922D01*
X142519659Y-98872982D01*
X142517257Y-98897368D01*
X141297019Y-98897368D01*
X141297019Y-98325939D01*
X141422019Y-98325939D01*
X141422019Y-98659272D01*
X141424421Y-98683658D01*
X141443085Y-98728718D01*
X141477573Y-98763206D01*
X141522633Y-98781870D01*
X141547019Y-98784272D01*
X142547019Y-98784272D01*
X142571405Y-98781870D01*
X142616465Y-98763206D01*
X142650953Y-98728718D01*
X142669617Y-98683658D01*
X142672019Y-98659272D01*
X142672019Y-98278320D01*
X142669617Y-98253934D01*
X142667898Y-98249784D01*
X142667580Y-98245304D01*
X142658822Y-98222418D01*
X142611203Y-98127180D01*
X142604597Y-98116687D01*
X142603333Y-98113634D01*
X142600512Y-98110197D01*
X142598149Y-98106443D01*
X142595656Y-98104281D01*
X142587787Y-98094693D01*
X142540167Y-98047074D01*
X142530582Y-98039208D01*
X142528419Y-98036714D01*
X142524658Y-98034346D01*
X142521225Y-98031529D01*
X142518177Y-98030266D01*
X142507681Y-98023659D01*
X142412444Y-97976041D01*
X142389558Y-97967283D01*
X142385076Y-97966964D01*
X142380928Y-97965246D01*
X142356542Y-97962844D01*
X142213685Y-97962844D01*
X142189299Y-97965246D01*
X142185149Y-97966964D01*
X142180669Y-97967283D01*
X142157783Y-97976041D01*
X142062545Y-98023660D01*
X142052050Y-98030266D01*
X142049000Y-98031530D01*
X142045565Y-98034348D01*
X142041808Y-98036714D01*
X142039646Y-98039205D01*
X142030058Y-98047075D01*
X141997728Y-98079404D01*
X141997417Y-98079149D01*
X141994370Y-98077887D01*
X141983872Y-98071278D01*
X141888635Y-98023660D01*
X141865749Y-98014902D01*
X141861267Y-98014583D01*
X141857119Y-98012865D01*
X141832733Y-98010463D01*
X141737495Y-98010463D01*
X141713109Y-98012865D01*
X141708959Y-98014583D01*
X141704479Y-98014902D01*
X141681593Y-98023660D01*
X141586355Y-98071279D01*
X141575860Y-98077885D01*
X141572810Y-98079149D01*
X141569375Y-98081967D01*
X141565618Y-98084333D01*
X141563456Y-98086824D01*
X141553868Y-98094694D01*
X141506250Y-98142313D01*
X141498383Y-98151898D01*
X141495889Y-98154062D01*
X141493520Y-98157823D01*
X141490705Y-98161255D01*
X141489443Y-98164301D01*
X141482834Y-98174800D01*
X141435216Y-98270037D01*
X141426458Y-98292923D01*
X141426139Y-98297404D01*
X141424421Y-98301553D01*
X141422019Y-98325939D01*
X141297019Y-98325939D01*
X141297019Y-97278320D01*
X141422019Y-97278320D01*
X141422019Y-97659272D01*
X141424421Y-97683658D01*
X141443085Y-97728718D01*
X141477573Y-97763206D01*
X141522633Y-97781870D01*
X141547019Y-97784272D01*
X142547019Y-97784272D01*
X142571405Y-97781870D01*
X142616465Y-97763206D01*
X142650953Y-97728718D01*
X142669617Y-97683658D01*
X142669617Y-97634886D01*
X142650953Y-97589826D01*
X142616465Y-97555338D01*
X142571405Y-97536674D01*
X142547019Y-97534272D01*
X142195828Y-97534272D01*
X142195828Y-97486259D01*
X142618702Y-97190248D01*
X142637302Y-97174296D01*
X142663514Y-97133165D01*
X142671990Y-97085134D01*
X142661440Y-97037516D01*
X142633471Y-96997561D01*
X142592341Y-96971349D01*
X142544309Y-96962873D01*
X142496692Y-96973423D01*
X142475336Y-96985440D01*
X142170747Y-97198651D01*
X142135012Y-97127180D01*
X142128405Y-97116685D01*
X142127142Y-97113635D01*
X142124323Y-97110200D01*
X142121958Y-97106443D01*
X142119466Y-97104281D01*
X142111597Y-97094693D01*
X142063978Y-97047075D01*
X142054392Y-97039208D01*
X142052229Y-97036714D01*
X142048467Y-97034345D01*
X142045036Y-97031530D01*
X142041989Y-97030268D01*
X142031491Y-97023659D01*
X141936254Y-96976041D01*
X141913368Y-96967283D01*
X141908886Y-96966964D01*
X141904738Y-96965246D01*
X141880352Y-96962844D01*
X141737495Y-96962844D01*
X141713109Y-96965246D01*
X141708959Y-96966964D01*
X141704479Y-96967283D01*
X141681593Y-96976041D01*
X141586355Y-97023660D01*
X141575860Y-97030266D01*
X141572810Y-97031530D01*
X141569375Y-97034348D01*
X141565618Y-97036714D01*
X141563456Y-97039205D01*
X141553868Y-97047075D01*
X141506250Y-97094694D01*
X141498383Y-97104279D01*
X141495889Y-97106443D01*
X141493520Y-97110204D01*
X141490705Y-97113636D01*
X141489443Y-97116682D01*
X141482834Y-97127181D01*
X141435216Y-97222418D01*
X141426458Y-97245304D01*
X141426139Y-97249785D01*
X141424421Y-97253934D01*
X141422019Y-97278320D01*
X141297019Y-97278320D01*
X141297019Y-96421177D01*
X141422019Y-96421177D01*
X141422019Y-96659272D01*
X141424421Y-96683658D01*
X141443085Y-96728718D01*
X141477573Y-96763206D01*
X141522633Y-96781870D01*
X141547019Y-96784272D01*
X142547019Y-96784272D01*
X142571405Y-96781870D01*
X142616465Y-96763206D01*
X142650953Y-96728718D01*
X142669617Y-96683658D01*
X142672019Y-96659272D01*
X142672019Y-96421177D01*
X142670803Y-96408833D01*
X142671037Y-96405542D01*
X142670052Y-96401212D01*
X142669617Y-96396791D01*
X142668353Y-96393741D01*
X142665604Y-96381648D01*
X142617985Y-96238792D01*
X142607995Y-96216417D01*
X142605052Y-96213024D01*
X142603333Y-96208873D01*
X142587788Y-96189931D01*
X142492549Y-96094693D01*
X142482960Y-96086824D01*
X142480800Y-96084333D01*
X142477043Y-96081968D01*
X142473607Y-96079148D01*
X142470556Y-96077884D01*
X142460062Y-96071278D01*
X142364825Y-96023660D01*
X142363039Y-96022976D01*
X142362315Y-96022440D01*
X142352085Y-96018784D01*
X142341939Y-96014902D01*
X142341039Y-96014838D01*
X142339240Y-96014195D01*
X142148764Y-95966576D01*
X142144534Y-95965950D01*
X142142833Y-95965246D01*
X142133651Y-95964341D01*
X142124523Y-95962992D01*
X142122701Y-95963263D01*
X142118447Y-95962844D01*
X141975590Y-95962844D01*
X141971335Y-95963263D01*
X141969513Y-95962992D01*
X141960383Y-95964341D01*
X141951204Y-95965246D01*
X141949502Y-95965950D01*
X141945273Y-95966576D01*
X141754797Y-96014195D01*
X141752997Y-96014838D01*
X141752098Y-96014902D01*
X141741951Y-96018784D01*
X141731722Y-96022440D01*
X141730997Y-96022976D01*
X141729212Y-96023660D01*
X141633974Y-96071279D01*
X141623477Y-96077886D01*
X141620430Y-96079149D01*
X141616998Y-96081965D01*
X141613237Y-96084333D01*
X141611073Y-96086827D01*
X141601488Y-96094694D01*
X141506250Y-96189932D01*
X141490705Y-96208874D01*
X141488986Y-96213023D01*
X141486043Y-96216417D01*
X141476052Y-96238792D01*
X141428434Y-96381649D01*
X141425684Y-96393739D01*
X141424421Y-96396791D01*
X141423985Y-96401213D01*
X141423001Y-96405543D01*
X141423234Y-96408833D01*
X141422019Y-96421177D01*
X141297019Y-96421177D01*
X141297019Y-95837844D01*
X142892257Y-95837844D01*
X142892257Y-101527736D01*
G37*
D11*
X157948464Y-101588900D02*
X158048464Y-101646042D01*
X158048464Y-101646042D02*
X158215131Y-101646042D01*
X158215131Y-101646042D02*
X158281797Y-101588900D01*
X158281797Y-101588900D02*
X158315131Y-101531757D01*
X158315131Y-101531757D02*
X158348464Y-101417471D01*
X158348464Y-101417471D02*
X158348464Y-101303185D01*
X158348464Y-101303185D02*
X158315131Y-101188900D01*
X158315131Y-101188900D02*
X158281797Y-101131757D01*
X158281797Y-101131757D02*
X158215131Y-101074614D01*
X158215131Y-101074614D02*
X158081797Y-101017471D01*
X158081797Y-101017471D02*
X158015131Y-100960328D01*
X158015131Y-100960328D02*
X157981797Y-100903185D01*
X157981797Y-100903185D02*
X157948464Y-100788900D01*
X157948464Y-100788900D02*
X157948464Y-100674614D01*
X157948464Y-100674614D02*
X157981797Y-100560328D01*
X157981797Y-100560328D02*
X158015131Y-100503185D01*
X158015131Y-100503185D02*
X158081797Y-100446042D01*
X158081797Y-100446042D02*
X158248464Y-100446042D01*
X158248464Y-100446042D02*
X158348464Y-100503185D01*
X159048464Y-101531757D02*
X159015131Y-101588900D01*
X159015131Y-101588900D02*
X158915131Y-101646042D01*
X158915131Y-101646042D02*
X158848464Y-101646042D01*
X158848464Y-101646042D02*
X158748464Y-101588900D01*
X158748464Y-101588900D02*
X158681798Y-101474614D01*
X158681798Y-101474614D02*
X158648464Y-101360328D01*
X158648464Y-101360328D02*
X158615131Y-101131757D01*
X158615131Y-101131757D02*
X158615131Y-100960328D01*
X158615131Y-100960328D02*
X158648464Y-100731757D01*
X158648464Y-100731757D02*
X158681798Y-100617471D01*
X158681798Y-100617471D02*
X158748464Y-100503185D01*
X158748464Y-100503185D02*
X158848464Y-100446042D01*
X158848464Y-100446042D02*
X158915131Y-100446042D01*
X158915131Y-100446042D02*
X159015131Y-100503185D01*
X159015131Y-100503185D02*
X159048464Y-100560328D01*
X159681798Y-101646042D02*
X159348464Y-101646042D01*
X159348464Y-101646042D02*
X159348464Y-100446042D01*
X159915131Y-101646042D02*
X159915131Y-100446042D01*
X160315131Y-101646042D02*
X160015131Y-100960328D01*
X160315131Y-100446042D02*
X159915131Y-101131757D01*
X158381797Y-96451757D02*
X158348464Y-96508900D01*
X158348464Y-96508900D02*
X158248464Y-96566042D01*
X158248464Y-96566042D02*
X158181797Y-96566042D01*
X158181797Y-96566042D02*
X158081797Y-96508900D01*
X158081797Y-96508900D02*
X158015131Y-96394614D01*
X158015131Y-96394614D02*
X157981797Y-96280328D01*
X157981797Y-96280328D02*
X157948464Y-96051757D01*
X157948464Y-96051757D02*
X157948464Y-95880328D01*
X157948464Y-95880328D02*
X157981797Y-95651757D01*
X157981797Y-95651757D02*
X158015131Y-95537471D01*
X158015131Y-95537471D02*
X158081797Y-95423185D01*
X158081797Y-95423185D02*
X158181797Y-95366042D01*
X158181797Y-95366042D02*
X158248464Y-95366042D01*
X158248464Y-95366042D02*
X158348464Y-95423185D01*
X158348464Y-95423185D02*
X158381797Y-95480328D01*
X158648464Y-96508900D02*
X158748464Y-96566042D01*
X158748464Y-96566042D02*
X158915131Y-96566042D01*
X158915131Y-96566042D02*
X158981797Y-96508900D01*
X158981797Y-96508900D02*
X159015131Y-96451757D01*
X159015131Y-96451757D02*
X159048464Y-96337471D01*
X159048464Y-96337471D02*
X159048464Y-96223185D01*
X159048464Y-96223185D02*
X159015131Y-96108900D01*
X159015131Y-96108900D02*
X158981797Y-96051757D01*
X158981797Y-96051757D02*
X158915131Y-95994614D01*
X158915131Y-95994614D02*
X158781797Y-95937471D01*
X158781797Y-95937471D02*
X158715131Y-95880328D01*
X158715131Y-95880328D02*
X158681797Y-95823185D01*
X158681797Y-95823185D02*
X158648464Y-95708900D01*
X158648464Y-95708900D02*
X158648464Y-95594614D01*
X158648464Y-95594614D02*
X158681797Y-95480328D01*
X158681797Y-95480328D02*
X158715131Y-95423185D01*
X158715131Y-95423185D02*
X158781797Y-95366042D01*
X158781797Y-95366042D02*
X158948464Y-95366042D01*
X158948464Y-95366042D02*
X159048464Y-95423185D01*
X158348464Y-115743185D02*
X158281797Y-115686042D01*
X158281797Y-115686042D02*
X158181797Y-115686042D01*
X158181797Y-115686042D02*
X158081797Y-115743185D01*
X158081797Y-115743185D02*
X158015131Y-115857471D01*
X158015131Y-115857471D02*
X157981797Y-115971757D01*
X157981797Y-115971757D02*
X157948464Y-116200328D01*
X157948464Y-116200328D02*
X157948464Y-116371757D01*
X157948464Y-116371757D02*
X157981797Y-116600328D01*
X157981797Y-116600328D02*
X158015131Y-116714614D01*
X158015131Y-116714614D02*
X158081797Y-116828900D01*
X158081797Y-116828900D02*
X158181797Y-116886042D01*
X158181797Y-116886042D02*
X158248464Y-116886042D01*
X158248464Y-116886042D02*
X158348464Y-116828900D01*
X158348464Y-116828900D02*
X158381797Y-116771757D01*
X158381797Y-116771757D02*
X158381797Y-116371757D01*
X158381797Y-116371757D02*
X158248464Y-116371757D01*
X158681797Y-116886042D02*
X158681797Y-115686042D01*
X158681797Y-115686042D02*
X158848464Y-115686042D01*
X158848464Y-115686042D02*
X158948464Y-115743185D01*
X158948464Y-115743185D02*
X159015131Y-115857471D01*
X159015131Y-115857471D02*
X159048464Y-115971757D01*
X159048464Y-115971757D02*
X159081797Y-116200328D01*
X159081797Y-116200328D02*
X159081797Y-116371757D01*
X159081797Y-116371757D02*
X159048464Y-116600328D01*
X159048464Y-116600328D02*
X159015131Y-116714614D01*
X159015131Y-116714614D02*
X158948464Y-116828900D01*
X158948464Y-116828900D02*
X158848464Y-116886042D01*
X158848464Y-116886042D02*
X158681797Y-116886042D01*
X159215131Y-117000328D02*
X159748464Y-117000328D01*
X159881797Y-116828900D02*
X159981797Y-116886042D01*
X159981797Y-116886042D02*
X160148464Y-116886042D01*
X160148464Y-116886042D02*
X160215130Y-116828900D01*
X160215130Y-116828900D02*
X160248464Y-116771757D01*
X160248464Y-116771757D02*
X160281797Y-116657471D01*
X160281797Y-116657471D02*
X160281797Y-116543185D01*
X160281797Y-116543185D02*
X160248464Y-116428900D01*
X160248464Y-116428900D02*
X160215130Y-116371757D01*
X160215130Y-116371757D02*
X160148464Y-116314614D01*
X160148464Y-116314614D02*
X160015130Y-116257471D01*
X160015130Y-116257471D02*
X159948464Y-116200328D01*
X159948464Y-116200328D02*
X159915130Y-116143185D01*
X159915130Y-116143185D02*
X159881797Y-116028900D01*
X159881797Y-116028900D02*
X159881797Y-115914614D01*
X159881797Y-115914614D02*
X159915130Y-115800328D01*
X159915130Y-115800328D02*
X159948464Y-115743185D01*
X159948464Y-115743185D02*
X160015130Y-115686042D01*
X160015130Y-115686042D02*
X160181797Y-115686042D01*
X160181797Y-115686042D02*
X160281797Y-115743185D01*
X160548464Y-116543185D02*
X160881797Y-116543185D01*
X160481797Y-116886042D02*
X160715131Y-115686042D01*
X160715131Y-115686042D02*
X160948464Y-116886042D01*
X161415131Y-116257471D02*
X161181797Y-116257471D01*
X161181797Y-116886042D02*
X161181797Y-115686042D01*
X161181797Y-115686042D02*
X161515131Y-115686042D01*
X161781797Y-116257471D02*
X162015131Y-116257471D01*
X162115131Y-116886042D02*
X161781797Y-116886042D01*
X161781797Y-116886042D02*
X161781797Y-115686042D01*
X161781797Y-115686042D02*
X162115131Y-115686042D01*
D14*
G36*
X86007319Y-68217647D02*
G01*
X86036496Y-68246824D01*
X86081203Y-68336237D01*
X86081203Y-68479704D01*
X86036496Y-68569117D01*
X85999491Y-68606122D01*
X85910079Y-68650828D01*
X85524060Y-68650828D01*
X85524060Y-68165114D01*
X85849717Y-68165114D01*
X86007319Y-68217647D01*
G37*
G36*
X85928064Y-67495535D02*
G01*
X85965068Y-67532539D01*
X86009775Y-67621952D01*
X86009775Y-67693989D01*
X85965068Y-67783402D01*
X85928064Y-67820407D01*
X85838650Y-67865114D01*
X85524060Y-67865114D01*
X85524060Y-67450828D01*
X85838650Y-67450828D01*
X85928064Y-67495535D01*
G37*
G36*
X87308805Y-68222257D02*
G01*
X87010746Y-68222257D01*
X87159775Y-67775169D01*
X87308805Y-68222257D01*
G37*
G36*
X90759274Y-69117495D02*
G01*
X85057393Y-69117495D01*
X85057393Y-67300828D01*
X85224060Y-67300828D01*
X85224060Y-68800828D01*
X85226942Y-68830092D01*
X85249340Y-68884164D01*
X85290724Y-68925548D01*
X85344796Y-68947946D01*
X85374060Y-68950828D01*
X85945489Y-68950828D01*
X85974753Y-68947946D01*
X85979731Y-68945883D01*
X85985107Y-68945502D01*
X86012571Y-68934992D01*
X86155428Y-68863564D01*
X86168021Y-68855636D01*
X86171681Y-68854121D01*
X86175800Y-68850739D01*
X86180314Y-68847899D01*
X86182910Y-68844905D01*
X86194412Y-68835466D01*
X86247811Y-68782067D01*
X86510953Y-68782067D01*
X86515102Y-68840448D01*
X86541276Y-68892795D01*
X86585490Y-68931142D01*
X86641014Y-68949650D01*
X86699395Y-68945501D01*
X86751742Y-68919327D01*
X86790089Y-68875113D01*
X86802077Y-68848262D01*
X86910746Y-68522257D01*
X87408805Y-68522257D01*
X87517473Y-68848262D01*
X87529461Y-68875113D01*
X87567808Y-68919328D01*
X87620156Y-68945501D01*
X87678536Y-68949651D01*
X87734060Y-68931142D01*
X87778274Y-68892795D01*
X87804448Y-68840448D01*
X87808598Y-68782068D01*
X87802078Y-68753394D01*
X87308134Y-67271564D01*
X87798371Y-67271564D01*
X87798371Y-67330092D01*
X87820769Y-67384164D01*
X87862153Y-67425548D01*
X87916225Y-67447946D01*
X87945489Y-67450828D01*
X88224060Y-67450828D01*
X88224060Y-68800828D01*
X88226942Y-68830092D01*
X88249340Y-68884164D01*
X88290724Y-68925548D01*
X88344796Y-68947946D01*
X88403324Y-68947946D01*
X88457396Y-68925548D01*
X88498780Y-68884164D01*
X88521178Y-68830092D01*
X88524060Y-68800828D01*
X88524060Y-68200136D01*
X89155513Y-68200136D01*
X89155513Y-68258664D01*
X89177911Y-68312736D01*
X89219295Y-68354120D01*
X89273367Y-68376518D01*
X89302631Y-68379400D01*
X89724060Y-68379400D01*
X89724060Y-68800828D01*
X89726942Y-68830092D01*
X89749340Y-68884164D01*
X89790724Y-68925548D01*
X89844796Y-68947946D01*
X89903324Y-68947946D01*
X89957396Y-68925548D01*
X89998780Y-68884164D01*
X90021178Y-68830092D01*
X90024060Y-68800828D01*
X90024060Y-68379400D01*
X90445489Y-68379400D01*
X90474753Y-68376518D01*
X90528825Y-68354120D01*
X90570209Y-68312736D01*
X90592607Y-68258664D01*
X90592607Y-68200136D01*
X90570209Y-68146064D01*
X90528825Y-68104680D01*
X90474753Y-68082282D01*
X90445489Y-68079400D01*
X90024060Y-68079400D01*
X90024060Y-67657971D01*
X90021178Y-67628707D01*
X89998780Y-67574635D01*
X89957396Y-67533251D01*
X89903324Y-67510853D01*
X89844796Y-67510853D01*
X89790724Y-67533251D01*
X89749340Y-67574635D01*
X89726942Y-67628707D01*
X89724060Y-67657971D01*
X89724060Y-68079400D01*
X89302631Y-68079400D01*
X89273367Y-68082282D01*
X89219295Y-68104680D01*
X89177911Y-68146064D01*
X89155513Y-68200136D01*
X88524060Y-68200136D01*
X88524060Y-67450828D01*
X88802632Y-67450828D01*
X88831896Y-67447946D01*
X88885968Y-67425548D01*
X88927352Y-67384164D01*
X88949750Y-67330092D01*
X88949750Y-67271564D01*
X88927352Y-67217492D01*
X88885968Y-67176108D01*
X88831896Y-67153710D01*
X88802632Y-67150828D01*
X87945489Y-67150828D01*
X87916225Y-67153710D01*
X87862153Y-67176108D01*
X87820769Y-67217492D01*
X87798371Y-67271564D01*
X87308134Y-67271564D01*
X87302077Y-67253394D01*
X87290089Y-67226543D01*
X87283066Y-67218446D01*
X87278274Y-67208861D01*
X87264065Y-67196537D01*
X87251742Y-67182329D01*
X87242156Y-67177536D01*
X87234060Y-67170514D01*
X87216216Y-67164565D01*
X87199395Y-67156155D01*
X87188706Y-67155395D01*
X87178536Y-67152005D01*
X87159770Y-67153338D01*
X87141014Y-67152006D01*
X87130846Y-67155395D01*
X87120156Y-67156155D01*
X87103332Y-67164566D01*
X87085490Y-67170514D01*
X87077395Y-67177534D01*
X87067808Y-67182328D01*
X87055482Y-67196539D01*
X87041276Y-67208861D01*
X87036483Y-67218445D01*
X87029461Y-67226543D01*
X87017473Y-67253394D01*
X86517473Y-68753394D01*
X86510953Y-68782067D01*
X86247811Y-68782067D01*
X86265841Y-68764037D01*
X86275282Y-68752532D01*
X86278274Y-68749938D01*
X86281112Y-68745428D01*
X86284496Y-68741306D01*
X86286012Y-68737644D01*
X86293939Y-68725053D01*
X86365367Y-68582195D01*
X86375877Y-68554732D01*
X86376258Y-68549356D01*
X86378321Y-68544378D01*
X86381203Y-68515114D01*
X86381203Y-68300828D01*
X86378321Y-68271564D01*
X86376258Y-68266585D01*
X86375877Y-68261210D01*
X86365367Y-68233747D01*
X86293939Y-68090889D01*
X86286012Y-68078297D01*
X86284496Y-68074636D01*
X86281112Y-68070513D01*
X86278274Y-68066004D01*
X86275282Y-68063409D01*
X86265841Y-68051905D01*
X86194412Y-67980476D01*
X86193229Y-67979505D01*
X86194412Y-67978323D01*
X86203852Y-67966820D01*
X86206845Y-67964225D01*
X86209683Y-67959715D01*
X86213067Y-67955593D01*
X86214583Y-67951930D01*
X86222510Y-67939339D01*
X86293939Y-67796483D01*
X86304448Y-67769019D01*
X86304829Y-67763644D01*
X86306893Y-67758664D01*
X86309775Y-67729400D01*
X86309775Y-67586542D01*
X86306893Y-67557278D01*
X86304829Y-67552297D01*
X86304448Y-67546923D01*
X86293939Y-67519459D01*
X86222510Y-67376603D01*
X86214583Y-67364011D01*
X86213067Y-67360349D01*
X86209683Y-67356226D01*
X86206845Y-67351717D01*
X86203852Y-67349121D01*
X86194412Y-67337619D01*
X86122984Y-67266191D01*
X86111482Y-67256751D01*
X86108886Y-67253758D01*
X86104372Y-67250917D01*
X86100253Y-67247536D01*
X86096593Y-67246020D01*
X86084000Y-67238093D01*
X85941142Y-67166664D01*
X85913679Y-67156154D01*
X85908301Y-67155771D01*
X85903324Y-67153710D01*
X85874060Y-67150828D01*
X85374060Y-67150828D01*
X85344796Y-67153710D01*
X85290724Y-67176108D01*
X85249340Y-67217492D01*
X85226942Y-67271564D01*
X85224060Y-67300828D01*
X85057393Y-67300828D01*
X85057393Y-66984161D01*
X90759274Y-66984161D01*
X90759274Y-69117495D01*
G37*
D11*
X158348464Y-113203185D02*
X158281797Y-113146042D01*
X158281797Y-113146042D02*
X158181797Y-113146042D01*
X158181797Y-113146042D02*
X158081797Y-113203185D01*
X158081797Y-113203185D02*
X158015131Y-113317471D01*
X158015131Y-113317471D02*
X157981797Y-113431757D01*
X157981797Y-113431757D02*
X157948464Y-113660328D01*
X157948464Y-113660328D02*
X157948464Y-113831757D01*
X157948464Y-113831757D02*
X157981797Y-114060328D01*
X157981797Y-114060328D02*
X158015131Y-114174614D01*
X158015131Y-114174614D02*
X158081797Y-114288900D01*
X158081797Y-114288900D02*
X158181797Y-114346042D01*
X158181797Y-114346042D02*
X158248464Y-114346042D01*
X158248464Y-114346042D02*
X158348464Y-114288900D01*
X158348464Y-114288900D02*
X158381797Y-114231757D01*
X158381797Y-114231757D02*
X158381797Y-113831757D01*
X158381797Y-113831757D02*
X158248464Y-113831757D01*
X158681797Y-114346042D02*
X158681797Y-113146042D01*
X158681797Y-113146042D02*
X158848464Y-113146042D01*
X158848464Y-113146042D02*
X158948464Y-113203185D01*
X158948464Y-113203185D02*
X159015131Y-113317471D01*
X159015131Y-113317471D02*
X159048464Y-113431757D01*
X159048464Y-113431757D02*
X159081797Y-113660328D01*
X159081797Y-113660328D02*
X159081797Y-113831757D01*
X159081797Y-113831757D02*
X159048464Y-114060328D01*
X159048464Y-114060328D02*
X159015131Y-114174614D01*
X159015131Y-114174614D02*
X158948464Y-114288900D01*
X158948464Y-114288900D02*
X158848464Y-114346042D01*
X158848464Y-114346042D02*
X158681797Y-114346042D01*
X159215131Y-114460328D02*
X159748464Y-114460328D01*
X159915130Y-114346042D02*
X159915130Y-113146042D01*
X160248463Y-114346042D02*
X160248463Y-113146042D01*
X160248463Y-113146042D02*
X160648463Y-114346042D01*
X160648463Y-114346042D02*
X160648463Y-113146042D01*
X160881796Y-113146042D02*
X161281796Y-113146042D01*
X161081796Y-114346042D02*
X161081796Y-113146042D01*
D14*
G36*
X103997544Y-115217647D02*
G01*
X104026721Y-115246824D01*
X104071428Y-115336237D01*
X104071428Y-115479704D01*
X104026721Y-115569117D01*
X103989716Y-115606122D01*
X103900304Y-115650828D01*
X103514285Y-115650828D01*
X103514285Y-115165114D01*
X103839942Y-115165114D01*
X103997544Y-115217647D01*
G37*
G36*
X103918289Y-114495535D02*
G01*
X103955293Y-114532539D01*
X104000000Y-114621952D01*
X104000000Y-114693989D01*
X103955293Y-114783402D01*
X103918289Y-114820407D01*
X103828875Y-114865114D01*
X103514285Y-114865114D01*
X103514285Y-114450828D01*
X103828875Y-114450828D01*
X103918289Y-114495535D01*
G37*
G36*
X105489717Y-114495535D02*
G01*
X105585983Y-114591801D01*
X105642857Y-114819292D01*
X105642857Y-115282363D01*
X105585983Y-115509854D01*
X105489716Y-115606122D01*
X105400304Y-115650828D01*
X105185410Y-115650828D01*
X105095996Y-115606121D01*
X104999729Y-115509854D01*
X104942857Y-115282364D01*
X104942857Y-114819291D01*
X104999729Y-114591802D01*
X105095996Y-114495534D01*
X105185410Y-114450828D01*
X105400304Y-114450828D01*
X105489717Y-114495535D01*
G37*
G36*
X107061146Y-114495535D02*
G01*
X107157412Y-114591801D01*
X107214286Y-114819292D01*
X107214286Y-115282363D01*
X107157412Y-115509854D01*
X107061145Y-115606122D01*
X106971733Y-115650828D01*
X106756839Y-115650828D01*
X106667425Y-115606121D01*
X106571158Y-115509854D01*
X106514286Y-115282364D01*
X106514286Y-114819291D01*
X106571158Y-114591802D01*
X106667425Y-114495534D01*
X106756839Y-114450828D01*
X106971733Y-114450828D01*
X107061146Y-114495535D01*
G37*
G36*
X108963786Y-116117495D02*
G01*
X103047618Y-116117495D01*
X103047618Y-114300828D01*
X103214285Y-114300828D01*
X103214285Y-115800828D01*
X103217167Y-115830092D01*
X103239565Y-115884164D01*
X103280949Y-115925548D01*
X103335021Y-115947946D01*
X103364285Y-115950828D01*
X103935714Y-115950828D01*
X103964978Y-115947946D01*
X103969956Y-115945883D01*
X103975332Y-115945502D01*
X104002796Y-115934992D01*
X104145653Y-115863564D01*
X104158246Y-115855636D01*
X104161906Y-115854121D01*
X104166025Y-115850739D01*
X104170539Y-115847899D01*
X104173135Y-115844905D01*
X104184637Y-115835466D01*
X104256066Y-115764037D01*
X104265507Y-115752532D01*
X104268499Y-115749938D01*
X104271337Y-115745428D01*
X104274721Y-115741306D01*
X104276237Y-115737644D01*
X104284164Y-115725053D01*
X104355592Y-115582195D01*
X104366102Y-115554732D01*
X104366483Y-115549356D01*
X104368546Y-115544378D01*
X104371428Y-115515114D01*
X104371428Y-115300828D01*
X104368546Y-115271564D01*
X104366483Y-115266585D01*
X104366102Y-115261210D01*
X104355592Y-115233747D01*
X104284164Y-115090889D01*
X104276237Y-115078297D01*
X104274721Y-115074636D01*
X104271337Y-115070513D01*
X104268499Y-115066004D01*
X104265507Y-115063409D01*
X104256066Y-115051905D01*
X104184637Y-114980476D01*
X104183454Y-114979505D01*
X104184637Y-114978323D01*
X104194077Y-114966820D01*
X104197070Y-114964225D01*
X104199908Y-114959715D01*
X104203292Y-114955593D01*
X104204808Y-114951930D01*
X104212735Y-114939339D01*
X104281991Y-114800828D01*
X104642857Y-114800828D01*
X104642857Y-115300828D01*
X104643359Y-115305931D01*
X104643034Y-115308119D01*
X104644653Y-115319069D01*
X104645739Y-115330092D01*
X104646586Y-115332136D01*
X104647336Y-115337208D01*
X104718764Y-115622922D01*
X104728657Y-115650613D01*
X104735296Y-115659573D01*
X104739564Y-115669877D01*
X104758219Y-115692608D01*
X104901077Y-115835466D01*
X104912581Y-115844907D01*
X104915176Y-115847899D01*
X104919685Y-115850737D01*
X104923808Y-115854121D01*
X104927469Y-115855637D01*
X104940061Y-115863564D01*
X105082919Y-115934992D01*
X105110382Y-115945502D01*
X105115757Y-115945883D01*
X105120736Y-115947946D01*
X105150000Y-115950828D01*
X105435714Y-115950828D01*
X105464978Y-115947946D01*
X105469956Y-115945883D01*
X105475332Y-115945502D01*
X105502796Y-115934992D01*
X105645653Y-115863564D01*
X105658244Y-115855637D01*
X105661907Y-115854121D01*
X105666029Y-115850737D01*
X105670539Y-115847899D01*
X105673134Y-115844906D01*
X105684637Y-115835466D01*
X105827494Y-115692608D01*
X105846149Y-115669877D01*
X105850415Y-115659575D01*
X105857056Y-115650614D01*
X105866949Y-115622923D01*
X105938378Y-115337209D01*
X105939128Y-115332136D01*
X105939975Y-115330092D01*
X105941060Y-115319072D01*
X105942680Y-115308120D01*
X105942354Y-115305931D01*
X105942857Y-115300828D01*
X105942857Y-114800828D01*
X106214286Y-114800828D01*
X106214286Y-115300828D01*
X106214788Y-115305931D01*
X106214463Y-115308119D01*
X106216082Y-115319069D01*
X106217168Y-115330092D01*
X106218015Y-115332136D01*
X106218765Y-115337208D01*
X106290193Y-115622922D01*
X106300086Y-115650613D01*
X106306725Y-115659573D01*
X106310993Y-115669877D01*
X106329648Y-115692608D01*
X106472506Y-115835466D01*
X106484010Y-115844907D01*
X106486605Y-115847899D01*
X106491114Y-115850737D01*
X106495237Y-115854121D01*
X106498898Y-115855637D01*
X106511490Y-115863564D01*
X106654348Y-115934992D01*
X106681811Y-115945502D01*
X106687186Y-115945883D01*
X106692165Y-115947946D01*
X106721429Y-115950828D01*
X107007143Y-115950828D01*
X107036407Y-115947946D01*
X107041385Y-115945883D01*
X107046761Y-115945502D01*
X107074225Y-115934992D01*
X107217082Y-115863564D01*
X107229673Y-115855637D01*
X107233336Y-115854121D01*
X107237458Y-115850737D01*
X107241968Y-115847899D01*
X107244563Y-115844906D01*
X107256066Y-115835466D01*
X107398923Y-115692608D01*
X107417578Y-115669877D01*
X107421844Y-115659575D01*
X107428485Y-115650614D01*
X107438378Y-115622923D01*
X107509807Y-115337209D01*
X107510557Y-115332136D01*
X107511404Y-115330092D01*
X107512489Y-115319072D01*
X107514109Y-115308120D01*
X107513783Y-115305931D01*
X107514286Y-115300828D01*
X107514286Y-114800828D01*
X107513783Y-114795724D01*
X107514109Y-114793536D01*
X107512489Y-114782583D01*
X107511404Y-114771564D01*
X107510557Y-114769519D01*
X107509807Y-114764447D01*
X107438378Y-114478733D01*
X107428485Y-114451042D01*
X107421845Y-114442081D01*
X107417578Y-114431778D01*
X107398923Y-114409048D01*
X107261439Y-114271564D01*
X107645740Y-114271564D01*
X107645740Y-114330092D01*
X107668138Y-114384164D01*
X107709522Y-114425548D01*
X107763594Y-114447946D01*
X107792858Y-114450828D01*
X108071429Y-114450828D01*
X108071429Y-115800828D01*
X108074311Y-115830092D01*
X108096709Y-115884164D01*
X108138093Y-115925548D01*
X108192165Y-115947946D01*
X108250693Y-115947946D01*
X108304765Y-115925548D01*
X108346149Y-115884164D01*
X108368547Y-115830092D01*
X108371429Y-115800828D01*
X108371429Y-114450828D01*
X108650001Y-114450828D01*
X108679265Y-114447946D01*
X108733337Y-114425548D01*
X108774721Y-114384164D01*
X108797119Y-114330092D01*
X108797119Y-114271564D01*
X108774721Y-114217492D01*
X108733337Y-114176108D01*
X108679265Y-114153710D01*
X108650001Y-114150828D01*
X107792858Y-114150828D01*
X107763594Y-114153710D01*
X107709522Y-114176108D01*
X107668138Y-114217492D01*
X107645740Y-114271564D01*
X107261439Y-114271564D01*
X107256066Y-114266191D01*
X107244564Y-114256751D01*
X107241968Y-114253758D01*
X107237454Y-114250917D01*
X107233335Y-114247536D01*
X107229675Y-114246020D01*
X107217082Y-114238093D01*
X107074225Y-114166664D01*
X107046762Y-114156155D01*
X107041387Y-114155773D01*
X107036407Y-114153710D01*
X107007143Y-114150828D01*
X106721429Y-114150828D01*
X106692165Y-114153710D01*
X106687184Y-114155773D01*
X106681810Y-114156155D01*
X106654346Y-114166664D01*
X106511490Y-114238093D01*
X106498896Y-114246020D01*
X106495237Y-114247536D01*
X106491117Y-114250917D01*
X106486604Y-114253758D01*
X106484007Y-114256752D01*
X106472506Y-114266191D01*
X106329648Y-114409048D01*
X106310993Y-114431778D01*
X106306724Y-114442083D01*
X106300086Y-114451043D01*
X106290193Y-114478734D01*
X106218765Y-114764448D01*
X106218015Y-114769519D01*
X106217168Y-114771564D01*
X106216082Y-114782586D01*
X106214463Y-114793537D01*
X106214788Y-114795724D01*
X106214286Y-114800828D01*
X105942857Y-114800828D01*
X105942354Y-114795724D01*
X105942680Y-114793536D01*
X105941060Y-114782583D01*
X105939975Y-114771564D01*
X105939128Y-114769519D01*
X105938378Y-114764447D01*
X105866949Y-114478733D01*
X105857056Y-114451042D01*
X105850416Y-114442081D01*
X105846149Y-114431778D01*
X105827494Y-114409048D01*
X105684637Y-114266191D01*
X105673135Y-114256751D01*
X105670539Y-114253758D01*
X105666025Y-114250917D01*
X105661906Y-114247536D01*
X105658246Y-114246020D01*
X105645653Y-114238093D01*
X105502796Y-114166664D01*
X105475333Y-114156155D01*
X105469958Y-114155773D01*
X105464978Y-114153710D01*
X105435714Y-114150828D01*
X105150000Y-114150828D01*
X105120736Y-114153710D01*
X105115755Y-114155773D01*
X105110381Y-114156155D01*
X105082917Y-114166664D01*
X104940061Y-114238093D01*
X104927467Y-114246020D01*
X104923808Y-114247536D01*
X104919688Y-114250917D01*
X104915175Y-114253758D01*
X104912578Y-114256752D01*
X104901077Y-114266191D01*
X104758219Y-114409048D01*
X104739564Y-114431778D01*
X104735295Y-114442083D01*
X104728657Y-114451043D01*
X104718764Y-114478734D01*
X104647336Y-114764448D01*
X104646586Y-114769519D01*
X104645739Y-114771564D01*
X104644653Y-114782586D01*
X104643034Y-114793537D01*
X104643359Y-114795724D01*
X104642857Y-114800828D01*
X104281991Y-114800828D01*
X104284164Y-114796483D01*
X104294673Y-114769019D01*
X104295054Y-114763644D01*
X104297118Y-114758664D01*
X104300000Y-114729400D01*
X104300000Y-114586542D01*
X104297118Y-114557278D01*
X104295054Y-114552297D01*
X104294673Y-114546923D01*
X104284164Y-114519459D01*
X104212735Y-114376603D01*
X104204808Y-114364011D01*
X104203292Y-114360349D01*
X104199908Y-114356226D01*
X104197070Y-114351717D01*
X104194077Y-114349121D01*
X104184637Y-114337619D01*
X104113209Y-114266191D01*
X104101707Y-114256751D01*
X104099111Y-114253758D01*
X104094597Y-114250917D01*
X104090478Y-114247536D01*
X104086818Y-114246020D01*
X104074225Y-114238093D01*
X103931367Y-114166664D01*
X103903904Y-114156154D01*
X103898526Y-114155771D01*
X103893549Y-114153710D01*
X103864285Y-114150828D01*
X103364285Y-114150828D01*
X103335021Y-114153710D01*
X103280949Y-114176108D01*
X103239565Y-114217492D01*
X103217167Y-114271564D01*
X103214285Y-114300828D01*
X103047618Y-114300828D01*
X103047618Y-113984161D01*
X108963786Y-113984161D01*
X108963786Y-116117495D01*
G37*
D15*
G36*
X136841203Y-82768404D02*
G01*
X134910052Y-82768404D01*
X134910052Y-82241367D01*
X135132274Y-82241367D01*
X135207379Y-82405498D01*
X135321682Y-82352469D01*
X135410223Y-82285575D01*
X135478043Y-82203263D01*
X135518911Y-82113140D01*
X135539446Y-82008265D01*
X135547609Y-81850945D01*
X135547609Y-81577027D01*
X135163660Y-81577027D01*
X135163660Y-81960000D01*
X135349528Y-81960000D01*
X135334224Y-82062946D01*
X135297627Y-82137320D01*
X135260387Y-82176086D01*
X135206690Y-82210939D01*
X135132274Y-82241367D01*
X134910052Y-82241367D01*
X134910052Y-80889239D01*
X135163660Y-80889239D01*
X135547609Y-80889239D01*
X135547609Y-80506266D01*
X135163660Y-80506266D01*
X135163660Y-80889239D01*
X134910052Y-80889239D01*
X134910052Y-79920083D01*
X135923621Y-79920083D01*
X136042430Y-80200430D01*
X136126042Y-80433078D01*
X136180321Y-80624480D01*
X136218642Y-80819174D01*
X136242078Y-81024018D01*
X136250052Y-81239972D01*
X136245212Y-81398721D01*
X136230879Y-81552236D01*
X136207155Y-81706153D01*
X136172138Y-81874026D01*
X136129516Y-82038040D01*
X136086043Y-82173101D01*
X136029257Y-82316376D01*
X135926308Y-82546182D01*
X136191311Y-82546182D01*
X136335774Y-82302599D01*
X136447528Y-82062043D01*
X136528855Y-81823346D01*
X136580105Y-81604018D01*
X136609524Y-81400550D01*
X136618981Y-81211273D01*
X136606382Y-80987202D01*
X136568510Y-80764925D01*
X136504797Y-80543147D01*
X136418906Y-80328454D01*
X136312376Y-80121015D01*
X136184473Y-79920083D01*
X135923621Y-79920083D01*
X134910052Y-79920083D01*
X134910052Y-79697861D01*
X136841203Y-79697861D01*
X136841203Y-82768404D01*
G37*
D14*
G36*
X153116340Y-86503361D02*
G01*
X153216947Y-86603968D01*
X153270126Y-86710327D01*
X153333082Y-86962148D01*
X153333082Y-87139507D01*
X153270126Y-87391328D01*
X153216947Y-87497688D01*
X153116341Y-87598294D01*
X152958739Y-87650828D01*
X152775939Y-87650828D01*
X152775939Y-86450828D01*
X152958742Y-86450828D01*
X153116340Y-86503361D01*
G37*
G36*
X153799749Y-88117495D02*
G01*
X149166415Y-88117495D01*
X149166415Y-86943685D01*
X149333082Y-86943685D01*
X149333082Y-87157971D01*
X149333584Y-87163074D01*
X149333259Y-87165262D01*
X149334878Y-87176212D01*
X149335964Y-87187235D01*
X149336811Y-87189279D01*
X149337561Y-87194351D01*
X149408989Y-87480065D01*
X149409760Y-87482223D01*
X149409837Y-87483304D01*
X149414495Y-87495478D01*
X149418882Y-87507756D01*
X149419526Y-87508626D01*
X149420346Y-87510767D01*
X149491775Y-87653624D01*
X149499702Y-87666217D01*
X149501218Y-87669877D01*
X149504599Y-87673996D01*
X149507440Y-87678510D01*
X149510433Y-87681106D01*
X149519873Y-87692608D01*
X149662730Y-87835466D01*
X149685460Y-87854121D01*
X149690439Y-87856183D01*
X149694511Y-87859715D01*
X149721362Y-87871703D01*
X149935648Y-87943131D01*
X149950160Y-87946430D01*
X149953818Y-87947946D01*
X149959120Y-87948468D01*
X149964322Y-87949651D01*
X149968276Y-87949369D01*
X149983082Y-87950828D01*
X150125939Y-87950828D01*
X150140744Y-87949369D01*
X150144699Y-87949651D01*
X150149900Y-87948468D01*
X150155203Y-87947946D01*
X150158860Y-87946430D01*
X150173373Y-87943131D01*
X150387659Y-87871703D01*
X150414510Y-87859715D01*
X150418583Y-87856181D01*
X150423561Y-87854120D01*
X150446292Y-87835465D01*
X150517720Y-87764036D01*
X150536374Y-87741306D01*
X150556545Y-87692608D01*
X150558771Y-87687235D01*
X150561653Y-87657971D01*
X150561653Y-87157971D01*
X150558771Y-87128707D01*
X150536373Y-87074635D01*
X150494989Y-87033251D01*
X150440917Y-87010853D01*
X150411653Y-87007971D01*
X150125939Y-87007971D01*
X150096675Y-87010853D01*
X150042603Y-87033251D01*
X150001219Y-87074635D01*
X149978821Y-87128707D01*
X149978821Y-87187235D01*
X150001219Y-87241307D01*
X150042603Y-87282691D01*
X150096675Y-87305089D01*
X150125939Y-87307971D01*
X150261653Y-87307971D01*
X150261653Y-87595839D01*
X150259198Y-87598294D01*
X150101596Y-87650828D01*
X150007425Y-87650828D01*
X149849822Y-87598294D01*
X149749217Y-87497688D01*
X149696036Y-87391328D01*
X149633082Y-87139507D01*
X149633082Y-86962148D01*
X149696036Y-86710327D01*
X149749217Y-86603967D01*
X149849823Y-86503361D01*
X150007425Y-86450828D01*
X150161958Y-86450828D01*
X150273142Y-86506421D01*
X150300606Y-86516930D01*
X150358986Y-86521079D01*
X150414508Y-86502572D01*
X150458724Y-86464225D01*
X150484898Y-86411876D01*
X150489047Y-86353496D01*
X150471491Y-86300828D01*
X150904510Y-86300828D01*
X150904510Y-87800828D01*
X150907392Y-87830092D01*
X150929790Y-87884164D01*
X150971174Y-87925548D01*
X151025246Y-87947946D01*
X151083774Y-87947946D01*
X151137846Y-87925548D01*
X151179230Y-87884164D01*
X151201628Y-87830092D01*
X151204510Y-87800828D01*
X151204510Y-86865661D01*
X151781417Y-87875249D01*
X151785794Y-87881416D01*
X151786933Y-87884164D01*
X151789732Y-87886963D01*
X151798438Y-87899227D01*
X151814211Y-87911442D01*
X151828317Y-87925548D01*
X151837150Y-87929206D01*
X151844712Y-87935063D01*
X151863960Y-87940312D01*
X151882389Y-87947946D01*
X151891951Y-87947946D01*
X151901176Y-87950462D01*
X151920967Y-87947946D01*
X151940917Y-87947946D01*
X151949750Y-87944286D01*
X151959236Y-87943081D01*
X151976558Y-87933182D01*
X151994989Y-87925548D01*
X152001749Y-87918787D01*
X152010052Y-87914043D01*
X152022265Y-87898271D01*
X152036373Y-87884164D01*
X152040032Y-87875328D01*
X152045887Y-87867769D01*
X152051135Y-87848524D01*
X152058771Y-87830092D01*
X152060244Y-87815127D01*
X152061287Y-87811306D01*
X152060911Y-87808354D01*
X152061653Y-87800828D01*
X152061653Y-86300828D01*
X152475939Y-86300828D01*
X152475939Y-87800828D01*
X152478821Y-87830092D01*
X152501219Y-87884164D01*
X152542603Y-87925548D01*
X152596675Y-87947946D01*
X152625939Y-87950828D01*
X152983082Y-87950828D01*
X152997887Y-87949369D01*
X153001842Y-87949651D01*
X153007043Y-87948468D01*
X153012346Y-87947946D01*
X153016003Y-87946430D01*
X153030516Y-87943131D01*
X153244802Y-87871703D01*
X153271653Y-87859715D01*
X153275724Y-87856183D01*
X153280704Y-87854121D01*
X153303434Y-87835466D01*
X153446291Y-87692608D01*
X153455729Y-87681106D01*
X153458724Y-87678510D01*
X153461564Y-87673996D01*
X153464946Y-87669877D01*
X153466461Y-87666217D01*
X153474389Y-87653624D01*
X153545818Y-87510768D01*
X153546637Y-87508625D01*
X153547282Y-87507756D01*
X153551666Y-87495484D01*
X153556327Y-87483304D01*
X153556403Y-87482223D01*
X153557175Y-87480065D01*
X153628603Y-87194351D01*
X153629352Y-87189279D01*
X153630200Y-87187235D01*
X153631285Y-87176212D01*
X153632905Y-87165262D01*
X153632579Y-87163074D01*
X153633082Y-87157971D01*
X153633082Y-86943685D01*
X153632579Y-86938581D01*
X153632905Y-86936394D01*
X153631285Y-86925443D01*
X153630200Y-86914421D01*
X153629352Y-86912376D01*
X153628603Y-86907305D01*
X153557175Y-86621591D01*
X153556403Y-86619432D01*
X153556327Y-86618352D01*
X153551666Y-86606171D01*
X153547282Y-86593900D01*
X153546637Y-86593030D01*
X153545818Y-86590888D01*
X153474389Y-86448032D01*
X153466462Y-86435440D01*
X153464946Y-86431778D01*
X153461562Y-86427655D01*
X153458724Y-86423146D01*
X153455731Y-86420550D01*
X153446291Y-86409048D01*
X153303434Y-86266191D01*
X153280703Y-86247536D01*
X153275723Y-86245473D01*
X153271653Y-86241943D01*
X153244802Y-86229954D01*
X153030516Y-86158526D01*
X153016008Y-86155227D01*
X153012346Y-86153710D01*
X153007037Y-86153187D01*
X153001843Y-86152006D01*
X152997893Y-86152286D01*
X152983082Y-86150828D01*
X152625939Y-86150828D01*
X152596675Y-86153710D01*
X152542603Y-86176108D01*
X152501219Y-86217492D01*
X152478821Y-86271564D01*
X152475939Y-86300828D01*
X152061653Y-86300828D01*
X152058771Y-86271564D01*
X152036373Y-86217492D01*
X151994989Y-86176108D01*
X151940917Y-86153710D01*
X151882389Y-86153710D01*
X151828317Y-86176108D01*
X151786933Y-86217492D01*
X151764535Y-86271564D01*
X151761653Y-86300828D01*
X151761653Y-87235992D01*
X151184746Y-86226407D01*
X151180368Y-86220239D01*
X151179230Y-86217492D01*
X151176430Y-86214692D01*
X151167725Y-86202429D01*
X151151953Y-86190215D01*
X151137846Y-86176108D01*
X151129010Y-86172448D01*
X151121451Y-86166594D01*
X151102206Y-86161345D01*
X151083774Y-86153710D01*
X151074212Y-86153710D01*
X151064987Y-86151194D01*
X151045196Y-86153710D01*
X151025246Y-86153710D01*
X151016412Y-86157369D01*
X151006927Y-86158575D01*
X150989604Y-86168473D01*
X150971174Y-86176108D01*
X150964413Y-86182868D01*
X150956111Y-86187613D01*
X150943897Y-86203384D01*
X150929790Y-86217492D01*
X150926130Y-86226327D01*
X150920276Y-86233887D01*
X150915027Y-86253131D01*
X150907392Y-86271564D01*
X150905918Y-86286530D01*
X150904876Y-86290351D01*
X150905251Y-86293302D01*
X150904510Y-86300828D01*
X150471491Y-86300828D01*
X150470539Y-86297973D01*
X150432193Y-86253758D01*
X150407307Y-86238093D01*
X150264450Y-86166664D01*
X150236987Y-86156155D01*
X150231612Y-86155773D01*
X150226632Y-86153710D01*
X150197368Y-86150828D01*
X149983082Y-86150828D01*
X149968270Y-86152286D01*
X149964321Y-86152006D01*
X149959126Y-86153187D01*
X149953818Y-86153710D01*
X149950156Y-86155226D01*
X149935647Y-86158526D01*
X149721362Y-86229955D01*
X149694511Y-86241943D01*
X149690441Y-86245472D01*
X149685460Y-86247536D01*
X149662730Y-86266191D01*
X149519873Y-86409048D01*
X149510433Y-86420549D01*
X149507440Y-86423146D01*
X149504599Y-86427659D01*
X149501218Y-86431779D01*
X149499702Y-86435438D01*
X149491775Y-86448032D01*
X149420346Y-86590889D01*
X149419526Y-86593029D01*
X149418882Y-86593900D01*
X149414495Y-86606177D01*
X149409837Y-86618352D01*
X149409760Y-86619432D01*
X149408989Y-86621591D01*
X149337561Y-86907305D01*
X149336811Y-86912376D01*
X149335964Y-86914421D01*
X149334878Y-86925443D01*
X149333259Y-86936394D01*
X149333584Y-86938581D01*
X149333082Y-86943685D01*
X149166415Y-86943685D01*
X149166415Y-85984161D01*
X153799749Y-85984161D01*
X153799749Y-88117495D01*
G37*
D11*
X158381797Y-106726042D02*
X158148464Y-106154614D01*
X157981797Y-106726042D02*
X157981797Y-105526042D01*
X157981797Y-105526042D02*
X158248464Y-105526042D01*
X158248464Y-105526042D02*
X158315131Y-105583185D01*
X158315131Y-105583185D02*
X158348464Y-105640328D01*
X158348464Y-105640328D02*
X158381797Y-105754614D01*
X158381797Y-105754614D02*
X158381797Y-105926042D01*
X158381797Y-105926042D02*
X158348464Y-106040328D01*
X158348464Y-106040328D02*
X158315131Y-106097471D01*
X158315131Y-106097471D02*
X158248464Y-106154614D01*
X158248464Y-106154614D02*
X157981797Y-106154614D01*
X158615131Y-105526042D02*
X159081797Y-106726042D01*
X159081797Y-105526042D02*
X158615131Y-106726042D01*
D15*
G36*
X150309682Y-123800000D02*
G01*
X150309682Y-121791346D01*
X150703157Y-121791346D01*
X151522836Y-123136025D01*
X151522836Y-121791346D01*
X151898604Y-121791346D01*
X151898604Y-123800000D01*
X151492794Y-123800000D01*
X150685328Y-122475348D01*
X150685328Y-123800000D01*
X150309682Y-123800000D01*
G37*
G36*
X152323220Y-123800000D02*
G01*
X152323220Y-123417027D01*
X152707048Y-123417027D01*
X152707048Y-123800000D01*
X152323220Y-123800000D01*
G37*
G36*
X153109071Y-123800000D02*
G01*
X153109071Y-121791346D01*
X153513415Y-121791346D01*
X153513415Y-122678558D01*
X154330408Y-121791346D01*
X154874214Y-121791346D01*
X154119993Y-122572191D01*
X154915247Y-123800000D01*
X154391957Y-123800000D01*
X153841311Y-122858810D01*
X153513415Y-123194521D01*
X153513415Y-123800000D01*
X153109071Y-123800000D01*
G37*
G36*
X155121266Y-123800000D02*
G01*
X155121266Y-123417027D01*
X155505094Y-123417027D01*
X155505094Y-123800000D01*
X155121266Y-123800000D01*
G37*
G36*
X152267045Y-127160000D02*
G01*
X151827041Y-127160000D01*
X151652163Y-126706685D01*
X150851657Y-126706685D01*
X150686305Y-127160000D01*
X150257293Y-127160000D01*
X150563874Y-126370607D01*
X150975977Y-126370607D01*
X151522470Y-126370607D01*
X151246476Y-125620293D01*
X150975977Y-126370607D01*
X150563874Y-126370607D01*
X151037404Y-125151346D01*
X151465073Y-125151346D01*
X152267045Y-127160000D01*
G37*
G36*
X152478559Y-127160000D02*
G01*
X152478559Y-126777027D01*
X152862387Y-126777027D01*
X152862387Y-127160000D01*
X152478559Y-127160000D01*
G37*
G36*
X153269784Y-127160000D02*
G01*
X153269784Y-125174794D01*
X153674250Y-125174794D01*
X153674250Y-126823921D01*
X154679798Y-126823921D01*
X154679798Y-127160000D01*
X153269784Y-127160000D01*
G37*
G36*
X154965928Y-127160000D02*
G01*
X154965928Y-126777027D01*
X155349756Y-126777027D01*
X155349756Y-127160000D01*
X154965928Y-127160000D01*
G37*
D14*
G36*
X111596861Y-114495535D02*
G01*
X111633865Y-114532539D01*
X111678571Y-114621951D01*
X111678571Y-114765418D01*
X111633864Y-114854831D01*
X111596859Y-114891836D01*
X111507447Y-114936542D01*
X111121428Y-114936542D01*
X111121428Y-114450828D01*
X111507447Y-114450828D01*
X111596861Y-114495535D01*
G37*
G36*
X114856642Y-116117495D02*
G01*
X110654761Y-116117495D01*
X110654761Y-114300828D01*
X110821428Y-114300828D01*
X110821428Y-115800828D01*
X110824310Y-115830092D01*
X110846708Y-115884164D01*
X110888092Y-115925548D01*
X110942164Y-115947946D01*
X111000692Y-115947946D01*
X111054764Y-115925548D01*
X111096148Y-115884164D01*
X111118546Y-115830092D01*
X111121428Y-115800828D01*
X111121428Y-115236542D01*
X111250473Y-115236542D01*
X111705686Y-115886847D01*
X111724829Y-115909169D01*
X111774186Y-115940622D01*
X111831822Y-115950793D01*
X111888964Y-115938134D01*
X111936912Y-115904570D01*
X111968365Y-115855213D01*
X111978536Y-115797577D01*
X111965877Y-115740435D01*
X111951456Y-115714809D01*
X111606504Y-115222020D01*
X111609939Y-115220706D01*
X111752796Y-115149278D01*
X111765389Y-115141350D01*
X111769049Y-115139835D01*
X111773168Y-115136453D01*
X111777682Y-115133613D01*
X111780278Y-115130619D01*
X111791780Y-115121180D01*
X111863209Y-115049751D01*
X111872650Y-115038246D01*
X111875642Y-115035652D01*
X111878480Y-115031142D01*
X111881864Y-115027020D01*
X111883380Y-115023358D01*
X111891307Y-115010767D01*
X111962735Y-114867909D01*
X111973245Y-114840446D01*
X111973626Y-114835070D01*
X111975689Y-114830092D01*
X111978571Y-114800828D01*
X111978571Y-114586542D01*
X112250000Y-114586542D01*
X112250000Y-114729400D01*
X112252882Y-114758664D01*
X112254944Y-114763642D01*
X112255326Y-114769018D01*
X112265836Y-114796482D01*
X112337264Y-114939339D01*
X112345192Y-114951934D01*
X112346708Y-114955593D01*
X112350087Y-114959710D01*
X112352929Y-114964225D01*
X112355923Y-114966821D01*
X112365363Y-114978324D01*
X112436792Y-115049752D01*
X112448292Y-115059190D01*
X112450889Y-115062184D01*
X112455401Y-115065024D01*
X112459522Y-115068406D01*
X112463181Y-115069921D01*
X112475775Y-115077849D01*
X112618631Y-115149278D01*
X112620773Y-115150097D01*
X112621643Y-115150742D01*
X112633914Y-115155126D01*
X112646095Y-115159787D01*
X112647175Y-115159863D01*
X112649334Y-115160635D01*
X112919072Y-115228069D01*
X113025431Y-115281248D01*
X113062435Y-115318253D01*
X113107143Y-115407667D01*
X113107143Y-115479703D01*
X113062435Y-115569117D01*
X113025432Y-115606121D01*
X112936019Y-115650828D01*
X112638629Y-115650828D01*
X112447434Y-115587097D01*
X112418760Y-115580577D01*
X112360380Y-115584727D01*
X112308033Y-115610901D01*
X112269685Y-115655115D01*
X112251177Y-115710640D01*
X112255327Y-115769020D01*
X112281501Y-115821367D01*
X112325715Y-115859715D01*
X112352566Y-115871703D01*
X112566852Y-115943131D01*
X112581364Y-115946430D01*
X112585022Y-115947946D01*
X112590324Y-115948468D01*
X112595526Y-115949651D01*
X112599480Y-115949369D01*
X112614286Y-115950828D01*
X112971428Y-115950828D01*
X113000692Y-115947946D01*
X113005670Y-115945883D01*
X113011046Y-115945502D01*
X113038509Y-115934992D01*
X113181368Y-115863564D01*
X113193962Y-115855635D01*
X113197622Y-115854120D01*
X113201742Y-115850738D01*
X113206253Y-115847899D01*
X113208847Y-115844907D01*
X113220353Y-115835465D01*
X113291781Y-115764036D01*
X113301219Y-115752535D01*
X113304213Y-115749939D01*
X113307053Y-115745426D01*
X113310435Y-115741306D01*
X113311950Y-115737646D01*
X113319878Y-115725053D01*
X113391307Y-115582197D01*
X113401816Y-115554733D01*
X113402197Y-115549358D01*
X113404261Y-115544378D01*
X113407143Y-115515114D01*
X113407143Y-115372257D01*
X113404261Y-115342993D01*
X113402197Y-115338012D01*
X113401816Y-115332638D01*
X113391307Y-115305174D01*
X113319878Y-115162318D01*
X113311950Y-115149724D01*
X113310435Y-115146065D01*
X113307053Y-115141944D01*
X113304213Y-115137432D01*
X113301219Y-115134835D01*
X113291781Y-115123335D01*
X113220353Y-115051906D01*
X113208850Y-115042466D01*
X113206254Y-115039472D01*
X113201739Y-115036630D01*
X113197622Y-115033251D01*
X113193963Y-115031735D01*
X113181368Y-115023807D01*
X113038510Y-114952378D01*
X113036369Y-114951558D01*
X113035499Y-114950914D01*
X113023243Y-114946535D01*
X113011047Y-114941868D01*
X113009963Y-114941791D01*
X113007808Y-114941021D01*
X112738070Y-114873586D01*
X112631710Y-114820406D01*
X112594705Y-114783401D01*
X112550000Y-114693990D01*
X112550000Y-114621951D01*
X112594705Y-114532540D01*
X112631710Y-114495535D01*
X112721124Y-114450828D01*
X113018517Y-114450828D01*
X113209708Y-114514559D01*
X113238382Y-114521079D01*
X113296762Y-114516930D01*
X113349109Y-114490756D01*
X113387457Y-114446542D01*
X113405965Y-114391018D01*
X113401816Y-114332638D01*
X113375642Y-114280290D01*
X113365581Y-114271564D01*
X113538596Y-114271564D01*
X113538596Y-114330092D01*
X113560994Y-114384164D01*
X113602378Y-114425548D01*
X113656450Y-114447946D01*
X113685714Y-114450828D01*
X113964285Y-114450828D01*
X113964285Y-115800828D01*
X113967167Y-115830092D01*
X113989565Y-115884164D01*
X114030949Y-115925548D01*
X114085021Y-115947946D01*
X114143549Y-115947946D01*
X114197621Y-115925548D01*
X114239005Y-115884164D01*
X114261403Y-115830092D01*
X114264285Y-115800828D01*
X114264285Y-114450828D01*
X114542857Y-114450828D01*
X114572121Y-114447946D01*
X114626193Y-114425548D01*
X114667577Y-114384164D01*
X114689975Y-114330092D01*
X114689975Y-114271564D01*
X114667577Y-114217492D01*
X114626193Y-114176108D01*
X114572121Y-114153710D01*
X114542857Y-114150828D01*
X113685714Y-114150828D01*
X113656450Y-114153710D01*
X113602378Y-114176108D01*
X113560994Y-114217492D01*
X113538596Y-114271564D01*
X113365581Y-114271564D01*
X113331428Y-114241943D01*
X113304577Y-114229954D01*
X113090291Y-114158526D01*
X113075783Y-114155227D01*
X113072121Y-114153710D01*
X113066812Y-114153187D01*
X113061618Y-114152006D01*
X113057668Y-114152286D01*
X113042857Y-114150828D01*
X112685714Y-114150828D01*
X112656450Y-114153710D01*
X112651469Y-114155773D01*
X112646095Y-114156155D01*
X112618631Y-114166664D01*
X112475775Y-114238093D01*
X112463181Y-114246020D01*
X112459522Y-114247536D01*
X112455401Y-114250917D01*
X112450889Y-114253758D01*
X112448292Y-114256751D01*
X112436792Y-114266190D01*
X112365363Y-114337618D01*
X112355923Y-114349120D01*
X112352929Y-114351717D01*
X112350087Y-114356231D01*
X112346708Y-114360349D01*
X112345192Y-114364007D01*
X112337264Y-114376603D01*
X112265836Y-114519460D01*
X112255326Y-114546924D01*
X112254944Y-114552299D01*
X112252882Y-114557278D01*
X112250000Y-114586542D01*
X111978571Y-114586542D01*
X111975689Y-114557278D01*
X111973626Y-114552299D01*
X111973245Y-114546924D01*
X111962735Y-114519461D01*
X111891307Y-114376603D01*
X111883378Y-114364008D01*
X111881863Y-114360349D01*
X111878481Y-114356228D01*
X111875642Y-114351718D01*
X111872650Y-114349123D01*
X111863208Y-114337618D01*
X111791779Y-114266190D01*
X111780279Y-114256752D01*
X111777682Y-114253758D01*
X111773165Y-114250915D01*
X111769048Y-114247536D01*
X111765391Y-114246021D01*
X111752796Y-114238093D01*
X111609939Y-114166664D01*
X111582476Y-114156155D01*
X111577101Y-114155773D01*
X111572121Y-114153710D01*
X111542857Y-114150828D01*
X110971428Y-114150828D01*
X110942164Y-114153710D01*
X110888092Y-114176108D01*
X110846708Y-114217492D01*
X110824310Y-114271564D01*
X110821428Y-114300828D01*
X110654761Y-114300828D01*
X110654761Y-113984161D01*
X114856642Y-113984161D01*
X114856642Y-116117495D01*
G37*
G36*
X90150175Y-86503361D02*
G01*
X90250782Y-86603968D01*
X90303961Y-86710327D01*
X90366917Y-86962148D01*
X90366917Y-87139507D01*
X90303961Y-87391328D01*
X90250782Y-87497688D01*
X90150176Y-87598294D01*
X89992574Y-87650828D01*
X89809774Y-87650828D01*
X89809774Y-86450828D01*
X89992577Y-86450828D01*
X90150175Y-86503361D01*
G37*
G36*
X90833584Y-88117495D02*
G01*
X86200250Y-88117495D01*
X86200250Y-86943685D01*
X86366917Y-86943685D01*
X86366917Y-87157971D01*
X86367419Y-87163074D01*
X86367094Y-87165262D01*
X86368713Y-87176212D01*
X86369799Y-87187235D01*
X86370646Y-87189279D01*
X86371396Y-87194351D01*
X86442824Y-87480065D01*
X86443595Y-87482223D01*
X86443672Y-87483304D01*
X86448330Y-87495478D01*
X86452717Y-87507756D01*
X86453361Y-87508626D01*
X86454181Y-87510767D01*
X86525610Y-87653624D01*
X86533537Y-87666217D01*
X86535053Y-87669877D01*
X86538434Y-87673996D01*
X86541275Y-87678510D01*
X86544268Y-87681106D01*
X86553708Y-87692608D01*
X86696565Y-87835466D01*
X86719295Y-87854121D01*
X86724274Y-87856183D01*
X86728346Y-87859715D01*
X86755197Y-87871703D01*
X86969483Y-87943131D01*
X86983995Y-87946430D01*
X86987653Y-87947946D01*
X86992955Y-87948468D01*
X86998157Y-87949651D01*
X87002111Y-87949369D01*
X87016917Y-87950828D01*
X87159774Y-87950828D01*
X87174579Y-87949369D01*
X87178534Y-87949651D01*
X87183735Y-87948468D01*
X87189038Y-87947946D01*
X87192695Y-87946430D01*
X87207208Y-87943131D01*
X87421494Y-87871703D01*
X87448345Y-87859715D01*
X87452418Y-87856181D01*
X87457396Y-87854120D01*
X87480127Y-87835465D01*
X87551555Y-87764036D01*
X87570209Y-87741306D01*
X87590380Y-87692608D01*
X87592606Y-87687235D01*
X87595488Y-87657971D01*
X87595488Y-87157971D01*
X87592606Y-87128707D01*
X87570208Y-87074635D01*
X87528824Y-87033251D01*
X87474752Y-87010853D01*
X87445488Y-87007971D01*
X87159774Y-87007971D01*
X87130510Y-87010853D01*
X87076438Y-87033251D01*
X87035054Y-87074635D01*
X87012656Y-87128707D01*
X87012656Y-87187235D01*
X87035054Y-87241307D01*
X87076438Y-87282691D01*
X87130510Y-87305089D01*
X87159774Y-87307971D01*
X87295488Y-87307971D01*
X87295488Y-87595839D01*
X87293033Y-87598294D01*
X87135431Y-87650828D01*
X87041260Y-87650828D01*
X86883657Y-87598294D01*
X86783052Y-87497688D01*
X86729871Y-87391328D01*
X86666917Y-87139507D01*
X86666917Y-86962148D01*
X86729871Y-86710327D01*
X86783052Y-86603967D01*
X86883658Y-86503361D01*
X87041260Y-86450828D01*
X87195793Y-86450828D01*
X87306977Y-86506421D01*
X87334441Y-86516930D01*
X87392821Y-86521079D01*
X87448343Y-86502572D01*
X87492559Y-86464225D01*
X87518733Y-86411876D01*
X87522882Y-86353496D01*
X87505326Y-86300828D01*
X87938345Y-86300828D01*
X87938345Y-87800828D01*
X87941227Y-87830092D01*
X87963625Y-87884164D01*
X88005009Y-87925548D01*
X88059081Y-87947946D01*
X88117609Y-87947946D01*
X88171681Y-87925548D01*
X88213065Y-87884164D01*
X88235463Y-87830092D01*
X88238345Y-87800828D01*
X88238345Y-86865661D01*
X88815252Y-87875249D01*
X88819629Y-87881416D01*
X88820768Y-87884164D01*
X88823567Y-87886963D01*
X88832273Y-87899227D01*
X88848046Y-87911442D01*
X88862152Y-87925548D01*
X88870985Y-87929206D01*
X88878547Y-87935063D01*
X88897795Y-87940312D01*
X88916224Y-87947946D01*
X88925786Y-87947946D01*
X88935011Y-87950462D01*
X88954802Y-87947946D01*
X88974752Y-87947946D01*
X88983585Y-87944286D01*
X88993071Y-87943081D01*
X89010393Y-87933182D01*
X89028824Y-87925548D01*
X89035584Y-87918787D01*
X89043887Y-87914043D01*
X89056100Y-87898271D01*
X89070208Y-87884164D01*
X89073867Y-87875328D01*
X89079722Y-87867769D01*
X89084970Y-87848524D01*
X89092606Y-87830092D01*
X89094079Y-87815127D01*
X89095122Y-87811306D01*
X89094746Y-87808354D01*
X89095488Y-87800828D01*
X89095488Y-86300828D01*
X89509774Y-86300828D01*
X89509774Y-87800828D01*
X89512656Y-87830092D01*
X89535054Y-87884164D01*
X89576438Y-87925548D01*
X89630510Y-87947946D01*
X89659774Y-87950828D01*
X90016917Y-87950828D01*
X90031722Y-87949369D01*
X90035677Y-87949651D01*
X90040878Y-87948468D01*
X90046181Y-87947946D01*
X90049838Y-87946430D01*
X90064351Y-87943131D01*
X90278637Y-87871703D01*
X90305488Y-87859715D01*
X90309559Y-87856183D01*
X90314539Y-87854121D01*
X90337269Y-87835466D01*
X90480126Y-87692608D01*
X90489564Y-87681106D01*
X90492559Y-87678510D01*
X90495399Y-87673996D01*
X90498781Y-87669877D01*
X90500296Y-87666217D01*
X90508224Y-87653624D01*
X90579653Y-87510768D01*
X90580472Y-87508625D01*
X90581117Y-87507756D01*
X90585501Y-87495484D01*
X90590162Y-87483304D01*
X90590238Y-87482223D01*
X90591010Y-87480065D01*
X90662438Y-87194351D01*
X90663187Y-87189279D01*
X90664035Y-87187235D01*
X90665120Y-87176212D01*
X90666740Y-87165262D01*
X90666414Y-87163074D01*
X90666917Y-87157971D01*
X90666917Y-86943685D01*
X90666414Y-86938581D01*
X90666740Y-86936394D01*
X90665120Y-86925443D01*
X90664035Y-86914421D01*
X90663187Y-86912376D01*
X90662438Y-86907305D01*
X90591010Y-86621591D01*
X90590238Y-86619432D01*
X90590162Y-86618352D01*
X90585501Y-86606171D01*
X90581117Y-86593900D01*
X90580472Y-86593030D01*
X90579653Y-86590888D01*
X90508224Y-86448032D01*
X90500297Y-86435440D01*
X90498781Y-86431778D01*
X90495397Y-86427655D01*
X90492559Y-86423146D01*
X90489566Y-86420550D01*
X90480126Y-86409048D01*
X90337269Y-86266191D01*
X90314538Y-86247536D01*
X90309558Y-86245473D01*
X90305488Y-86241943D01*
X90278637Y-86229954D01*
X90064351Y-86158526D01*
X90049843Y-86155227D01*
X90046181Y-86153710D01*
X90040872Y-86153187D01*
X90035678Y-86152006D01*
X90031728Y-86152286D01*
X90016917Y-86150828D01*
X89659774Y-86150828D01*
X89630510Y-86153710D01*
X89576438Y-86176108D01*
X89535054Y-86217492D01*
X89512656Y-86271564D01*
X89509774Y-86300828D01*
X89095488Y-86300828D01*
X89092606Y-86271564D01*
X89070208Y-86217492D01*
X89028824Y-86176108D01*
X88974752Y-86153710D01*
X88916224Y-86153710D01*
X88862152Y-86176108D01*
X88820768Y-86217492D01*
X88798370Y-86271564D01*
X88795488Y-86300828D01*
X88795488Y-87235992D01*
X88218581Y-86226407D01*
X88214203Y-86220239D01*
X88213065Y-86217492D01*
X88210265Y-86214692D01*
X88201560Y-86202429D01*
X88185788Y-86190215D01*
X88171681Y-86176108D01*
X88162845Y-86172448D01*
X88155286Y-86166594D01*
X88136041Y-86161345D01*
X88117609Y-86153710D01*
X88108047Y-86153710D01*
X88098822Y-86151194D01*
X88079031Y-86153710D01*
X88059081Y-86153710D01*
X88050247Y-86157369D01*
X88040762Y-86158575D01*
X88023439Y-86168473D01*
X88005009Y-86176108D01*
X87998248Y-86182868D01*
X87989946Y-86187613D01*
X87977732Y-86203384D01*
X87963625Y-86217492D01*
X87959965Y-86226327D01*
X87954111Y-86233887D01*
X87948862Y-86253131D01*
X87941227Y-86271564D01*
X87939753Y-86286530D01*
X87938711Y-86290351D01*
X87939086Y-86293302D01*
X87938345Y-86300828D01*
X87505326Y-86300828D01*
X87504374Y-86297973D01*
X87466028Y-86253758D01*
X87441142Y-86238093D01*
X87298285Y-86166664D01*
X87270822Y-86156155D01*
X87265447Y-86155773D01*
X87260467Y-86153710D01*
X87231203Y-86150828D01*
X87016917Y-86150828D01*
X87002105Y-86152286D01*
X86998156Y-86152006D01*
X86992961Y-86153187D01*
X86987653Y-86153710D01*
X86983991Y-86155226D01*
X86969482Y-86158526D01*
X86755197Y-86229955D01*
X86728346Y-86241943D01*
X86724276Y-86245472D01*
X86719295Y-86247536D01*
X86696565Y-86266191D01*
X86553708Y-86409048D01*
X86544268Y-86420549D01*
X86541275Y-86423146D01*
X86538434Y-86427659D01*
X86535053Y-86431779D01*
X86533537Y-86435438D01*
X86525610Y-86448032D01*
X86454181Y-86590889D01*
X86453361Y-86593029D01*
X86452717Y-86593900D01*
X86448330Y-86606177D01*
X86443672Y-86618352D01*
X86443595Y-86619432D01*
X86442824Y-86621591D01*
X86371396Y-86907305D01*
X86370646Y-86912376D01*
X86369799Y-86914421D01*
X86368713Y-86925443D01*
X86367094Y-86936394D01*
X86367419Y-86938581D01*
X86366917Y-86943685D01*
X86200250Y-86943685D01*
X86200250Y-85984161D01*
X90833584Y-85984161D01*
X90833584Y-88117495D01*
G37*
D11*
X157981797Y-99106042D02*
X157981797Y-97906042D01*
X157981797Y-97906042D02*
X158215131Y-98763185D01*
X158215131Y-98763185D02*
X158448464Y-97906042D01*
X158448464Y-97906042D02*
X158448464Y-99106042D01*
X158915131Y-97906042D02*
X159048464Y-97906042D01*
X159048464Y-97906042D02*
X159115131Y-97963185D01*
X159115131Y-97963185D02*
X159181797Y-98077471D01*
X159181797Y-98077471D02*
X159215131Y-98306042D01*
X159215131Y-98306042D02*
X159215131Y-98706042D01*
X159215131Y-98706042D02*
X159181797Y-98934614D01*
X159181797Y-98934614D02*
X159115131Y-99048900D01*
X159115131Y-99048900D02*
X159048464Y-99106042D01*
X159048464Y-99106042D02*
X158915131Y-99106042D01*
X158915131Y-99106042D02*
X158848464Y-99048900D01*
X158848464Y-99048900D02*
X158781797Y-98934614D01*
X158781797Y-98934614D02*
X158748464Y-98706042D01*
X158748464Y-98706042D02*
X158748464Y-98306042D01*
X158748464Y-98306042D02*
X158781797Y-98077471D01*
X158781797Y-98077471D02*
X158848464Y-97963185D01*
X158848464Y-97963185D02*
X158915131Y-97906042D01*
X159481797Y-99048900D02*
X159581797Y-99106042D01*
X159581797Y-99106042D02*
X159748464Y-99106042D01*
X159748464Y-99106042D02*
X159815130Y-99048900D01*
X159815130Y-99048900D02*
X159848464Y-98991757D01*
X159848464Y-98991757D02*
X159881797Y-98877471D01*
X159881797Y-98877471D02*
X159881797Y-98763185D01*
X159881797Y-98763185D02*
X159848464Y-98648900D01*
X159848464Y-98648900D02*
X159815130Y-98591757D01*
X159815130Y-98591757D02*
X159748464Y-98534614D01*
X159748464Y-98534614D02*
X159615130Y-98477471D01*
X159615130Y-98477471D02*
X159548464Y-98420328D01*
X159548464Y-98420328D02*
X159515130Y-98363185D01*
X159515130Y-98363185D02*
X159481797Y-98248900D01*
X159481797Y-98248900D02*
X159481797Y-98134614D01*
X159481797Y-98134614D02*
X159515130Y-98020328D01*
X159515130Y-98020328D02*
X159548464Y-97963185D01*
X159548464Y-97963185D02*
X159615130Y-97906042D01*
X159615130Y-97906042D02*
X159781797Y-97906042D01*
X159781797Y-97906042D02*
X159881797Y-97963185D01*
X160181797Y-99106042D02*
X160181797Y-97906042D01*
D14*
G36*
X151294228Y-67495535D02*
G01*
X151390494Y-67591801D01*
X151447368Y-67819292D01*
X151447368Y-68282363D01*
X151390494Y-68509854D01*
X151294227Y-68606122D01*
X151204815Y-68650828D01*
X150989921Y-68650828D01*
X150900507Y-68606121D01*
X150804240Y-68509854D01*
X150747368Y-68282364D01*
X150747368Y-67819291D01*
X150804240Y-67591802D01*
X150900507Y-67495534D01*
X150989921Y-67450828D01*
X151204815Y-67450828D01*
X151294228Y-67495535D01*
G37*
G36*
X154016340Y-67503361D02*
G01*
X154116947Y-67603968D01*
X154170126Y-67710327D01*
X154233082Y-67962148D01*
X154233082Y-68139507D01*
X154170126Y-68391328D01*
X154116947Y-68497688D01*
X154016341Y-68598294D01*
X153858739Y-68650828D01*
X153675939Y-68650828D01*
X153675939Y-67450828D01*
X153858742Y-67450828D01*
X154016340Y-67503361D01*
G37*
G36*
X152674970Y-68222257D02*
G01*
X152376911Y-68222257D01*
X152525940Y-67775169D01*
X152674970Y-68222257D01*
G37*
G36*
X156482582Y-69117495D02*
G01*
X149137843Y-69117495D01*
X149137843Y-67300828D01*
X149304510Y-67300828D01*
X149304510Y-68800828D01*
X149307392Y-68830092D01*
X149329790Y-68884164D01*
X149371174Y-68925548D01*
X149425246Y-68947946D01*
X149454510Y-68950828D01*
X150168796Y-68950828D01*
X150198060Y-68947946D01*
X150252132Y-68925548D01*
X150293516Y-68884164D01*
X150315914Y-68830092D01*
X150315914Y-68771564D01*
X150293516Y-68717492D01*
X150252132Y-68676108D01*
X150198060Y-68653710D01*
X150168796Y-68650828D01*
X149604510Y-68650828D01*
X149604510Y-67800828D01*
X150447368Y-67800828D01*
X150447368Y-68300828D01*
X150447870Y-68305931D01*
X150447545Y-68308119D01*
X150449164Y-68319069D01*
X150450250Y-68330092D01*
X150451097Y-68332136D01*
X150451847Y-68337208D01*
X150523275Y-68622922D01*
X150533168Y-68650613D01*
X150539807Y-68659573D01*
X150544075Y-68669877D01*
X150562730Y-68692608D01*
X150705588Y-68835466D01*
X150717092Y-68844907D01*
X150719687Y-68847899D01*
X150724196Y-68850737D01*
X150728319Y-68854121D01*
X150731980Y-68855637D01*
X150744572Y-68863564D01*
X150887430Y-68934992D01*
X150914893Y-68945502D01*
X150920268Y-68945883D01*
X150925247Y-68947946D01*
X150954511Y-68950828D01*
X151240225Y-68950828D01*
X151269489Y-68947946D01*
X151274467Y-68945883D01*
X151279843Y-68945502D01*
X151307307Y-68934992D01*
X151450164Y-68863564D01*
X151462755Y-68855637D01*
X151466418Y-68854121D01*
X151470540Y-68850737D01*
X151475050Y-68847899D01*
X151477645Y-68844906D01*
X151489148Y-68835466D01*
X151542547Y-68782067D01*
X151877118Y-68782067D01*
X151881267Y-68840448D01*
X151907441Y-68892795D01*
X151951655Y-68931142D01*
X152007179Y-68949650D01*
X152065560Y-68945501D01*
X152117907Y-68919327D01*
X152156254Y-68875113D01*
X152168242Y-68848262D01*
X152276911Y-68522257D01*
X152774970Y-68522257D01*
X152883638Y-68848262D01*
X152895626Y-68875113D01*
X152933973Y-68919328D01*
X152986321Y-68945501D01*
X153044701Y-68949651D01*
X153100225Y-68931142D01*
X153144439Y-68892795D01*
X153170613Y-68840448D01*
X153174763Y-68782068D01*
X153168243Y-68753394D01*
X152684053Y-67300828D01*
X153375939Y-67300828D01*
X153375939Y-68800828D01*
X153378821Y-68830092D01*
X153401219Y-68884164D01*
X153442603Y-68925548D01*
X153496675Y-68947946D01*
X153525939Y-68950828D01*
X153883082Y-68950828D01*
X153897887Y-68949369D01*
X153901842Y-68949651D01*
X153907043Y-68948468D01*
X153912346Y-68947946D01*
X153916003Y-68946430D01*
X153930516Y-68943131D01*
X154144802Y-68871703D01*
X154171653Y-68859715D01*
X154175724Y-68856183D01*
X154180704Y-68854121D01*
X154203434Y-68835466D01*
X154346291Y-68692608D01*
X154355729Y-68681106D01*
X154358724Y-68678510D01*
X154361564Y-68673996D01*
X154364946Y-68669877D01*
X154366461Y-68666217D01*
X154374389Y-68653624D01*
X154445818Y-68510768D01*
X154446637Y-68508625D01*
X154447282Y-68507756D01*
X154451666Y-68495484D01*
X154456327Y-68483304D01*
X154456403Y-68482223D01*
X154457175Y-68480065D01*
X154527157Y-68200136D01*
X154878821Y-68200136D01*
X154878821Y-68258664D01*
X154901219Y-68312736D01*
X154942603Y-68354120D01*
X154996675Y-68376518D01*
X155025939Y-68379400D01*
X155447368Y-68379400D01*
X155447368Y-68800828D01*
X155450250Y-68830092D01*
X155472648Y-68884164D01*
X155514032Y-68925548D01*
X155568104Y-68947946D01*
X155626632Y-68947946D01*
X155680704Y-68925548D01*
X155722088Y-68884164D01*
X155744486Y-68830092D01*
X155747368Y-68800828D01*
X155747368Y-68379400D01*
X156168797Y-68379400D01*
X156198061Y-68376518D01*
X156252133Y-68354120D01*
X156293517Y-68312736D01*
X156315915Y-68258664D01*
X156315915Y-68200136D01*
X156293517Y-68146064D01*
X156252133Y-68104680D01*
X156198061Y-68082282D01*
X156168797Y-68079400D01*
X155747368Y-68079400D01*
X155747368Y-67657971D01*
X155744486Y-67628707D01*
X155722088Y-67574635D01*
X155680704Y-67533251D01*
X155626632Y-67510853D01*
X155568104Y-67510853D01*
X155514032Y-67533251D01*
X155472648Y-67574635D01*
X155450250Y-67628707D01*
X155447368Y-67657971D01*
X155447368Y-68079400D01*
X155025939Y-68079400D01*
X154996675Y-68082282D01*
X154942603Y-68104680D01*
X154901219Y-68146064D01*
X154878821Y-68200136D01*
X154527157Y-68200136D01*
X154528603Y-68194351D01*
X154529352Y-68189279D01*
X154530200Y-68187235D01*
X154531285Y-68176212D01*
X154532905Y-68165262D01*
X154532579Y-68163074D01*
X154533082Y-68157971D01*
X154533082Y-67943685D01*
X154532579Y-67938581D01*
X154532905Y-67936394D01*
X154531285Y-67925443D01*
X154530200Y-67914421D01*
X154529352Y-67912376D01*
X154528603Y-67907305D01*
X154457175Y-67621591D01*
X154456403Y-67619432D01*
X154456327Y-67618352D01*
X154451666Y-67606171D01*
X154447282Y-67593900D01*
X154446637Y-67593030D01*
X154445818Y-67590888D01*
X154374389Y-67448032D01*
X154366462Y-67435440D01*
X154364946Y-67431778D01*
X154361562Y-67427655D01*
X154358724Y-67423146D01*
X154355731Y-67420550D01*
X154346291Y-67409048D01*
X154203434Y-67266191D01*
X154180703Y-67247536D01*
X154175723Y-67245473D01*
X154171653Y-67241943D01*
X154144802Y-67229954D01*
X153930516Y-67158526D01*
X153916008Y-67155227D01*
X153912346Y-67153710D01*
X153907037Y-67153187D01*
X153901843Y-67152006D01*
X153897893Y-67152286D01*
X153883082Y-67150828D01*
X153525939Y-67150828D01*
X153496675Y-67153710D01*
X153442603Y-67176108D01*
X153401219Y-67217492D01*
X153378821Y-67271564D01*
X153375939Y-67300828D01*
X152684053Y-67300828D01*
X152668242Y-67253394D01*
X152656254Y-67226543D01*
X152649231Y-67218446D01*
X152644439Y-67208861D01*
X152630230Y-67196537D01*
X152617907Y-67182329D01*
X152608321Y-67177536D01*
X152600225Y-67170514D01*
X152582381Y-67164565D01*
X152565560Y-67156155D01*
X152554871Y-67155395D01*
X152544701Y-67152005D01*
X152525935Y-67153338D01*
X152507179Y-67152006D01*
X152497011Y-67155395D01*
X152486321Y-67156155D01*
X152469497Y-67164566D01*
X152451655Y-67170514D01*
X152443560Y-67177534D01*
X152433973Y-67182328D01*
X152421647Y-67196539D01*
X152407441Y-67208861D01*
X152402648Y-67218445D01*
X152395626Y-67226543D01*
X152383638Y-67253394D01*
X151883638Y-68753394D01*
X151877118Y-68782067D01*
X151542547Y-68782067D01*
X151632005Y-68692608D01*
X151650660Y-68669877D01*
X151654926Y-68659575D01*
X151661567Y-68650614D01*
X151671460Y-68622923D01*
X151742889Y-68337209D01*
X151743639Y-68332136D01*
X151744486Y-68330092D01*
X151745571Y-68319072D01*
X151747191Y-68308120D01*
X151746865Y-68305931D01*
X151747368Y-68300828D01*
X151747368Y-67800828D01*
X151746865Y-67795724D01*
X151747191Y-67793536D01*
X151745571Y-67782583D01*
X151744486Y-67771564D01*
X151743639Y-67769519D01*
X151742889Y-67764447D01*
X151671460Y-67478733D01*
X151661567Y-67451042D01*
X151654927Y-67442081D01*
X151650660Y-67431778D01*
X151632005Y-67409048D01*
X151489148Y-67266191D01*
X151477646Y-67256751D01*
X151475050Y-67253758D01*
X151470536Y-67250917D01*
X151466417Y-67247536D01*
X151462757Y-67246020D01*
X151450164Y-67238093D01*
X151307307Y-67166664D01*
X151279844Y-67156155D01*
X151274469Y-67155773D01*
X151269489Y-67153710D01*
X151240225Y-67150828D01*
X150954511Y-67150828D01*
X150925247Y-67153710D01*
X150920266Y-67155773D01*
X150914892Y-67156155D01*
X150887428Y-67166664D01*
X150744572Y-67238093D01*
X150731978Y-67246020D01*
X150728319Y-67247536D01*
X150724199Y-67250917D01*
X150719686Y-67253758D01*
X150717089Y-67256752D01*
X150705588Y-67266191D01*
X150562730Y-67409048D01*
X150544075Y-67431778D01*
X150539806Y-67442083D01*
X150533168Y-67451043D01*
X150523275Y-67478734D01*
X150451847Y-67764448D01*
X150451097Y-67769519D01*
X150450250Y-67771564D01*
X150449164Y-67782586D01*
X150447545Y-67793537D01*
X150447870Y-67795724D01*
X150447368Y-67800828D01*
X149604510Y-67800828D01*
X149604510Y-67300828D01*
X149601628Y-67271564D01*
X149579230Y-67217492D01*
X149537846Y-67176108D01*
X149483774Y-67153710D01*
X149425246Y-67153710D01*
X149371174Y-67176108D01*
X149329790Y-67217492D01*
X149307392Y-67271564D01*
X149304510Y-67300828D01*
X149137843Y-67300828D01*
X149137843Y-66984161D01*
X156482582Y-66984161D01*
X156482582Y-69117495D01*
G37*
D16*
X120000000Y-72954819D02*
X120000000Y-73192914D01*
X119761905Y-73097676D02*
X120000000Y-73192914D01*
X120000000Y-73192914D02*
X120238095Y-73097676D01*
X119857143Y-73383390D02*
X120000000Y-73192914D01*
X120000000Y-73192914D02*
X120142857Y-73383390D01*
X92354819Y-70499999D02*
X92592914Y-70499999D01*
X92497676Y-70738094D02*
X92592914Y-70499999D01*
X92592914Y-70499999D02*
X92497676Y-70261904D01*
X92783390Y-70642856D02*
X92592914Y-70499999D01*
X92592914Y-70499999D02*
X92783390Y-70357142D01*
X100654819Y-70499999D02*
X100892914Y-70499999D01*
X100797676Y-70738094D02*
X100892914Y-70499999D01*
X100892914Y-70499999D02*
X100797676Y-70261904D01*
X101083390Y-70642856D02*
X100892914Y-70499999D01*
X100892914Y-70499999D02*
X101083390Y-70357142D01*
X120000000Y-81954819D02*
X120000000Y-82192914D01*
X119761905Y-82097676D02*
X120000000Y-82192914D01*
X120000000Y-82192914D02*
X120238095Y-82097676D01*
X119857143Y-82383390D02*
X120000000Y-82192914D01*
X120000000Y-82192914D02*
X120142857Y-82383390D01*
D17*
X115206491Y-67762742D02*
X115206491Y-68237258D01*
X116251491Y-67762742D02*
X116251491Y-68237258D01*
X80985420Y-108460000D02*
X81266580Y-108460000D01*
X80985420Y-109480000D02*
X81266580Y-109480000D01*
X116890580Y-97240000D02*
X116609420Y-97240000D01*
X116890580Y-98260000D02*
X116609420Y-98260000D01*
X93040580Y-119090000D02*
X92759420Y-119090000D01*
X93040580Y-120110000D02*
X92759420Y-120110000D01*
X91587742Y-116077500D02*
X92062258Y-116077500D01*
X91587742Y-117122500D02*
X92062258Y-117122500D01*
X129077500Y-102237258D02*
X129077500Y-101762742D01*
X130122500Y-102237258D02*
X130122500Y-101762742D01*
X117037500Y-104937258D02*
X117037500Y-104462742D01*
X118082500Y-104937258D02*
X118082500Y-104462742D01*
X116983519Y-95671952D02*
X116509003Y-95671952D01*
X116983519Y-96716952D02*
X116509003Y-96716952D01*
X128840000Y-73772936D02*
X128840000Y-75227064D01*
X130660000Y-73772936D02*
X130660000Y-75227064D01*
X81062742Y-103977500D02*
X81537258Y-103977500D01*
X81062742Y-105022500D02*
X81537258Y-105022500D01*
D18*
X119210700Y-65872500D02*
X119210700Y-74127500D01*
X119210700Y-74127500D02*
X125789300Y-74127500D01*
X125789300Y-65872500D02*
X119210700Y-65872500D01*
X125789300Y-74127500D02*
X125789300Y-65872500D01*
D17*
X146059420Y-115690000D02*
X146340580Y-115690000D01*
X146059420Y-116710000D02*
X146340580Y-116710000D01*
D18*
X78091800Y-86974300D02*
X78091800Y-91825700D01*
X78091800Y-91825700D02*
X78736960Y-91825700D01*
X78736960Y-86974300D02*
X78091800Y-86974300D01*
X79565000Y-93438600D02*
X80835000Y-93438600D01*
X79565000Y-94200600D02*
X80835000Y-94200600D01*
X80200000Y-93184600D02*
X80200000Y-94454600D01*
X80200000Y-94200600D02*
X79565000Y-93438600D01*
X80200000Y-94200600D02*
X79692000Y-93438600D01*
X80200000Y-94200600D02*
X79819000Y-93438600D01*
X80200000Y-94200600D02*
X79946000Y-93438600D01*
X80200000Y-94200600D02*
X80073000Y-93438600D01*
X80200000Y-94200600D02*
X80327000Y-93438600D01*
X80200000Y-94200600D02*
X80454000Y-93438600D01*
X80200000Y-94200600D02*
X80581000Y-93438600D01*
X80200000Y-94200600D02*
X80708000Y-93438600D01*
X80200000Y-94200600D02*
X80835000Y-93438600D01*
X81663040Y-91825700D02*
X82308200Y-91825700D01*
X82308200Y-86974300D02*
X81663040Y-86974300D01*
X82308200Y-91825700D02*
X82308200Y-86974300D01*
D17*
X86090000Y-91359420D02*
X86090000Y-91640580D01*
X87110000Y-91359420D02*
X87110000Y-91640580D01*
X113517500Y-74827258D02*
X113517500Y-74352742D01*
X114562500Y-74827258D02*
X114562500Y-74352742D01*
X78277500Y-95112258D02*
X78277500Y-94637742D01*
X79322500Y-95112258D02*
X79322500Y-94637742D01*
X132800000Y-100340000D02*
X132150000Y-100340000D01*
X132800000Y-100340000D02*
X133450000Y-100340000D01*
X132800000Y-103460000D02*
X132150000Y-103460000D01*
X132800000Y-103460000D02*
X133450000Y-103460000D01*
X131637500Y-100390000D02*
X131397500Y-100060000D01*
X131877500Y-100060000D01*
X131637500Y-100390000D01*
G36*
X131637500Y-100390000D02*
G01*
X131397500Y-100060000D01*
X131877500Y-100060000D01*
X131637500Y-100390000D01*
G37*
X121177500Y-103862742D02*
X121177500Y-104337258D01*
X122222500Y-103862742D02*
X122222500Y-104337258D01*
X104005500Y-105386644D02*
X104005500Y-104912128D01*
X105050500Y-105386644D02*
X105050500Y-104912128D01*
D12*
X103650000Y-119200000D02*
X103650000Y-122400000D01*
X106700000Y-118550000D02*
X105100000Y-118550000D01*
X106700000Y-123050000D02*
X105100000Y-123050000D01*
D10*
X107500000Y-116900000D02*
X107500000Y-116900000D01*
X107500000Y-117000000D02*
X107500000Y-117000000D01*
D12*
X108150000Y-119200000D02*
X108150000Y-122400000D01*
D10*
X107500000Y-116900000D02*
G75*
G02*
X107500000Y-117000000I0J-50000D01*
G01*
X107500000Y-117000000D02*
G75*
G02*
X107500000Y-116900000I0J50000D01*
G01*
D18*
X91622500Y-69210700D02*
X91622500Y-75789300D01*
X91622500Y-75789300D02*
X99877500Y-75789300D01*
X99877500Y-69210700D02*
X91622500Y-69210700D01*
X99877500Y-75789300D02*
X99877500Y-69210700D01*
D17*
X102105500Y-104912128D02*
X102105500Y-105386644D01*
X103150500Y-104912128D02*
X103150500Y-105386644D01*
D18*
X108941800Y-69054300D02*
X108941800Y-73905700D01*
X108941800Y-73905700D02*
X109586960Y-73905700D01*
X109586960Y-69054300D02*
X108941800Y-69054300D01*
X110415000Y-75518600D02*
X111685000Y-75518600D01*
X110415000Y-76280600D02*
X111685000Y-76280600D01*
X111050000Y-75264600D02*
X111050000Y-76534600D01*
X111050000Y-76280600D02*
X110415000Y-75518600D01*
X111050000Y-76280600D02*
X110542000Y-75518600D01*
X111050000Y-76280600D02*
X110669000Y-75518600D01*
X111050000Y-76280600D02*
X110796000Y-75518600D01*
X111050000Y-76280600D02*
X110923000Y-75518600D01*
X111050000Y-76280600D02*
X111177000Y-75518600D01*
X111050000Y-76280600D02*
X111304000Y-75518600D01*
X111050000Y-76280600D02*
X111431000Y-75518600D01*
X111050000Y-76280600D02*
X111558000Y-75518600D01*
X111050000Y-76280600D02*
X111685000Y-75518600D01*
X112513040Y-73905700D02*
X113158200Y-73905700D01*
X113158200Y-69054300D02*
X112513040Y-69054300D01*
X113158200Y-73905700D02*
X113158200Y-69054300D01*
D17*
X114017500Y-79167258D02*
X114017500Y-78692742D01*
X115062500Y-79167258D02*
X115062500Y-78692742D01*
X88038742Y-116907500D02*
X88513258Y-116907500D01*
X88038742Y-117952500D02*
X88513258Y-117952500D01*
X102152500Y-110909420D02*
X102152500Y-111190580D01*
X103172500Y-110909420D02*
X103172500Y-111190580D01*
X83490000Y-90413748D02*
X83490000Y-91836252D01*
X85310000Y-90413748D02*
X85310000Y-91836252D01*
X110977500Y-98237258D02*
X110977500Y-97762742D01*
X112022500Y-98237258D02*
X112022500Y-97762742D01*
X106847742Y-95727500D02*
X107322258Y-95727500D01*
X106847742Y-96772500D02*
X107322258Y-96772500D01*
X119477500Y-104337258D02*
X119477500Y-103862742D01*
X120522500Y-104337258D02*
X120522500Y-103862742D01*
X141577500Y-90837258D02*
X141577500Y-90362742D01*
X142622500Y-90837258D02*
X142622500Y-90362742D01*
X84640580Y-103990000D02*
X84359420Y-103990000D01*
X84640580Y-105010000D02*
X84359420Y-105010000D01*
X93640000Y-117490580D02*
X93640000Y-117209420D01*
X94660000Y-117490580D02*
X94660000Y-117209420D01*
X81551000Y-110580000D02*
X83251000Y-110580000D01*
X81551000Y-119920000D02*
X83251000Y-119920000D01*
X146059420Y-114190000D02*
X146340580Y-114190000D01*
X146059420Y-115210000D02*
X146340580Y-115210000D01*
X91940580Y-114090000D02*
X91659420Y-114090000D01*
X91940580Y-115110000D02*
X91659420Y-115110000D01*
X147577500Y-90837258D02*
X147577500Y-90362742D01*
X148622500Y-90837258D02*
X148622500Y-90362742D01*
X78277500Y-101137742D02*
X78277500Y-101612258D01*
X79322500Y-101137742D02*
X79322500Y-101612258D01*
X147365000Y-92615000D02*
X147365000Y-94900000D01*
X148835000Y-92615000D02*
X147365000Y-92615000D01*
X148835000Y-94900000D02*
X148835000Y-92615000D01*
X97487258Y-87534379D02*
X97012742Y-87534379D01*
X97487258Y-88579379D02*
X97012742Y-88579379D01*
X113517500Y-71382742D02*
X113517500Y-71857258D01*
X114562500Y-71382742D02*
X114562500Y-71857258D01*
X114017500Y-81692742D02*
X114017500Y-82167258D01*
X115062500Y-81692742D02*
X115062500Y-82167258D01*
X111290000Y-107115000D02*
X111465000Y-107115000D01*
X111290000Y-107790000D02*
X111290000Y-107115000D01*
X111290000Y-109660000D02*
X111290000Y-110335000D01*
X111290000Y-110335000D02*
X111465000Y-110335000D01*
X114510000Y-107115000D02*
X114335000Y-107115000D01*
X114510000Y-107790000D02*
X114510000Y-107127500D01*
D19*
X114350355Y-109945000D02*
G75*
G02*
X114229645Y-109945000I-60355J0D01*
G01*
X114229645Y-109945000D02*
G75*
G02*
X114350355Y-109945000I60355J0D01*
G01*
D17*
X93137258Y-120577500D02*
X92662742Y-120577500D01*
X93137258Y-121622500D02*
X92662742Y-121622500D01*
X113863247Y-96813505D02*
X113863247Y-97094665D01*
X114883247Y-96813505D02*
X114883247Y-97094665D01*
X106847742Y-91227500D02*
X107322258Y-91227500D01*
X106847742Y-92272500D02*
X107322258Y-92272500D01*
X78277500Y-104837258D02*
X78277500Y-104362742D01*
X79322500Y-104837258D02*
X79322500Y-104362742D01*
X91286000Y-109980000D02*
X87626000Y-109980000D01*
X91286000Y-111880000D02*
X87626000Y-111880000D01*
X91286000Y-111880000D02*
X91286000Y-109980000D01*
D12*
X110400000Y-119200000D02*
X110400000Y-122400000D01*
X113450000Y-118550000D02*
X111850000Y-118550000D01*
X113450000Y-123050000D02*
X111850000Y-123050000D01*
D10*
X114250000Y-116900000D02*
X114250000Y-116900000D01*
X114250000Y-117000000D02*
X114250000Y-117000000D01*
D12*
X114900000Y-119200000D02*
X114900000Y-122400000D01*
D10*
X114250000Y-116900000D02*
G75*
G02*
X114250000Y-117000000I0J-50000D01*
G01*
X114250000Y-117000000D02*
G75*
G02*
X114250000Y-116900000I0J50000D01*
G01*
D17*
X96422750Y-110709670D02*
X96422750Y-110990830D01*
X97442750Y-110709670D02*
X97442750Y-110990830D01*
X130362742Y-98477500D02*
X130837258Y-98477500D01*
X130362742Y-99522500D02*
X130837258Y-99522500D01*
X95140000Y-117490580D02*
X95140000Y-117209420D01*
X96160000Y-117490580D02*
X96160000Y-117209420D01*
D10*
X87060000Y-114600000D02*
G75*
G02*
X86960000Y-114600000I-50000J0D01*
G01*
X86960000Y-114600000D02*
G75*
G02*
X87060000Y-114600000I50000J0D01*
G01*
D17*
X99832750Y-109490000D02*
X99032750Y-109490000D01*
X99832750Y-109490000D02*
X100632750Y-109490000D01*
X99832750Y-112610000D02*
X99032750Y-112610000D01*
X99832750Y-112610000D02*
X100632750Y-112610000D01*
X98532750Y-109540000D02*
X98292750Y-109210000D01*
X98772750Y-109210000D01*
X98532750Y-109540000D01*
G36*
X98532750Y-109540000D02*
G01*
X98292750Y-109210000D01*
X98772750Y-109210000D01*
X98532750Y-109540000D01*
G37*
X115377500Y-104937258D02*
X115377500Y-104462742D01*
X116422500Y-104937258D02*
X116422500Y-104462742D01*
X154170000Y-89610000D02*
X155500000Y-89610000D01*
X154170000Y-90940000D02*
X154170000Y-89610000D01*
X154170000Y-92210000D02*
X154170000Y-120210000D01*
X154170000Y-92210000D02*
X156830000Y-92210000D01*
X154170000Y-120210000D02*
X156830000Y-120210000D01*
X156830000Y-92210000D02*
X156830000Y-120210000D01*
X93742160Y-109639750D02*
X92692160Y-109639750D01*
X93742160Y-111959750D02*
X92442160Y-111959750D01*
X92332160Y-109639750D02*
X92052160Y-109639750D01*
X92332160Y-109359750D01*
X92332160Y-109639750D01*
G36*
X92332160Y-109639750D02*
G01*
X92052160Y-109639750D01*
X92332160Y-109359750D01*
X92332160Y-109639750D01*
G37*
X103690000Y-87888748D02*
X103690000Y-89311252D01*
X105510000Y-87888748D02*
X105510000Y-89311252D01*
X138200000Y-75585000D02*
X138200000Y-76950000D01*
X138200000Y-76950000D02*
X140010000Y-76950000D01*
X148600000Y-75585000D02*
X148600000Y-76950000D01*
X148600000Y-76950000D02*
X146790000Y-76950000D01*
X140050000Y-79775000D02*
X139580000Y-80115000D01*
X139580000Y-79435000D01*
X140050000Y-79775000D01*
G36*
X140050000Y-79775000D02*
G01*
X139580000Y-80115000D01*
X139580000Y-79435000D01*
X140050000Y-79775000D01*
G37*
X87740000Y-91359420D02*
X87740000Y-91640580D01*
X88760000Y-91359420D02*
X88760000Y-91640580D01*
X106847742Y-97227500D02*
X107322258Y-97227500D01*
X106847742Y-98272500D02*
X107322258Y-98272500D01*
X82859420Y-93790000D02*
X83140580Y-93790000D01*
X82859420Y-94810000D02*
X83140580Y-94810000D01*
X88038742Y-112657500D02*
X88513258Y-112657500D01*
X88038742Y-113702500D02*
X88513258Y-113702500D01*
X109086252Y-83990000D02*
X107663748Y-83990000D01*
X109086252Y-85810000D02*
X107663748Y-85810000D01*
X80690000Y-97689416D02*
X80690000Y-97450000D01*
X80690000Y-101110584D02*
X80690000Y-101350000D01*
X85810000Y-97689416D02*
X85810000Y-97450000D01*
X85810000Y-101110584D02*
X85810000Y-101350000D01*
X86045000Y-96940000D02*
X85715000Y-96700000D01*
X86045000Y-96460000D01*
X86045000Y-96940000D01*
G36*
X86045000Y-96940000D02*
G01*
X85715000Y-96700000D01*
X86045000Y-96460000D01*
X86045000Y-96940000D01*
G37*
X138577500Y-90837258D02*
X138577500Y-90362742D01*
X139622500Y-90837258D02*
X139622500Y-90362742D01*
X115070000Y-108969420D02*
X115070000Y-109250580D01*
X116090000Y-108969420D02*
X116090000Y-109250580D01*
X106847742Y-94227500D02*
X107322258Y-94227500D01*
X106847742Y-95272500D02*
X107322258Y-95272500D01*
X93339418Y-112527250D02*
X92864902Y-112527250D01*
X93339418Y-113572250D02*
X92864902Y-113572250D01*
X143277500Y-115737258D02*
X143277500Y-115262742D01*
X144322500Y-115737258D02*
X144322500Y-115262742D01*
D20*
X122450000Y-84550000D02*
X135250000Y-84550000D01*
X122450000Y-89200000D02*
X122450000Y-84550000D01*
X122450000Y-97350000D02*
X122450000Y-92700000D01*
D10*
X123200000Y-88100000D02*
X124200000Y-88100000D01*
X123700000Y-87600000D02*
X123700000Y-88600000D01*
D20*
X132250000Y-97350000D02*
X122450000Y-97350000D01*
D10*
X133200000Y-88100000D02*
X134200000Y-88100000D01*
D20*
X135250000Y-84550000D02*
X135250000Y-89200000D01*
X135250000Y-92700000D02*
X135250000Y-94350000D01*
X135250000Y-94350000D02*
X132250000Y-97350000D01*
D17*
X99240000Y-87109419D02*
X99240000Y-87390581D01*
X100260000Y-87109419D02*
X100260000Y-87390581D01*
X94990000Y-119490000D02*
X95715000Y-119490000D01*
X94990000Y-120215000D02*
X94990000Y-119490000D01*
X94990000Y-123985000D02*
X94990000Y-124710000D01*
X94990000Y-124710000D02*
X95715000Y-124710000D01*
X99485000Y-119490000D02*
X99970000Y-119490000D01*
X100210000Y-120215000D02*
X100210000Y-119790000D01*
X100210000Y-123985000D02*
X100210000Y-124710000D01*
X100210000Y-124710000D02*
X99485000Y-124710000D01*
X100540000Y-119730000D02*
X100210000Y-119490000D01*
X100540000Y-119250000D01*
X100540000Y-119730000D01*
G36*
X100540000Y-119730000D02*
G01*
X100210000Y-119490000D01*
X100540000Y-119250000D01*
X100540000Y-119730000D01*
G37*
X124050000Y-105190000D02*
X124050000Y-104890000D01*
X124050000Y-125110000D02*
X124050000Y-118610000D01*
X142270000Y-104890000D02*
X124050000Y-104890000D01*
X142270000Y-105190000D02*
X142270000Y-104890000D01*
X142270000Y-125110000D02*
X124050000Y-125110000D01*
X142270000Y-125110000D02*
X142270000Y-119300000D01*
X142260000Y-119100000D02*
X142260000Y-118600000D01*
X142760000Y-118600000D01*
X142260000Y-119100000D01*
G36*
X142260000Y-119100000D02*
G01*
X142260000Y-118600000D01*
X142760000Y-118600000D01*
X142260000Y-119100000D01*
G37*
X78277500Y-98437258D02*
X78277500Y-97962742D01*
X79322500Y-98437258D02*
X79322500Y-97962742D01*
X138365000Y-92615000D02*
X138365000Y-94900000D01*
X139835000Y-92615000D02*
X138365000Y-92615000D01*
X139835000Y-94900000D02*
X139835000Y-92615000D01*
X106847742Y-92727500D02*
X107322258Y-92727500D01*
X106847742Y-93772500D02*
X107322258Y-93772500D01*
X107537500Y-104990000D02*
X106887500Y-104990000D01*
X107537500Y-104990000D02*
X108187500Y-104990000D01*
X107537500Y-108110000D02*
X106887500Y-108110000D01*
X107537500Y-108110000D02*
X108187500Y-108110000D01*
X106375000Y-105040000D02*
X106135000Y-104710000D01*
X106615000Y-104710000D01*
X106375000Y-105040000D01*
G36*
X106375000Y-105040000D02*
G01*
X106135000Y-104710000D01*
X106615000Y-104710000D01*
X106375000Y-105040000D01*
G37*
D18*
X100122500Y-69210700D02*
X100122500Y-75789300D01*
X100122500Y-75789300D02*
X108377500Y-75789300D01*
X108377500Y-69210700D02*
X100122500Y-69210700D01*
X108377500Y-75789300D02*
X108377500Y-69210700D01*
D17*
X95840000Y-78750000D02*
X104349999Y-78750000D01*
X95840000Y-85250000D02*
X95840000Y-78750000D01*
X95840000Y-85250000D02*
X104349999Y-85250000D01*
X86500000Y-106100000D02*
X86500000Y-93900000D01*
X86900000Y-93500000D02*
X89250000Y-93500000D01*
X86900000Y-106500000D02*
X89250000Y-106500000D01*
X89250000Y-106500000D02*
X89250000Y-107250000D01*
X96750000Y-93500000D02*
X99100000Y-93500000D01*
X96750000Y-106500000D02*
X99100000Y-106500000D01*
X99500000Y-93900000D02*
X99500000Y-106100000D01*
X86500000Y-93900000D02*
G75*
G02*
X86900000Y-93500000I400000J0D01*
G01*
X86900000Y-106500000D02*
G75*
G02*
X86500000Y-106100000I-1J399999D01*
G01*
X99100000Y-93500000D02*
G75*
G02*
X99500000Y-93900000I0J-400000D01*
G01*
X99500000Y-106100000D02*
G75*
G02*
X99100000Y-106500000I-399999J-1D01*
G01*
D10*
X86736000Y-118930000D02*
G75*
G02*
X86636000Y-118930000I-50000J0D01*
G01*
X86636000Y-118930000D02*
G75*
G02*
X86736000Y-118930000I50000J0D01*
G01*
D17*
X144365000Y-92615000D02*
X144365000Y-94900000D01*
X145835000Y-92615000D02*
X144365000Y-92615000D01*
X145835000Y-94900000D02*
X145835000Y-92615000D01*
X106390000Y-87888748D02*
X106390000Y-89311252D01*
X108210000Y-87888748D02*
X108210000Y-89311252D01*
X141365000Y-92615000D02*
X141365000Y-94900000D01*
X142835000Y-92615000D02*
X141365000Y-92615000D01*
X142835000Y-94900000D02*
X142835000Y-92615000D01*
X109227500Y-98237258D02*
X109227500Y-97762742D01*
X110272500Y-98237258D02*
X110272500Y-97762742D01*
X143777500Y-107862742D02*
X143777500Y-108337258D01*
X144822500Y-107862742D02*
X144822500Y-108337258D01*
X107500000Y-101340000D02*
X106850000Y-101340000D01*
X107500000Y-101340000D02*
X108150000Y-101340000D01*
X107500000Y-104460000D02*
X106850000Y-104460000D01*
X107500000Y-104460000D02*
X108150000Y-104460000D01*
X106337500Y-101390000D02*
X106097500Y-101060000D01*
X106577500Y-101060000D01*
X106337500Y-101390000D01*
G36*
X106337500Y-101390000D02*
G01*
X106097500Y-101060000D01*
X106577500Y-101060000D01*
X106337500Y-101390000D01*
G37*
D20*
X77987500Y-69880000D02*
X90587500Y-69880000D01*
X77987500Y-85120000D02*
X77987500Y-69880000D01*
X90587500Y-69880000D02*
X90587500Y-85120000D01*
X90587500Y-85120000D02*
X77987500Y-85120000D01*
D18*
X119210700Y-74872500D02*
X119210700Y-83127500D01*
X119210700Y-83127500D02*
X125789300Y-83127500D01*
X125789300Y-74872500D02*
X119210700Y-74872500D01*
X125789300Y-83127500D02*
X125789300Y-74872500D01*
D17*
X91587742Y-117577500D02*
X92062258Y-117577500D01*
X91587742Y-118622500D02*
X92062258Y-118622500D01*
X113420580Y-105590000D02*
X113139420Y-105590000D01*
X113420580Y-106610000D02*
X113139420Y-106610000D01*
D18*
X109179202Y-89024099D02*
X109179202Y-93265899D01*
X109179202Y-93265899D02*
X109551802Y-93265899D01*
X109551802Y-89024099D02*
X109179202Y-89024099D01*
X117798202Y-93265899D02*
X118170802Y-93265899D01*
X118170802Y-89024099D02*
X117798202Y-89024099D01*
X118170802Y-93265899D02*
X118170802Y-89024099D01*
X110176202Y-95233998D02*
G75*
G02*
X110023802Y-95233998I-76200J0D01*
G01*
X110023802Y-95233998D02*
G75*
G02*
X110176202Y-95233998I76200J0D01*
G01*
D17*
X111390000Y-85211252D02*
X111390000Y-83788748D01*
X113210000Y-85211252D02*
X113210000Y-83788748D01*
X146059420Y-117190000D02*
X146340580Y-117190000D01*
X146059420Y-118210000D02*
X146340580Y-118210000D01*
X84610420Y-108460000D02*
X84891580Y-108460000D01*
X84610420Y-109480000D02*
X84891580Y-109480000D01*
D10*
X87060000Y-116000000D02*
G75*
G02*
X86960000Y-116000000I-50000J0D01*
G01*
X86960000Y-116000000D02*
G75*
G02*
X87060000Y-116000000I50000J0D01*
G01*
D17*
X131000000Y-68590000D02*
X131000000Y-77100000D01*
X131000000Y-68590000D02*
X137500000Y-68590000D01*
X137500000Y-68590000D02*
X137500000Y-77100000D01*
X97487258Y-85977500D02*
X97012742Y-85977500D01*
X97487258Y-87022500D02*
X97012742Y-87022500D01*
X144577500Y-90837258D02*
X144577500Y-90362742D01*
X145622500Y-90837258D02*
X145622500Y-90362742D01*
D20*
X150610000Y-69760000D02*
X163210000Y-69760000D01*
X150610000Y-85000000D02*
X150610000Y-69760000D01*
X163210000Y-69760000D02*
X163210000Y-85000000D01*
X163210000Y-85000000D02*
X150610000Y-85000000D01*
M02*
